<svg width="120" height="120" viewBox="0 0 120 120" fill="none" xmlns="http://www.w3.org/2000/svg">
<path d="M98.0625 116.25C108.004 116.25 116.062 108.191 116.062 98.25C116.062 88.3089 108.004 80.25 98.0625 80.25C88.1214 80.25 80.0625 88.3089 80.0625 98.25C80.0625 108.191 88.1214 116.25 98.0625 116.25Z" fill="#ED4C5C"/>
<path d="M84.4763 86.5688L86.3325 84.7125L111.654 110.036L109.798 111.893L84.4763 86.5688Z" fill="#E8E8E8"/>
<path d="M98.8387 93.7725L100.695 91.9163L104.276 95.4956L102.42 97.3519L98.8387 93.7725Z" fill="#E8E8E8"/>
<path d="M104.278 99.2081L106.134 97.3519L109.716 100.929L107.859 102.786L104.278 99.2081Z" fill="#E8E8E8"/>
<path d="M93.3994 88.3369L95.2556 86.4807L98.835 90.06L96.9788 91.9163L93.3994 88.3369Z" fill="#E8E8E8"/>
<path d="M91.7231 100.974L93.5794 99.1181L97.1587 102.699L95.3025 104.556L91.7231 100.974Z" fill="#E8E8E8"/>
<path d="M97.1644 106.412L99.0206 104.556L102.602 108.135L100.746 109.991L97.1644 106.412Z" fill="#E8E8E8"/>
<path d="M104.438 110.062L102.562 111.938L105.375 114.75C106.125 114.375 107.062 114 107.812 113.437L104.438 110.062Z" fill="#E8E8E8"/>
<path d="M81.5625 90.9375L84.375 93.75L86.25 91.875L82.875 88.5C82.5 89.4375 81.9375 90.1875 81.5625 90.9375Z" fill="#E8E8E8"/>
<path d="M86.2856 95.5425L88.1419 93.6863L91.7212 97.2675L89.865 99.1219L86.2856 95.5425Z" fill="#E8E8E8"/>
<path d="M91.6875 86.625L93.5625 84.75L90.75 81.9375C90 82.3125 89.0625 82.6875 88.3125 83.25L91.6875 86.625Z" fill="#E8E8E8"/>
<path d="M114.375 105.562L111.562 102.75L109.688 104.625L113.062 108C113.625 107.25 114 106.5 114.375 105.562Z" fill="#E8E8E8"/>
<path d="M72 28.6875L4.3125 96.375C2.4375 98.0625 5.4375 103.875 10.6875 109.312C15.9375 114.562 21.75 117.562 23.625 115.688L91.3125 48L72 28.6875Z" fill="#DBB471"/>
<path d="M89.8125 36.75L116.25 10.125C115.875 8.625 115.125 7.125 114 6C112.875 4.875 111.375 4.125 109.875 3.75L83.25 30.1875C80.625 32.8125 76.3125 32.8125 73.5 30.1875L89.625 46.3125C87 43.6875 87 39.375 89.8125 36.75Z" fill="#E8E8E8"/>
<path opacity="0.5" d="M24.375 97.125C23.0625 98.4375 21.75 101.438 21.75 103.312C21.9375 106.125 24.1875 115.125 24.1875 115.125L91.3125 48L82.3125 39C82.3125 39 38.8125 82.5 24.375 97.125Z" fill="white"/>
<path opacity="0.15" d="M22.875 95.625C21.5625 96.9375 18.5625 98.25 16.6875 98.25C14.0625 98.0625 4.875 95.625 4.875 95.625L72 28.5L81 37.5C81 37.6875 37.5 81.1875 22.875 95.625Z" fill="#3E4347"/>
<path d="M89.8125 46.3125C88.3125 44.8125 87.75 42.75 87.9375 40.6875C86.25 39.9375 84.375 39 82.5 37.5C81.1875 35.4375 80.0625 33.75 79.3125 32.0625C77.25 32.25 75.1875 31.6875 73.6875 30.1875C73.6875 30.1875 75.1875 34.6875 79.3125 40.6875C85.3125 44.8125 89.8125 46.3125 89.8125 46.3125Z" fill="#3E4347"/>
<path d="M113.062 13.5L116.25 10.125C115.875 8.625 115.125 7.125 114 6C112.875 4.875 111.375 4.125 109.875 3.75L106.688 6.9375C108 7.3125 109.5 8.0625 110.625 9.375C111.937 10.5 112.687 12 113.062 13.5Z" fill="#3E4347"/>
<path d="M92.625 33.75L84.75 28.6875L83.25 30.1875C82.6875 30.75 81.9375 31.3125 81 31.6875L89.25 37.125L89.625 36.75L92.625 33.75Z" fill="#B2C1C0"/>
<path d="M112.5 14.0625L104.625 9L101.25 12.1875L109.125 17.25L112.5 14.0625Z" fill="#B2C1C0"/>
<path d="M105.938 20.625L98.0625 15.5625L94.6875 18.75L102.563 23.8125L105.938 20.625Z" fill="#B2C1C0"/>
<path d="M99.1875 27.1875L91.5 22.125L88.125 25.5L96 30.5625L99.1875 27.1875Z" fill="#B2C1C0"/>
</svg>
