<svg version="1.1" id="icons_1_" xmlns="http://www.w3.org/2000/svg" x="0" y="0" viewBox="0 0 128 128" style="enable-background:new 0 0 128 128" xml:space="preserve"><style>.st0{display:none}.st1{display:inline}.st2{fill:#0a0a0a}</style><g id="row2_1_"><g id="_x33__3_"><path class="st2" d="M64 .3C28.8.3.3 28.8.3 64s28.5 63.7 63.7 63.7 63.7-28.5 63.7-63.7S99.2.3 64 .3zm0 121C32.3 121.3 6.7 95.7 6.7 64 6.7 32.3 32.3 6.7 64 6.7c31.7 0 57.3 25.7 57.3 57.3 0 31.7-25.6 57.3-57.3 57.3zm-2-82.8c-2.2 0-3.9 1.8-3.9 3.9l12.2 15.2H41.7c-2.2 0-3.2 2.2-3.2 4.4v4c0 2.2 1.8 3.9 3.9 3.9h28.4L58.1 85.6c0 2.2 1.8 3.9 3.9 3.9h7.1L95.8 64 69.1 38.5H62z" id="right_1_"/></g></g></svg>