<svg width="50" height="50" viewBox="0 0 50 50" fill="none" xmlns="http://www.w3.org/2000/svg">
<path d="M28.9062 8.25781C30.7493 8.68571 32.4783 9.41031 34.041 10.3779L39.9873 4.43262L45.5117 9.95703L39.5801 15.8877C40.5709 17.4689 41.3113 19.2226 41.7461 21.0938H50V28.9062H41.7451C41.3162 30.7493 40.5894 32.4777 39.6201 34.04L45.5674 39.9873L40.043 45.5117L34.1055 39.5742C32.5258 40.5622 30.7749 41.3015 28.9062 41.7354V50H21.0938V41.7344C19.2254 41.3001 17.4748 40.5605 15.8955 39.5723L10.1562 45.3125L4.63184 39.7881L10.3818 34.0371C9.41369 32.4756 8.68837 30.748 8.25977 28.9062H0V21.0938H8.25879C8.69324 19.2239 9.43216 17.471 10.4219 15.8906L4.6875 10.1562L10.2119 4.63184L15.96 10.3799C17.5223 9.41196 19.251 8.68712 21.0938 8.25879V0H28.9062V8.25781ZM25.1074 16.4062C23.2193 16.4062 21.473 17.0095 20.0469 18.0312C19.9341 18.112 19.8235 18.1953 19.7148 18.2812C19.2606 18.6406 18.8431 19.0438 18.4688 19.4854C18.3021 19.6819 18.144 19.8857 17.9951 20.0967C17.9494 20.1615 17.9044 20.2269 17.8604 20.293C16.943 21.6712 16.4072 23.325 16.4072 25.1045C16.4073 29.9091 20.3042 33.8037 25.1104 33.8037C27.6614 33.8036 29.9561 32.7063 31.5479 30.958C32.9524 29.4128 33.8086 27.36 33.8086 25.1074C33.8086 20.3021 29.9127 16.4064 25.1074 16.4062Z" fill="#858AE3"/>
</svg>
