<svg width="50" height="51" viewBox="0 0 50 51" fill="none" xmlns="http://www.w3.org/2000/svg">
<g clip-path="url(#clip0_283_83)">
<path d="M8.31199 6.06115C-1.30858 14.6259 -3.75561 31.5539 7.30632 42.9008C16.6756 52.5214 31.9946 53.6613 43.1403 43.0351C53.314 33.3139 50.7331 15.9499 44.6659 8.8605C35.7656 -1.53126 18.6869 -3.19066 8.31199 6.06115Z" fill="#EE5646"/>
<path d="M21.6537 3.61449C18.6872 3.26216 10.6587 5.05585 6.95468 13.8716C3.58576 21.9001 5.76465 27.7328 7.40722 28.1854C10.1056 28.9393 12.2676 17.9948 18.2347 14.0559C24.2013 10.1175 27.8717 12.6819 28.6929 10.4694C29.2798 8.9274 27.8047 4.3516 21.6537 3.61449Z" fill="#EC877A"/>
<path d="M4.44067 39.398C5.07758 39.1804 19.3741 33.1127 27.369 26.9617C39.5372 17.5929 43.1911 7.35181 43.1911 7.35181C43.1911 7.35181 45.4706 9.12867 47.1296 12.4639C48.3196 14.8773 49.3253 18.7155 49.2583 19.118C49.1241 19.9725 40.4254 29.4087 31.6261 36.1967C22.8268 42.985 12.1168 46.8902 12.1168 46.8902C12.1168 46.8902 8.83168 44.4933 7.27329 42.9008C5.61388 41.1749 4.44067 39.398 4.44067 39.398Z" fill="#EE5646"/>
<path d="M2.74756 36.6156C2.74756 36.6156 14.8657 33.8166 25.9777 24.7997C36.7883 16.0169 41.8836 6.11133 41.8836 6.11133C41.8836 6.11133 43.0736 6.98313 43.9117 7.82125C44.7495 8.65896 45.3531 9.61452 45.3531 9.61452C45.3531 9.61452 42.4535 18.7826 28.274 29.6938C15.7539 39.3476 5.2451 40.5882 5.2451 40.5882C5.2451 40.5882 4.35688 39.6158 3.68629 38.4257C3.21693 37.5375 2.74756 36.6156 2.74756 36.6156Z" fill="#F0E9DD"/>
<path d="M9.25098 44.7111C9.25098 44.7111 20.6648 42.1302 31.643 33.0965C45.4201 21.766 48.2026 14.978 48.2026 14.978C48.2026 14.978 48.8896 16.8218 49.1409 17.9281C49.4596 19.3025 49.6604 20.9447 49.6604 20.9447C49.6604 20.9447 45.772 28.9063 34.8612 37.2863C24.0337 45.6166 14.9495 48.3149 14.9495 48.3149C14.9495 48.3149 13.0893 47.4768 11.8487 46.7224C10.8266 46.1192 9.25098 44.7111 9.25098 44.7111Z" fill="#F0E9DD"/>
</g>
<defs>
<clipPath id="clip0_283_83">
<rect width="50" height="50.5679" fill="white"/>
</clipPath>
</defs>
</svg>
