<svg width="143" height="143" viewBox="0 0 143 143" fill="none" xmlns="http://www.w3.org/2000/svg">
<g clip-path="url(#clip0_328_337)">
<path d="M59.4176 60.0992L58.3973 52.5497C58.3973 52.5497 58.0433 50.889 58.7272 50.3423C59.4049 49.801 62.3399 50.7465 64.5981 48.1027C66.9797 45.3111 68.7457 42.2012 68.7457 42.2012L73.6463 43.0227L75.1762 45.2489C75.1762 45.2489 76.7184 48.3335 78.69 49.434C80.4188 50.4038 82.5893 49.925 83.2232 50.5223C84.069 51.306 83.5777 129.296 83.4404 129.981C83.3042 130.665 78.6769 134.197 78.0616 134.403C77.4463 134.607 63.1608 133.657 63.1608 133.657C63.1608 133.657 59.5236 130.578 59.2556 129.627C59.2248 129.508 59.2248 129.01 59.2681 128.657C59.8968 123.613 66.3142 108.613 66.4324 92.2882C66.4759 85.255 59.4176 60.0992 59.4176 60.0992Z" fill="#D2AC8D"/>
<path d="M69.4298 14.0053L66.5317 11.1071C66.5317 11.1071 65.1202 7.12064 65.0334 6.41127C64.946 5.70306 66.9861 2.68033 70.6735 2.81128C74.3617 2.94137 75.8975 5.12463 76.0035 5.5657C76.1214 6.06978 74.8838 11.25 74.8838 11.25L69.4298 14.0053Z" fill="#EEBA89"/>
<path d="M58.3977 52.5371C58.5286 52.1576 62.4213 52.966 64.374 51.2003C66.3267 49.434 69.2435 46.1438 69.2435 46.1438L73.2485 47.0019L74.8217 48.7621C74.8217 48.7621 76.2518 50.9517 77.7759 51.7163C79.2989 52.4814 80.5432 52.3818 81.0652 52.7175C81.5879 53.0531 81.8678 127.636 81.6373 128.066C81.3957 128.494 77.4458 132.357 76.924 132.406C76.4011 132.456 64.8964 131.784 64.2312 131.592C63.5659 131.398 59.7098 129.309 59.2804 128.681C58.8454 128.084 58.2362 53.0221 58.3977 52.5371Z" fill="#EEBA89"/>
<path d="M66.5252 45.4169C66.3824 45.2741 66.5694 11.7163 66.5694 11.7163L74.9645 11.9032L75.2697 45.7395C75.2697 45.7395 70.9101 51.828 70.7231 51.5422C70.5309 51.2495 66.5252 45.4169 66.5252 45.4169Z" fill="#474C4F"/>
<path d="M66.5005 27.0706L66.5069 23.1838L75.0702 23.1654L75.1073 27.1952L66.5005 27.0706Z" fill="#E0E0E0"/>
<path d="M66.5323 19.5521L75.027 19.5768L74.996 10.8643C74.996 10.8643 66.4577 10.684 66.4641 10.9261C66.4638 11.1256 66.5323 19.5521 66.5323 19.5521Z" fill="#E0E0E0"/>
<path d="M70.5368 83.9799C71.3017 84.0112 71.4765 82.0826 71.6376 80.7774C71.7059 80.2364 72.7756 70.7588 73.5038 61.9833C74.2312 53.2087 75.5497 45.721 75.2138 45.3229C74.8781 44.9251 66.9549 45.0375 66.5254 45.417C66.0904 45.802 66.5629 53.2647 67.3843 61.4981C68.2984 70.6587 69.2993 80.1929 69.3367 80.5161C69.5731 82.2199 69.9401 83.9546 70.5368 83.9799Z" fill="#DBAE87"/>
</g>
<defs>
<clipPath id="clip0_328_337">
<rect width="100" height="101.018" fill="white" transform="translate(0 70.7107) rotate(-45)"/>
</clipPath>
</defs>
</svg>
