<svg width="100" height="102" viewBox="0 0 100 102" fill="none" xmlns="http://www.w3.org/2000/svg">
<g clip-path="url(#clip0_285_81)">
<path d="M49.5181 34.5111L54.1349 28.4512C54.1349 28.4512 55.0589 27.0267 55.929 27.1236C56.7909 27.2201 58.1978 29.964 61.664 29.6914C65.322 29.4015 68.7698 28.4512 68.7698 28.4512L71.6541 32.4973L71.1618 35.1533C71.1618 35.1533 70.0711 38.4249 70.6871 40.5972C71.2238 42.5055 73.0972 43.7017 73.123 44.5722C73.167 45.7245 17.6719 100.525 17.0909 100.912C16.5111 101.299 10.7411 100.525 10.1609 100.235C9.58105 99.9444 0.1519 89.1708 0.1519 89.1708C0.1519 89.1708 -0.242741 84.4218 0.240174 83.5598C0.302181 83.4543 0.654108 83.1024 0.934988 82.8827C4.94614 79.7606 20.0902 73.6921 31.7171 62.2323C36.7212 57.2898 49.5181 34.5111 49.5181 34.5111Z" fill="#D2AC8D"/>
<path d="M89.191 8.99749V4.89887C89.191 4.89887 91.0118 1.08196 91.452 0.518969C91.891 -0.0436112 95.471 -0.738424 97.9858 1.96155C100.502 4.66152 100.044 7.29128 99.807 7.6781C99.5339 8.1179 94.9959 10.9057 94.9959 10.9057L89.191 8.99749Z" fill="#EEBA89"/>
<path d="M54.1441 28.4428C54.505 28.267 56.6859 31.5912 59.3153 31.7234C61.945 31.8552 66.334 31.5912 66.334 31.5912L68.5592 35.0299L68.427 37.387C68.427 37.387 67.8899 39.9465 68.427 41.5648C68.9629 43.1828 69.9131 43.9921 70.0449 44.5987C70.1772 45.2056 17.6371 98.1415 17.1702 98.2823C16.6964 98.4146 11.172 98.353 10.7683 98.0187C10.363 97.6844 2.70331 89.0741 2.36905 88.4676C2.0352 87.8606 0.786033 83.6565 0.926062 82.9091C1.04104 82.179 53.687 28.6715 54.1441 28.4428Z" fill="#EEBA89"/>
<path d="M64.9258 29.1552C64.9258 28.9532 88.787 5.35645 88.787 5.35645L94.591 11.4249L70.8809 35.5666C70.8809 35.5666 63.4931 36.7891 63.5629 36.4548C63.6339 36.1119 64.9258 29.1552 64.9258 29.1552Z" fill="#474C4F"/>
<path d="M77.8811 16.1648L80.634 13.4209L86.7021 19.4631L83.879 22.3388L77.8811 16.1648Z" fill="#E0E0E0"/>
<path d="M83.22 10.8709L89.2092 16.895L95.3479 10.7124C95.3479 10.7124 89.4379 4.54742 89.2712 4.72317C89.1299 4.86402 83.22 10.8709 83.22 10.8709Z" fill="#E0E0E0"/>
<path d="M40.4942 59.2598C41.0129 59.8228 42.5002 58.5826 43.5371 57.7737C43.9679 57.4394 51.4259 51.4941 58.1461 45.8039C64.865 40.1136 71.092 35.7513 71.1359 35.2323C71.1799 34.7137 65.4978 29.1905 64.9258 29.1552C64.346 29.1199 59.4031 34.7309 54.1621 41.1336C48.3309 48.2575 42.297 55.7069 42.0949 55.9619C41.0572 57.3339 40.0902 58.82 40.4942 59.2598Z" fill="#DBAE87"/>
</g>
<defs>
<clipPath id="clip0_285_81">
<rect width="100" height="101.018" fill="white"/>
</clipPath>
</defs>
</svg>
