<svg width="120" height="120" viewBox="0 0 120 120" fill="none" xmlns="http://www.w3.org/2000/svg">
<path d="M114.6 59.9999C114.592 72.0346 110.609 83.7295 103.269 93.2673C95.93 102.805 85.6458 109.652 74.0149 112.743C62.384 115.834 50.0577 114.996 38.9516 110.361C27.8456 105.725 18.5818 97.5506 12.5999 87.1079C9.80247 82.2478 7.78207 76.9802 6.61191 71.4959C5.80481 67.7172 5.39856 63.8638 5.39991 59.9999C5.40458 51.7001 7.3003 43.5105 10.9431 36.0528C14.586 28.5952 19.8802 22.0656 26.4237 16.9599C32.9672 11.8541 40.5881 8.30644 48.7077 6.5862C56.8273 4.86595 65.232 5.01838 73.2839 7.03189C78.72 8.38362 83.9108 10.5782 88.6679 13.5359C96.5927 18.4279 103.135 25.2647 107.674 33.397C112.212 41.5292 114.597 50.6868 114.6 59.9999Z" fill="#FFDE50"/>
<path d="M105 60C105.004 71.5349 100.576 82.6305 92.6326 90.9942C84.6888 99.3578 73.8357 104.35 62.3159 104.94H62.2799C61.5239 104.976 60.7679 105 59.9999 105C48.7345 105 37.8788 100.775 29.5772 93.16C21.2757 85.5447 16.1322 75.0928 15.1629 63.8692C14.1935 52.6456 17.4688 41.4667 24.3418 32.5408C31.2147 23.6149 41.1853 17.5913 52.2839 15.66H52.3199C58.7835 14.5386 65.4142 14.8443 71.7472 16.5557C78.0802 18.2671 83.9624 21.3428 88.9813 25.5672C94.0003 29.7916 98.0348 35.0625 100.802 41.0106C103.569 46.9586 105.002 53.4398 105 60Z" fill="#F68E00"/>
<path d="M99.5999 60.5999C99.6023 71.1979 95.8637 81.4568 89.043 89.5683C82.2222 97.6799 72.7572 103.124 62.3159 104.94H62.2799C61.5239 104.976 60.7679 105 59.9999 105C48.7345 105 37.8788 100.775 29.5772 93.1599C21.2757 85.5445 16.1322 75.0927 15.1629 63.8691C14.1935 52.6455 17.4688 41.4665 24.3418 32.5406C31.2147 23.6147 41.1853 17.5911 52.2839 15.6599H52.3199C53.0759 15.6239 53.8319 15.5999 54.5999 15.5999C60.5099 15.598 66.3624 16.7606 71.8229 19.0214C77.2834 21.2822 82.2449 24.5968 86.4239 28.7758C90.6029 32.9548 93.9175 37.9164 96.1783 43.3769C98.4391 48.8374 99.6018 54.6898 99.5999 60.5999Z" fill="#FAA300"/>
<path opacity="0.14" d="M99.8039 22.5958L93.0239 29.3758L89.9279 32.4718L29.3759 93.0238L22.5959 99.8038C19.165 96.3806 16.2069 92.5144 13.7999 88.3078C11.0024 83.4477 8.98202 78.1801 7.81186 72.6958C7.00476 68.9171 6.59851 65.0638 6.59986 61.1998C6.60453 52.9 8.50025 44.7104 12.1431 37.2528C15.7859 29.7951 21.0801 23.2656 27.6236 18.1598C34.1672 13.0541 41.7881 9.50639 49.9076 7.78615C58.0272 6.0659 66.432 6.21833 74.4839 8.23184C79.9199 9.58357 85.1108 11.7782 89.8679 14.7358C93.4748 16.9597 96.8095 19.5976 99.8039 22.5958Z" fill="white"/>
<path d="M36.3283 58.1201V60.5279H28.5082V58.1201H36.3283ZM29.424 52.0185V67H26.3372V52.0185H29.424ZM38.5302 52.0185V67H35.4537V52.0185H38.5302ZM51.2687 64.5923V67H43.2943V64.5923H51.2687ZM44.3027 52.0185V67H41.2158V52.0185H44.3027ZM50.2294 58.1201V60.4662H43.2943V58.1201H50.2294ZM51.2584 52.0185V54.4365H43.2943V52.0185H51.2584ZM59.1607 54.5805L55.0861 67H51.8037L57.3704 52.0185H59.4591L59.1607 54.5805ZM62.546 67L58.4611 54.5805L58.1318 52.0185H60.2411L65.8386 67H62.546ZM62.3608 61.4231V63.8411H54.4481V61.4231H62.3608ZM71.8271 67H68.5654L68.5859 64.5923H71.8271C72.6366 64.5923 73.3191 64.4105 73.8748 64.0469C74.4304 63.6765 74.8488 63.138 75.1301 62.4315C75.4182 61.7249 75.5622 60.8709 75.5622 59.8694V59.1388C75.5622 58.3705 75.4799 57.6948 75.3153 57.1118C75.1575 56.5287 74.9209 56.0382 74.6053 55.6404C74.2898 55.2425 73.9022 54.9441 73.4426 54.7452C72.983 54.5394 72.4548 54.4365 71.858 54.4365H68.5036V52.0185H71.858C72.8595 52.0185 73.7753 52.1899 74.6053 52.5329C75.4422 52.8691 76.1659 53.3527 76.7764 53.9838C77.3869 54.6148 77.8568 55.3694 78.1861 56.2474C78.5222 57.1186 78.6903 58.0893 78.6903 59.1594V59.8694C78.6903 60.9326 78.5222 61.9033 78.1861 62.7813C77.8568 63.6593 77.3869 64.4139 76.7764 65.045C76.1728 65.6692 75.4491 66.1528 74.6053 66.4958C73.7684 66.8319 72.8424 67 71.8271 67ZM70.3146 52.0185V67H67.2277V52.0185H70.3146ZM88.7328 63.0797C88.7328 62.8122 88.6917 62.5721 88.6094 62.3594C88.5339 62.1399 88.3898 61.941 88.1772 61.7626C87.9645 61.5774 87.6662 61.3956 87.282 61.2173C86.8979 61.0389 86.4005 60.8537 85.79 60.6617C85.1109 60.4421 84.4661 60.1952 83.8556 59.9208C83.2519 59.6464 82.7169 59.3274 82.2504 58.9639C81.7908 58.5935 81.4273 58.1647 81.1597 57.6777C80.8991 57.1907 80.7687 56.6247 80.7687 55.9799C80.7687 55.3557 80.9059 54.7898 81.1803 54.2821C81.4547 53.7677 81.8389 53.3287 82.3327 52.9651C82.8266 52.5947 83.4097 52.31 84.082 52.1111C84.7611 51.9121 85.5054 51.8127 86.3148 51.8127C87.4192 51.8127 88.383 52.0116 89.2062 52.4095C90.0293 52.8073 90.6673 53.3527 91.12 54.0455C91.5796 54.7383 91.8094 55.5306 91.8094 56.4224H88.7431C88.7431 55.9833 88.6505 55.5992 88.4653 55.2699C88.287 54.9338 88.0126 54.6697 87.6421 54.4776C87.2786 54.2856 86.819 54.1895 86.2633 54.1895C85.7283 54.1895 85.2824 54.2719 84.9257 54.4365C84.569 54.5943 84.3015 54.8103 84.1231 55.0847C83.9448 55.3523 83.8556 55.6541 83.8556 55.9902C83.8556 56.244 83.9173 56.4738 84.0408 56.6796C84.1711 56.8854 84.3632 57.0775 84.617 57.2558C84.8708 57.4342 85.1829 57.6022 85.5534 57.76C85.9238 57.9178 86.3525 58.0721 86.8396 58.223C87.6559 58.47 88.3727 58.7478 88.9901 59.0565C89.6143 59.3652 90.1356 59.7116 90.5541 60.0957C90.9725 60.4799 91.2881 60.9155 91.5007 61.4025C91.7134 61.8895 91.8197 62.4417 91.8197 63.0591C91.8197 63.7108 91.6928 64.2939 91.439 64.8083C91.1852 65.3228 90.8182 65.7584 90.338 66.1151C89.8578 66.4718 89.285 66.7428 88.6196 66.928C87.9543 67.1132 87.21 67.2058 86.3868 67.2058C85.646 67.2058 84.9154 67.1098 84.1952 66.9177C83.4749 66.7188 82.8198 66.4204 82.2299 66.0225C81.6468 65.6246 81.1803 65.117 80.8305 64.4996C80.4806 63.8823 80.3057 63.1517 80.3057 62.308H83.4029C83.4029 62.7744 83.4749 63.1689 83.6189 63.4913C83.763 63.8137 83.9654 64.0743 84.226 64.2733C84.4935 64.4722 84.8091 64.6163 85.1727 64.7054C85.5431 64.7946 85.9478 64.8392 86.3868 64.8392C86.9219 64.8392 87.3609 64.7637 87.7039 64.6128C88.0537 64.4619 88.311 64.2527 88.4756 63.9852C88.6471 63.7176 88.7328 63.4158 88.7328 63.0797Z" fill="#B96B00"/>
<path d="M37.5285 59.3203V61.7281H29.7084V59.3203H37.5285ZM30.6242 53.2186V68.2002H27.5373V53.2186H30.6242ZM39.7304 53.2186V68.2002H36.6539V53.2186H39.7304ZM52.4689 65.7924V68.2002H44.4945V65.7924H52.4689ZM45.5029 53.2186V68.2002H42.416V53.2186H45.5029ZM51.4296 59.3203V61.6663H44.4945V59.3203H51.4296ZM52.4586 53.2186V55.6367H44.4945V53.2186H52.4586ZM60.3609 55.7807L56.2863 68.2002H53.0039L58.5706 53.2186H60.6593L60.3609 55.7807ZM63.7462 68.2002L59.6612 55.7807L59.332 53.2186H61.4413L67.0388 68.2002H63.7462ZM63.561 62.6233V65.0413H55.6483V62.6233H63.561ZM73.0273 68.2002H69.7656L69.7861 65.7924H73.0273C73.8368 65.7924 74.5193 65.6107 75.075 65.2471C75.6306 64.8767 76.049 64.3382 76.3303 63.6316C76.6184 62.9251 76.7624 62.0711 76.7624 61.0696V60.339C76.7624 59.5707 76.6801 58.895 76.5155 58.312C76.3577 57.7289 76.1211 57.2384 75.8055 56.8406C75.49 56.4427 75.1024 56.1443 74.6428 55.9454C74.1832 55.7396 73.655 55.6367 73.0582 55.6367H69.7038V53.2186H73.0582C74.0597 53.2186 74.9755 53.3901 75.8055 53.7331C76.6424 54.0692 77.3661 54.5529 77.9766 55.1839C78.5871 55.815 79.057 56.5696 79.3863 57.4476C79.7224 58.3188 79.8905 59.2895 79.8905 60.3596V61.0696C79.8905 62.1328 79.7224 63.1035 79.3863 63.9815C79.057 64.8595 78.5871 65.6141 77.9766 66.2452C77.3729 66.8694 76.6493 67.353 75.8055 67.696C74.9686 68.0321 74.0426 68.2002 73.0273 68.2002ZM71.5148 53.2186V68.2002H68.4279V53.2186H71.5148ZM89.933 64.2799C89.933 64.0124 89.8919 63.7723 89.8096 63.5596C89.7341 63.3401 89.59 63.1412 89.3774 62.9628C89.1647 62.7776 88.8663 62.5958 88.4822 62.4175C88.0981 62.2391 87.6007 62.0539 86.9902 61.8618C86.3111 61.6423 85.6663 61.3954 85.0558 61.121C84.4521 60.8466 83.9171 60.5276 83.4506 60.1641C82.991 59.7937 82.6275 59.3649 82.3599 58.8779C82.0993 58.3908 81.9689 57.8249 81.9689 57.1801C81.9689 56.5559 82.1061 55.99 82.3805 55.4823C82.6549 54.9679 83.039 54.5288 83.5329 54.1653C84.0268 53.7949 84.6099 53.5102 85.2822 53.3113C85.9613 53.1123 86.7055 53.0129 87.515 53.0129C88.6194 53.0129 89.5832 53.2118 90.4063 53.6096C91.2295 54.0075 91.8675 54.5529 92.3202 55.2457C92.7798 55.9385 93.0096 56.7308 93.0096 57.6226H89.9433C89.9433 57.1835 89.8507 56.7994 89.6655 56.4701C89.4871 56.134 89.2128 55.8699 88.8423 55.6778C88.4788 55.4858 88.0192 55.3897 87.4635 55.3897C86.9285 55.3897 86.4826 55.4721 86.1259 55.6367C85.7692 55.7945 85.5017 56.0105 85.3233 56.2849C85.145 56.5525 85.0558 56.8543 85.0558 57.1904C85.0558 57.4442 85.1175 57.674 85.241 57.8798C85.3713 58.0856 85.5634 58.2777 85.8172 58.456C86.071 58.6344 86.3831 58.8024 86.7536 58.9602C87.124 59.118 87.5527 59.2723 88.0398 59.4232C88.8561 59.6702 89.5729 59.948 90.1903 60.2567C90.8145 60.5654 91.3358 60.9118 91.7543 61.2959C92.1727 61.6801 92.4883 62.1157 92.7009 62.6027C92.9136 63.0897 93.0199 63.6419 93.0199 64.2593C93.0199 64.911 92.893 65.4941 92.6392 66.0085C92.3854 66.523 92.0184 66.9586 91.5382 67.3153C91.058 67.672 90.4852 67.943 89.8198 68.1282C89.1545 68.3134 88.4102 68.406 87.587 68.406C86.8462 68.406 86.1156 68.31 85.3953 68.1179C84.6751 67.9189 84.02 67.6206 83.43 67.2227C82.847 66.8248 82.3805 66.3172 82.0307 65.6998C81.6808 65.0825 81.5059 64.3519 81.5059 63.5082H84.6031C84.6031 63.9746 84.6751 64.3691 84.8191 64.6915C84.9632 65.0139 85.1655 65.2745 85.4262 65.4735C85.6937 65.6724 86.0093 65.8165 86.3729 65.9056C86.7433 65.9948 87.148 66.0394 87.587 66.0394C88.1221 66.0394 88.5611 65.9639 88.9041 65.813C89.2539 65.6621 89.5112 65.4529 89.6758 65.1854C89.8473 64.9178 89.933 64.616 89.933 64.2799Z" fill="#FFEA94"/>
</svg>
