<svg width="120" height="120" viewBox="0 0 120 120" fill="none" xmlns="http://www.w3.org/2000/svg">
<path d="M114.6 59.9999C114.592 72.0346 110.609 83.7295 103.269 93.2673C95.93 102.805 85.6458 109.652 74.0149 112.743C62.384 115.834 50.0577 114.996 38.9516 110.361C27.8456 105.725 18.5818 97.5506 12.5999 87.1079C9.80247 82.2478 7.78207 76.9802 6.61191 71.4959C5.80481 67.7172 5.39856 63.8638 5.39991 59.9999C5.40458 51.7001 7.3003 43.5105 10.9431 36.0528C14.586 28.5952 19.8802 22.0656 26.4237 16.9599C32.9672 11.8541 40.5881 8.30644 48.7077 6.5862C56.8273 4.86595 65.232 5.01838 73.2839 7.03189C78.72 8.38362 83.9108 10.5782 88.6679 13.5359C96.5927 18.4279 103.135 25.2647 107.674 33.397C112.212 41.5292 114.597 50.6868 114.6 59.9999Z" fill="#FFDE50"/>
<path d="M105 60C105.004 71.5349 100.576 82.6305 92.6326 90.9942C84.6888 99.3578 73.8357 104.35 62.3159 104.94H62.2799C61.5239 104.976 60.7679 105 59.9999 105C48.7345 105 37.8788 100.775 29.5772 93.16C21.2757 85.5447 16.1322 75.0928 15.1629 63.8692C14.1935 52.6456 17.4688 41.4667 24.3418 32.5408C31.2147 23.6149 41.1853 17.5913 52.2839 15.66H52.3199C58.7835 14.5386 65.4142 14.8443 71.7472 16.5557C78.0802 18.2671 83.9624 21.3428 88.9813 25.5672C94.0003 29.7916 98.0348 35.0625 100.802 41.0106C103.569 46.9586 105.002 53.4398 105 60Z" fill="#F68E00"/>
<path d="M99.5999 60.5999C99.6023 71.1979 95.8637 81.4568 89.043 89.5683C82.2222 97.6799 72.7572 103.124 62.3159 104.94H62.2799C61.5239 104.976 60.7679 105 59.9999 105C48.7345 105 37.8788 100.775 29.5772 93.1599C21.2757 85.5445 16.1322 75.0927 15.1629 63.8691C14.1935 52.6455 17.4688 41.4665 24.3418 32.5406C31.2147 23.6147 41.1853 17.5911 52.2839 15.6599H52.3199C53.0759 15.6239 53.8319 15.5999 54.5999 15.5999C60.5099 15.598 66.3624 16.7606 71.8229 19.0214C77.2834 21.2822 82.2449 24.5968 86.4239 28.7758C90.6029 32.9548 93.9175 37.9164 96.1783 43.3769C98.4391 48.8374 99.6018 54.6898 99.5999 60.5999Z" fill="#FAA300"/>
<path opacity="0.14" d="M99.8039 22.5958L93.0239 29.3758L89.9279 32.4718L29.3759 93.0238L22.5959 99.8038C19.165 96.3806 16.2069 92.5144 13.7999 88.3078C11.0024 83.4477 8.98202 78.1801 7.81186 72.6958C7.00476 68.9171 6.59851 65.0638 6.59986 61.1998C6.60453 52.9 8.50025 44.7104 12.1431 37.2528C15.7859 29.7951 21.0801 23.2656 27.6236 18.1598C34.1672 13.0541 41.7881 9.50639 49.9076 7.78615C58.0272 6.0659 66.432 6.21833 74.4839 8.23184C79.9199 9.58357 85.1108 11.7782 89.8679 14.7358C93.4748 16.9597 96.8095 19.5976 99.8039 22.5958Z" fill="white"/>
<path d="M36.1328 51.9042V66.8857H33.0562V51.9042H36.1328ZM40.7425 51.9042V54.3222H28.5186V51.9042H40.7425ZM47.4821 54.4663L43.4075 66.8857H40.1251L45.6918 51.9042H47.7805L47.4821 54.4663ZM50.8674 66.8857L46.7825 54.4663L46.4532 51.9042H48.5625L54.16 66.8857H50.8674ZM50.6822 61.3088V63.7269H42.7695V61.3088H50.6822ZM58.8315 51.9042V66.8857H55.7549V51.9042H58.8315ZM71.3538 64.478V66.8857H63.8116V64.478H71.3538ZM64.8097 51.9042V66.8857H61.7229V51.9042H64.8097ZM80.9231 62.9654C80.9231 62.6979 80.8819 62.4578 80.7996 62.2452C80.7242 62.0257 80.5801 61.8267 80.3675 61.6484C80.1548 61.4632 79.8564 61.2814 79.4723 61.103C79.0881 60.9247 78.5908 60.7395 77.9803 60.5474C77.3012 60.3279 76.6564 60.0809 76.0459 59.8065C75.4422 59.5322 74.9072 59.2132 74.4407 58.8496C73.9811 58.4792 73.6175 58.0505 73.35 57.5634C73.0893 57.0764 72.959 56.5105 72.959 55.8657C72.959 55.2414 73.0962 54.6755 73.3706 54.1679C73.645 53.6534 74.0291 53.2144 74.523 52.8508C75.0169 52.4804 75.6 52.1957 76.2722 51.9968C76.9513 51.7979 77.6956 51.6984 78.5051 51.6984C79.6095 51.6984 80.5733 51.8973 81.3964 52.2952C82.2196 52.6931 82.8575 53.2384 83.3103 53.9312C83.7699 54.6241 83.9997 55.4164 83.9997 56.3081H80.9334C80.9334 55.8691 80.8408 55.4849 80.6556 55.1557C80.4772 54.8196 80.2028 54.5555 79.8324 54.3634C79.4688 54.1713 79.0093 54.0753 78.4536 54.0753C77.9186 54.0753 77.4727 54.1576 77.116 54.3222C76.7593 54.48 76.4917 54.6961 76.3134 54.9705C76.135 55.238 76.0459 55.5398 76.0459 55.8759C76.0459 56.1298 76.1076 56.3596 76.2311 56.5653C76.3614 56.7711 76.5535 56.9632 76.8073 57.1416C77.0611 57.3199 77.3732 57.488 77.7436 57.6457C78.1141 57.8035 78.5428 57.9579 79.0298 58.1088C79.8461 58.3557 80.563 58.6335 81.1803 58.9422C81.8046 59.2509 82.3259 59.5973 82.7443 59.9815C83.1628 60.3656 83.4783 60.8012 83.691 61.2882C83.9036 61.7753 84.01 62.3275 84.01 62.9449C84.01 63.5965 83.8831 64.1796 83.6292 64.6941C83.3754 65.2085 83.0084 65.6441 82.5283 66.0008C82.0481 66.3575 81.4753 66.6285 80.8099 66.8137C80.1445 66.9989 79.4003 67.0915 78.5771 67.0915C77.8362 67.0915 77.1057 66.9955 76.3854 66.8034C75.6652 66.6045 75.0101 66.3061 74.4201 65.9082C73.837 65.5104 73.3706 65.0028 73.0207 64.3854C72.6709 63.768 72.496 63.0375 72.496 62.1937H75.5931C75.5931 62.6602 75.6652 63.0546 75.8092 63.377C75.9533 63.6994 76.1556 63.9601 76.4163 64.159C76.6838 64.3579 76.9994 64.502 77.3629 64.5912C77.7333 64.6804 78.1381 64.7249 78.5771 64.7249C79.1121 64.7249 79.5512 64.6495 79.8941 64.4986C80.244 64.3477 80.5012 64.1384 80.6659 63.8709C80.8374 63.6034 80.9231 63.3016 80.9231 62.9654Z" fill="#B96B00"/>
<path d="M37.333 53.1044V68.0859H34.2564V53.1044H37.333ZM41.9427 53.1044V55.5224H29.7187V53.1044H41.9427ZM48.6823 55.6665L44.6077 68.0859H41.3253L46.892 53.1044H48.9807L48.6823 55.6665ZM52.0676 68.0859L47.9827 55.6665L47.6534 53.1044H49.7627L55.3602 68.0859H52.0676ZM51.8824 62.509V64.9271H43.9697V62.509H51.8824ZM60.0317 53.1044V68.0859H56.9551V53.1044H60.0317ZM72.554 65.6782V68.0859H65.0118V65.6782H72.554ZM66.0099 53.1044V68.0859H62.923V53.1044H66.0099ZM82.1233 64.1656C82.1233 63.8981 82.0821 63.658 81.9998 63.4454C81.9244 63.2259 81.7803 63.0269 81.5677 62.8486C81.355 62.6634 81.0566 62.4816 80.6725 62.3032C80.2883 62.1249 79.791 61.9397 79.1805 61.7476C78.5014 61.5281 77.8566 61.2811 77.2461 61.0067C76.6424 60.7324 76.1074 60.4134 75.6409 60.0498C75.1813 59.6794 74.8177 59.2507 74.5502 58.7636C74.2895 58.2766 74.1592 57.7107 74.1592 57.0659C74.1592 56.4416 74.2964 55.8757 74.5708 55.3681C74.8452 54.8536 75.2293 54.4146 75.7232 54.051C76.2171 53.6806 76.8002 53.3959 77.4724 53.197C78.1515 52.9981 78.8958 52.8986 79.7053 52.8986C80.8097 52.8986 81.7735 53.0975 82.5966 53.4954C83.4198 53.8933 84.0577 54.4386 84.5105 55.1314C84.9701 55.8243 85.1999 56.6165 85.1999 57.5083H82.1336C82.1336 57.0693 82.041 56.6851 81.8558 56.3559C81.6774 56.0198 81.403 55.7557 81.0326 55.5636C80.669 55.3715 80.2094 55.2755 79.6538 55.2755C79.1188 55.2755 78.6729 55.3578 78.3162 55.5224C77.9595 55.6802 77.6919 55.8963 77.5136 56.1707C77.3352 56.4382 77.2461 56.74 77.2461 57.0761C77.2461 57.33 77.3078 57.5598 77.4313 57.7655C77.5616 57.9713 77.7537 58.1634 78.0075 58.3418C78.2613 58.5201 78.5734 58.6882 78.9438 58.8459C79.3143 59.0037 79.743 59.1581 80.23 59.309C81.0463 59.5559 81.7632 59.8337 82.3805 60.1424C83.0048 60.4511 83.5261 60.7975 83.9445 61.1817C84.363 61.5658 84.6785 62.0014 84.8912 62.4884C85.1038 62.9755 85.2102 63.5277 85.2102 64.145C85.2102 64.7967 85.0833 65.3798 84.8294 65.8943C84.5756 66.4087 84.2086 66.8443 83.7285 67.201C83.2483 67.5577 82.6755 67.8287 82.0101 68.0139C81.3447 68.1991 80.6004 68.2917 79.7773 68.2917C79.0364 68.2917 78.3059 68.1957 77.5856 68.0036C76.8653 67.8047 76.2102 67.5063 75.6203 67.1084C75.0372 66.7106 74.5708 66.203 74.2209 65.5856C73.8711 64.9682 73.6962 64.2377 73.6962 63.3939H76.7933C76.7933 63.8604 76.8653 64.2548 77.0094 64.5772C77.1535 64.8996 77.3558 65.1603 77.6165 65.3592C77.884 65.5581 78.1996 65.7022 78.5631 65.7914C78.9335 65.8805 79.3383 65.9251 79.7773 65.9251C80.3123 65.9251 80.7514 65.8497 81.0943 65.6988C81.4442 65.5479 81.7014 65.3386 81.8661 65.0711C82.0376 64.8036 82.1233 64.5018 82.1233 64.1656Z" fill="#FFEA94"/>
</svg>
