<svg width="51" height="51" viewBox="0 0 51 51" fill="none" xmlns="http://www.w3.org/2000/svg">
<path d="M14.8113 8.21579C14.7993 8.23378 14.5834 8.28774 14.3376 8.33571C13.1983 8.57587 12.029 9.39796 11.2974 10.4722C10.2 12.0866 10.17 14.343 11.2135 15.9933C11.4234 16.3292 12.1669 17.1095 12.5386 17.3915L12.7485 17.5475L12.6166 17.7156C12.5446 17.8057 12.2088 18.2857 11.8731 18.7838C10.8897 20.2301 9.88222 21.5262 9.36656 22.0184C9.04277 22.3305 9.13871 22.3665 9.73232 22.1684C9.94218 22.0963 10.278 21.9464 10.4878 21.8323C10.6918 21.7183 10.8597 21.6403 10.8597 21.6583C10.8597 21.6763 10.7818 21.8925 10.6798 22.1385C10.482 22.6486 10.0801 23.9327 9.94218 24.5148C9.47449 26.4652 9.42052 28.4457 9.78028 30.276C9.99614 31.3861 10.5538 32.8324 11.0814 33.6667L11.3094 34.0267L11.3574 33.2466C11.3814 32.8144 11.4354 32.2803 11.4653 32.0583L11.5313 31.6502L11.8731 32.3283C12.4249 33.4327 12.8804 34.0447 13.8819 35.0469C15.1471 36.3131 15.9807 36.9192 18.4812 38.3896C21.965 40.4419 23.4342 41.5341 24.9154 43.1784L25.2692 43.5625L25.545 43.2384C26.4504 42.1643 27.9376 40.934 29.5986 39.8778C30.3661 39.3918 31.9792 38.4075 32.327 38.2096C32.8007 37.9515 32.9987 37.8255 33.9881 37.1713C34.5217 36.8173 35.1393 36.3792 35.3673 36.205C36.8124 35.0468 38.0296 33.5707 38.6713 32.1964C38.9171 31.6802 38.9111 31.6862 38.9591 31.7284C39.0251 31.8003 39.163 32.9044 39.163 33.4085C39.163 33.7026 39.187 33.9366 39.2169 33.9366C39.2889 33.9366 39.7146 33.2165 39.9605 32.6765C40.956 30.4801 41.2198 27.7795 40.6861 25.145C40.4823 24.1129 40.0625 22.7385 39.6726 21.7964C39.6127 21.6583 39.6368 21.6643 40.0744 21.8865C40.4461 22.0725 41.2558 22.3185 41.3157 22.2645C41.3277 22.2464 41.2078 22.0905 41.0399 21.9163C40.3982 21.2503 39.9844 20.7161 38.7852 18.9938C38.3595 18.3878 37.9518 17.8117 37.8858 17.7216L37.7597 17.5535L37.8918 17.4576C38.7972 16.8214 39.5048 15.8612 39.8585 14.793C40.0086 14.325 40.0204 14.2049 40.0264 13.3527C40.0264 12.3146 39.9546 11.9545 39.6127 11.2163C39.067 10.0222 38.0537 9.03188 36.8843 8.55189C35.4631 7.96364 33.7422 8.10171 32.375 8.91196C31.5775 9.38596 30.7259 10.3341 30.3961 11.1262C30.3302 11.2943 30.2402 11.4324 30.1983 11.4324C30.1623 11.4324 29.9704 11.3784 29.7725 11.3183C29.5807 11.2583 29.2329 11.1624 28.999 11.1083C28.771 11.0543 28.4832 10.9823 28.3695 10.9524C27.32 10.6702 24.8615 10.5441 23.5721 10.7062C22.4689 10.8443 20.6099 11.2765 20.4241 11.4384C20.3281 11.5344 20.2921 11.4983 20.1243 11.1504C19.4227 9.6561 18.1034 8.61784 16.4903 8.28175C16.1066 8.1978 14.8772 8.15567 14.8113 8.21579ZM16.2445 12.1885C16.5683 12.3505 17.1739 12.8547 17.1439 12.9326C17.1319 12.9626 16.8021 13.2267 16.4064 13.5267C16.0107 13.8268 15.5008 14.2349 15.2671 14.4329C15.0391 14.6309 14.8173 14.793 14.7813 14.793C14.6316 14.793 14.2776 14.313 14.1817 13.9769C13.8099 12.6986 15.0751 11.6064 16.2445 12.1885ZM35.4753 12.1465C36.0389 12.3985 36.4046 12.9326 36.4046 13.4847C36.4046 13.9409 36.1648 14.4749 35.853 14.721C35.7209 14.8291 35.6491 14.787 34.9894 14.2229C34.6956 13.9649 34.2279 13.5928 33.9461 13.3948C33.6641 13.1908 33.4185 12.9987 33.3943 12.9626C33.3225 12.8607 33.8322 12.3925 34.2159 12.2065C34.6476 11.9965 35.1095 11.9785 35.4753 12.1465ZM26.5463 12.8727C28.753 13.0467 31.0079 13.8448 32.9266 15.1231C33.4904 15.4952 34.096 15.9873 34.048 16.0293C34.036 16.0473 33.8262 15.9693 33.5863 15.8672C32.0752 15.2252 30.5282 14.8771 28.5733 14.727C26.8043 14.595 24.3698 14.8291 22.5828 15.3031C19.8604 16.0233 18.0794 17.0615 17.4077 18.3157C16.6522 19.732 17.1021 21.3583 18.4332 22.0244C18.6611 22.1385 18.9129 22.2344 18.9849 22.2344C19.2129 22.2344 19.2007 22.3065 18.9369 22.4924C18.799 22.5885 18.3852 22.9725 18.0195 23.3386C16.976 24.3889 16.3524 25.421 16.0346 26.6153C15.8847 27.1974 15.8967 28.4157 16.0646 29.0457C16.1965 29.5199 16.5563 30.324 16.8501 30.786C17.4437 31.7223 18.727 33.0244 20.514 34.5129C21.8571 35.6289 22.6547 36.4212 23.1464 37.1174C23.5182 37.6393 23.8719 38.3415 23.8719 38.5455C23.8719 38.6836 23.866 38.6836 23.6801 38.4796C23.2723 38.0414 22.5708 37.6034 21.0536 36.8472C18.3793 35.509 17.006 34.6088 15.7109 33.3365C14.3496 32.0103 13.3602 30.2219 13.0604 28.5716C13.0183 28.3436 12.9525 28.1455 12.9224 28.1336C12.8386 28.1036 12.4967 28.8177 12.2928 29.4598C12.1669 29.8379 12.1069 30.18 12.0829 30.6C12.041 31.3142 12.011 31.4462 11.933 31.2422C11.6992 30.6421 11.6272 28.6677 11.7951 27.6835C12.041 26.2372 12.5626 24.881 13.1983 24.0468C13.3542 23.8428 13.4082 23.7348 13.3481 23.7348C13.2043 23.7348 12.4189 24.4548 12.1249 24.857C11.975 25.0671 11.8431 25.211 11.8311 25.175C11.7711 25.0069 12.1189 23.8308 12.4907 22.9246C13.0723 21.5084 14.0618 19.8099 14.9252 18.7357C15.1291 18.4777 15.297 18.2557 15.297 18.2437C15.297 18.1716 14.4036 18.6697 14.0738 18.9157C13.4142 19.4199 13.4262 19.3779 14.3316 18.1536C14.6554 17.7276 15.8428 16.4794 16.3464 16.0473C17.9955 14.6371 19.9624 13.6528 22.1929 13.1247C23.3263 12.8547 25.0533 12.7526 26.5463 12.8727ZM20.0403 19.1799C20.6519 19.516 20.8138 19.6359 20.8138 19.744C20.8138 19.8401 20.2142 20.2961 19.9444 20.4102C19.6204 20.5421 19.4585 20.5121 19.1947 20.2781C18.9069 20.014 18.805 19.72 18.9189 19.4499C19.0028 19.2458 19.3266 18.8738 19.4227 18.8738C19.4525 18.8738 19.7345 19.0118 20.0403 19.1799ZM31.3257 19.1078C31.5775 19.3899 31.6315 19.534 31.5775 19.8099C31.5295 20.0799 31.1276 20.4941 30.9118 20.4941C30.7079 20.4941 30.1563 20.218 29.8805 19.978C29.6946 19.8159 29.6706 19.768 29.7246 19.672C29.7965 19.5579 30.9238 18.8738 31.0439 18.8738C31.0857 18.8738 31.2057 18.9819 31.3257 19.1078ZM23.854 20.0861C24.0758 20.194 24.4837 20.4402 24.7654 20.6262L25.2752 20.9681L25.521 20.7701C25.8268 20.5181 26.6543 20.0441 26.9842 19.924C27.5119 19.738 27.9616 19.8521 28.3453 20.266C28.5912 20.5241 28.6691 20.6862 28.9391 21.4843C29.059 21.8443 29.5147 23.0625 29.9464 24.1848L30.7321 26.2252L30.7259 26.9454C30.7259 27.5934 30.7079 27.7075 30.552 28.1096C30.3302 28.6737 29.9644 29.0697 29.4667 29.2618C29.0229 29.4358 28.1115 29.4478 27.5598 29.2857C27.0262 29.1298 26.3005 28.7398 26.0607 28.4697C25.8808 28.2716 25.8508 28.1935 25.8508 27.9475C25.8508 27.6716 25.8628 27.6536 26.4745 27.0173C26.8162 26.6633 27.1341 26.3753 27.1821 26.3753C27.344 26.3753 27.8297 26.1353 28.0395 25.9493C28.4832 25.559 28.5672 24.731 28.2074 24.2929C27.7817 23.7587 27.368 23.6747 25.2212 23.6807C23.1884 23.6807 22.7807 23.7527 22.3549 24.1968C22.0611 24.5088 21.983 25.121 22.1869 25.5652C22.325 25.8712 22.6308 26.1711 22.8526 26.2192C23.2723 26.3032 23.5841 26.5194 24.1119 27.1015C24.6574 27.7015 24.7535 27.8756 24.6876 28.1456C24.5976 28.5056 23.782 29.0577 23.0025 29.2917C22.4869 29.4418 21.5393 29.4418 21.1436 29.2917C20.496 29.0457 20.0821 28.6137 19.8723 27.9655C19.7405 27.5455 19.7044 26.5432 19.8123 26.1651C19.8604 25.9972 20.0643 25.4331 20.2682 24.9048C20.472 24.3769 20.6879 23.8068 20.7538 23.6447C20.8138 23.4767 20.9217 23.1946 20.9877 23.0147C21.0596 22.8346 21.2515 22.3065 21.4196 21.8443C21.5815 21.3823 21.7853 20.8662 21.8691 20.6981C22.037 20.3501 22.3789 19.996 22.6428 19.9C22.9366 19.7919 23.4162 19.8641 23.854 20.0861ZM26.3005 29.6518C26.4686 29.694 26.7803 29.7839 27.0022 29.8498C27.2241 29.9158 27.6138 29.9999 27.8596 30.0419C28.1474 30.084 28.3033 30.138 28.2854 30.18C28.2675 30.2159 28.2014 30.4259 28.1355 30.6421C27.9376 31.2722 27.5418 31.7224 27.0562 31.8902C26.9241 31.9324 26.2885 31.9562 25.2272 31.9562C23.752 31.9562 23.5781 31.9442 23.3443 31.8363C22.7807 31.5781 22.5768 31.3261 22.307 30.516C22.1631 30.09 22.1631 30.096 22.3609 30.096C22.5108 30.096 23.1944 29.934 23.9919 29.7059C24.7355 29.4959 25.6289 29.4718 26.3005 29.6518Z" fill="#003B9B"/>
</svg>
