<svg width="51" height="51" viewBox="0 0 51 51" fill="none" xmlns="http://www.w3.org/2000/svg">
<path d="M12.1657 5.19381L12.1717 5.19318C12.2231 5.18545 12.4983 5.235 12.7757 5.29496L12.8845 5.31894C13.0441 5.35507 13.1947 5.39247 13.2928 5.42198L13.325 5.43208C13.4445 5.46995 13.9196 5.64998 14.4856 5.86568L15.1555 6.12115C17.5399 7.02624 18.2328 7.08604 21.2074 6.64659L21.3002 6.63286C23.3853 6.3206 25.5874 6.2346 27.0234 6.40896L27.2458 6.43641C27.5557 6.47602 27.7466 6.50758 27.6928 6.51357L27.5506 6.52288C25.2532 6.67941 24.0664 6.9628 22.8051 7.64414C21.7939 8.19042 21.0555 8.83909 20.16 9.97882L20.1187 10.0318C19.7404 10.5192 19.1068 11.1813 18.7172 11.4994L18.691 11.5206C17.9639 12.1084 16.5755 12.8186 15.7207 13.0482L15.5863 13.0829C15.3023 13.1589 15.4036 13.1929 16.7219 13.6976C16.8404 13.7432 16.9588 13.788 17.0768 13.8325L17.3027 13.9171C19.0668 14.5732 20.7101 15.09 21.49 15.2356C22.1439 15.3549 22.573 15.095 22.573 14.5825C22.573 14.2172 22.3479 13.6624 21.9752 13.0938L21.8487 12.9041L22.0456 12.9813C22.376 13.1076 23.0372 13.6624 23.4099 14.126C23.8108 14.6316 24.2328 15.4182 24.296 15.7974L24.3453 16.0501L23.7193 16.0923C22.1943 16.1961 20.8469 16.6002 19.2123 17.4526L19.1412 17.4898C18.0581 18.0587 17.4321 18.494 16.6656 19.2104L16.5911 19.2807C15.4119 20.4048 14.7615 21.5075 13.5757 24.3532L13.4437 24.672C12.5222 26.9076 12.321 27.7853 12.3967 29.1824C12.4459 30.0812 12.5865 30.6641 12.9242 31.3805C13.4236 32.4339 14.2183 33.3186 15.2942 34.014C15.4452 34.111 15.6177 34.2131 15.7914 34.3103L15.8626 34.3498L15.9099 34.3758C16.3751 34.6292 16.8191 34.832 16.8625 34.7935C16.8765 34.7725 16.8133 34.5547 16.7148 34.3158C16.096 32.8132 15.9835 31.2541 16.3913 29.976C16.5671 29.4352 16.6656 29.2386 17.0594 28.6417C17.9947 27.2512 19.6333 26.1557 21.7995 25.4885L21.89 25.4594L22.2244 25.3532C22.605 25.2336 22.9528 25.1274 23.0864 25.0813C24.0147 24.7862 24.3524 23.8452 23.5997 23.6487C22.0403 23.2454 21.5628 22.9041 21.028 21.8207L21.0118 21.7876C20.6812 21.1064 20.3787 20.8045 19.8443 20.6149C19.4154 20.4604 18.9935 20.5025 18.4379 20.7553C18.2268 20.8536 18.037 20.9099 18.016 20.8888C17.9525 20.8186 18.4027 20.3831 18.9864 19.9406C19.767 19.3508 20.7868 18.8591 22.0104 18.473C23.6278 17.9673 26.1034 17.8971 27.8476 18.3184C29.1645 18.637 30.5296 19.2146 31.2956 19.7893L31.3288 19.8142C31.4607 19.9136 31.618 20.0476 31.7722 20.1879L31.843 20.253L31.9116 20.3174C32.2346 20.6226 32.5029 20.9169 32.4328 20.9169C32.392 20.9169 32.2059 20.8377 32.0024 20.737L31.9826 20.7272C31.3075 20.3831 30.3441 20.5235 29.873 21.0292C29.7744 21.1416 29.5423 21.5207 29.3595 21.8789C28.8866 22.8233 28.3726 23.2252 27.2666 23.5125L27.1721 23.5365C26.5734 23.6907 26.4409 23.807 26.4409 24.1612C26.4409 24.3799 26.4876 24.4788 26.7233 24.7105L26.7804 24.7667C27.0288 25.0089 27.1579 25.0628 27.8757 25.2638C30.2174 25.9029 31.4974 26.591 32.6788 27.8201C33.1571 28.3256 33.3821 28.6276 33.6284 29.1051L33.6669 29.181C34.1321 30.1022 34.2118 30.4998 34.205 31.6965L34.2048 31.8289C34.2015 32.7966 34.1548 33.0393 33.7922 34.1606L33.7759 34.2106C33.728 34.358 33.6882 34.4956 33.6619 34.5991L33.6546 34.6278C33.632 34.7203 33.6218 34.7799 33.6284 34.7865C33.6574 34.8156 34.1546 34.5716 34.6417 34.3049L34.7576 34.241C35.0518 34.0771 35.3281 33.9124 35.478 33.8033C36.6507 32.9716 37.4539 31.8664 37.8599 30.5416L37.876 30.4886C38.0328 29.9644 38.0574 29.7569 38.0589 28.9008V28.8173L38.0595 28.7289C38.0631 27.9791 38.0292 27.6449 37.9238 27.198L37.9112 27.1458C37.766 26.5448 37.4163 25.6037 37.2309 25.3194L37.2153 25.296C37.0911 25.1084 37.1061 24.985 37.3362 24.4763L37.3486 24.4492C37.876 23.2975 38.4246 21.6612 38.7271 20.3271C38.7552 20.1724 38.8183 20.0389 38.8677 20.0249C39.0716 19.9547 40.3164 22.2019 40.8508 23.6135C42.6933 28.438 41.4837 33.3328 37.651 36.5842C36.9499 37.1813 36.0005 37.8118 35.229 38.2008L35.1755 38.2275C34.866 38.3819 34.6059 38.5506 34.6059 38.6068C34.5988 38.684 35.5763 40.6223 35.9209 41.2261C35.9844 41.3315 36.0123 41.4439 35.9844 41.465C35.9217 41.5272 35.0891 41.2512 34.2957 40.9269L34.2313 40.9006C33.9749 40.7947 33.7248 40.6846 33.5088 40.5801L33.4432 40.5479C32.9897 40.3237 32.4347 40.0018 32.1867 39.8076L31.7084 39.4496L31.0967 39.7374L31.0294 39.7699C30.2165 40.1678 29.938 40.4724 29.7463 41.163L29.7313 41.2165C29.6862 41.3735 29.6388 41.4929 29.6197 41.4929C29.6049 41.4929 29.4861 41.3856 29.3289 41.2294L29.3 41.2004C29.2414 41.1415 29.1781 41.0765 29.1134 41.0084L29.0536 40.9483C28.7203 40.6166 28.4828 40.4482 28.0443 40.236L27.9175 40.1735C27.6486 40.043 27.4288 39.948 27.4045 39.948C27.384 39.948 27.3307 40.1129 27.2889 40.3146L27.2849 40.3343C27.1653 40.9031 26.659 42.42 25.9838 44.1967L25.7455 44.8413L25.6292 45.1531L25.5478 45.3695L25.5298 45.4204C25.3887 45.8122 25.2571 46.0577 25.2032 46.0577C25.1503 46.0577 25.1098 46.0203 25.1052 45.975L25.1049 45.9665C25.1049 45.9196 25.0157 45.6569 24.904 45.3653L24.8231 45.1548C24.6497 44.7016 24.4513 44.1587 24.2537 43.602L24.1532 43.3176C23.704 42.0397 23.2822 40.7578 23.1969 40.3783L23.1918 40.3554C23.1427 40.1306 23.0793 39.948 23.0441 39.948C23.0091 39.948 22.6997 40.0954 22.355 40.271C21.89 40.5101 21.6445 40.6892 21.3403 41.0152L21.2095 41.157C21.0309 41.349 20.8889 41.4929 20.8712 41.4929C20.85 41.4929 20.7516 41.2754 20.646 41.0155C20.4 40.3764 20.0343 40.0253 19.2887 39.7093L18.705 39.4634L18.1635 39.8568C17.58 40.268 16.7084 40.7329 15.9671 41.0226L15.9131 41.0436C15.2169 41.3104 14.5558 41.5071 14.4573 41.4789C14.4011 41.465 14.5136 41.1911 14.7879 40.6854L14.9725 40.337C15.1754 39.9529 15.3348 39.647 15.4569 39.4057L15.5181 39.2836L15.5776 39.1632C15.7515 38.807 15.8086 38.6507 15.7865 38.6137C15.7583 38.5716 15.6177 38.4802 15.4631 38.4031L15.4145 38.3774C14.8814 38.0897 13.5991 37.2541 13.1492 36.8932C11.7428 35.7555 10.4628 34.1896 9.78764 32.7709C8.98164 31.0781 8.63561 29.1247 8.7833 27.148L8.80414 26.8858C8.863 26.1558 8.89518 25.951 9.04998 25.2902L9.12508 24.9718C9.25226 24.4454 9.54763 23.5717 9.92823 22.5672L9.96122 22.4823C10.1564 21.9747 10.2252 21.7383 10.3745 21.185L10.3996 21.0925C10.4417 20.9379 10.505 20.2567 10.5401 19.5824L10.6105 18.3536L10.3432 18.0727L10.2965 18.0227C9.75341 17.4352 7.97337 15.3308 7.7482 15.0038L7.52319 14.6808L7.73416 14.1822L7.75608 14.1275C7.90125 13.7584 8.1695 12.9803 8.42875 12.1828L8.48318 12.0149L8.51032 11.9308C8.58496 11.6984 8.65755 11.4677 8.72524 11.2487L8.85478 10.8273C8.93478 10.568 9.01811 10.3002 9.10237 10.0312L9.24752 9.56998L9.44728 8.94087C9.80736 7.8133 10.1267 6.84667 10.2167 6.63286C10.5281 5.87941 11.0033 5.45259 11.7023 5.29196L11.9639 5.23405C11.994 5.22758 12.022 5.22158 12.0467 5.21638L12.1289 5.19997C12.1398 5.19791 12.1488 5.19634 12.1558 5.19523L12.1657 5.19381ZM26.8926 27.6713L26.8559 27.6654C25.5478 27.4549 22.8755 27.6725 22.1439 28.0519C21.7059 28.2739 21.598 29.1487 21.8948 30.0577L21.9614 30.2562C22.0142 30.4165 22.0554 30.5491 22.0723 30.6092L22.0791 30.6341C22.0802 30.6388 22.0808 30.642 22.0808 30.6431C22.0808 30.6635 21.9558 30.6182 21.8014 30.539L21.7853 30.5307C21.3002 30.2849 20.6391 29.5758 20.4912 29.1403L20.4761 29.1012C20.404 28.9194 20.3184 28.7577 20.2713 28.7349L20.2662 28.7329C19.992 28.6207 19.1904 29.2597 18.7331 29.9409C18.48 30.3201 18.2127 31.2119 18.2127 31.6755C18.2127 32.0828 18.4166 32.9044 18.6348 33.3961C19.2185 34.6811 20.4139 35.7767 21.8416 36.3244L21.9489 36.3635C22.2552 36.4738 22.575 36.5808 22.7028 36.61L22.7137 36.6123C23.1708 36.7106 23.663 36.9774 24.071 37.3497C24.2126 37.4789 24.3806 37.6597 24.5393 37.8473L24.5774 37.8925L24.611 37.9332C24.8794 38.259 25.1049 38.5842 25.1049 38.677C25.1049 38.8739 25.3087 38.7228 25.532 38.3695L25.5549 38.3329C25.8572 37.8414 26.4199 37.2514 26.8347 36.9705C26.9813 36.8772 27.3742 36.7212 27.7259 36.6213L27.7842 36.6052C30.2526 35.9381 31.9617 34.1263 32.1726 31.9423C32.264 31.0153 31.9546 30.0462 31.3497 29.4002C31.0192 29.042 30.5832 28.7469 30.3019 28.6769L30.2793 28.6713C30.1304 28.6371 30.1013 28.6672 30.0276 28.9016C29.8447 29.4704 29.2189 30.2078 28.6772 30.5027L28.6479 30.5173C28.3932 30.6409 28.2675 30.609 28.403 30.4465C28.5086 30.3201 28.7617 29.3019 28.7617 28.9999C28.7617 28.6207 28.6141 28.2204 28.4172 28.0869C28.2234 27.9558 27.6019 27.7838 26.8926 27.6713ZM27.109 26.1207C26.3495 26.0152 24.6899 25.9731 23.9655 26.0433C22.3621 26.1978 20.857 26.7105 19.9218 27.4197L19.8954 27.4401C19.5696 27.6956 19.6617 27.7287 20.1174 27.5272L20.1537 27.5111C20.7094 27.2582 22.0104 26.879 22.9247 26.6964C23.76 26.5366 26.5313 26.5143 27.3993 26.6636L27.4889 26.6795C28.536 26.8713 30.2283 27.3667 30.4144 27.525C30.4473 27.558 30.5299 27.5848 30.6094 27.5879L30.6255 27.5883C30.749 27.5883 30.7453 27.5682 30.5681 27.4234L30.555 27.4128C29.9776 26.9334 28.2784 26.2892 27.1459 26.1257L27.109 26.1207ZM27.429 19.1981L27.3903 19.1892C26.6026 19.0067 24.1341 18.9926 23.2762 19.1542L23.2062 19.1682C22.5332 19.3068 21.9633 19.4811 21.8205 19.5966C21.6688 19.7207 21.7132 20.1962 21.9009 20.5257L21.912 20.5446C22.0737 20.8325 22.6222 21.3101 22.6997 21.2399C22.7137 21.2189 22.6926 21.1064 22.6503 20.98C22.6082 20.8536 22.573 20.5727 22.573 20.348L22.5733 20.2799C22.5764 19.9862 22.6037 19.914 22.7347 19.8354C23.0441 19.643 23.8108 19.5515 25.1858 19.5476H25.3695C26.7792 19.5517 27.6328 19.6566 27.7913 19.8423C27.8741 19.9458 27.8823 20.6251 27.8092 20.982L27.8053 21.0011C27.742 21.296 27.8967 21.2468 28.2695 20.8536C28.5073 20.6161 28.6138 20.4375 28.6779 20.1849L28.6926 20.1249C28.818 19.5908 28.6686 19.4805 27.429 19.1981ZM37.7144 5.25645L37.7834 5.24399C38.1455 5.17945 38.2299 5.18403 38.6146 5.26356C39.2966 5.41093 39.8241 5.81125 40.1335 6.40817L40.145 6.43231C40.2728 6.70876 40.6629 7.8327 41.0443 8.99546L41.159 9.34734C41.4028 10.0992 41.6316 10.8334 41.7721 11.3309C41.8624 11.6525 42.0276 12.1816 42.1966 12.7026L42.3261 13.0979C42.4801 13.5643 42.6217 13.9761 42.6933 14.1611L42.7265 14.2444C42.8233 14.4904 42.8973 14.6977 42.8973 14.723C42.8973 14.8142 41.7933 16.1065 39.7398 18.4097L39.6762 18.4793C39.5189 18.6513 39.3723 18.8058 39.2525 18.926L39.2241 18.9546C39.0703 19.1076 38.9668 19.197 38.9521 19.1823C38.924 19.1471 38.924 18.9857 38.959 18.81C39.119 18.0044 38.9971 15.9622 38.7154 14.7151L38.7058 14.6737C38.6004 14.2174 38.2981 13.3254 38.08 12.8056C37.2642 10.8744 35.9561 9.32257 34.1769 8.15681L34.0497 8.07381C33.9621 8.01653 33.8761 7.95988 33.7938 7.90529L33.5937 7.77211C33.3597 7.61527 33.1815 7.49188 33.129 7.44754L32.9602 7.31405L33.8675 6.85756C34.0298 6.77488 34.1955 6.69267 34.3625 6.6114L34.4535 6.56722L34.5908 6.50142L34.6823 6.45787L34.8196 6.39318L34.9969 6.31081C36.1403 5.78316 37.2388 5.35144 37.7144 5.25645ZM35.8506 12.7706C35.8818 12.7654 35.8208 13.1133 35.7357 13.4797L35.7198 13.5471C35.6942 13.6541 35.6669 13.7607 35.6398 13.8592C35.485 14.4138 35.2248 14.9055 34.8169 15.4532C34.2823 16.1555 34.0996 16.9841 34.3457 17.5812L34.3699 17.6403C34.4981 17.9613 34.4723 18.0321 34.2331 18.1781C34.0627 18.2802 33.8854 18.3163 33.5416 18.3184H33.446C33.0291 18.3158 32.927 18.2799 32.2428 17.9181L32.0021 17.794C31.8069 17.6938 31.6256 17.6018 31.4561 17.517L31.2601 17.4193C30.1777 16.8841 29.5809 16.6548 28.7781 16.4432L28.6372 16.4064C28.0284 16.2513 26.9506 16.0773 26.5523 16.0714L26.4753 16.0708C26.0923 16.0642 26.0535 15.9829 26.1878 15.6007C26.5114 14.7439 27.3551 13.6415 28.0443 13.199L28.1002 13.1637C28.4735 12.9308 28.6134 12.9215 28.4523 13.1359L28.4328 13.1681C28.3669 13.2789 28.2364 13.5102 28.1288 13.7186C27.8897 14.1962 27.8476 14.7439 28.0234 14.9967C28.1851 15.2214 28.593 15.3128 29.043 15.2285C30.0178 15.0477 32.8052 14.0618 35.0241 13.122L35.8506 12.7706ZM16.6446 15.4392C16.5319 15.4392 16.6093 15.7342 16.8625 16.2187L16.8901 16.274C17.0831 16.6578 17.1899 16.7728 17.4252 16.9069L17.4714 16.9314C17.7001 17.051 17.7722 17.057 17.9811 16.9972L18.0018 16.9912C18.1444 16.9505 18.4246 16.7919 18.64 16.6357L18.7005 16.5914C18.9843 16.381 19.0397 16.3069 18.9723 16.2329C18.9127 16.16 18.8033 16.1434 18.5502 16.1708L18.501 16.1765C18.016 16.2329 17.6573 16.1134 17.1016 15.72L17.0459 15.6822C16.8437 15.5454 16.6702 15.4392 16.6446 15.4392ZM33.7759 15.5024C33.7478 15.4744 33.4525 15.6148 33.1221 15.8114L33.0061 15.8813C32.5889 16.13 32.4696 16.1669 32.0828 16.1914L31.927 16.2007C31.5943 16.222 31.4351 16.2564 31.4551 16.31C31.4687 16.3501 31.6724 16.5041 31.9219 16.6579L32.0117 16.713C32.8139 17.1968 33.2205 17.0235 33.6298 16.0456L33.6425 16.0151C33.7479 15.7622 33.8042 15.5375 33.7759 15.5024ZM8.68358 7.19476L8.77873 7.14821C9.25605 6.91736 9.38307 6.89574 9.32359 7.05417L9.30937 7.09314C9.17556 7.47215 8.4854 9.64272 7.73653 12.0459L7.6005 12.4822C6.93368 14.6193 6.72351 15.1007 6.33456 15.5094C6.08856 15.7693 5.70876 15.9308 5.33606 15.9308C5.10963 15.9308 4.99697 15.8171 4.9916 15.5638L4.99112 15.5288C4.98607 15.3936 4.92454 14.9502 4.84375 14.5263L4.5452 12.8026L4.49754 12.5323C4.48239 12.4471 4.46694 12.3605 4.45116 12.274L4.39877 11.9891C4.33597 11.6516 4.27633 11.3484 4.23894 11.1905L4.22362 11.1222C4.08429 10.4692 4.08935 9.70568 4.23894 9.41393C4.36706 9.1714 4.66338 8.96754 5.20255 8.73448L5.76524 8.49369C5.8039 8.47712 5.84034 8.46118 5.87317 8.44683L6.07657 8.35641C6.20012 8.30213 6.37889 8.22466 6.58228 8.13693L7.20666 7.86884C7.27167 7.84107 7.33842 7.81219 7.40627 7.78284L7.5426 7.7232L7.67971 7.66276C8.09091 7.48067 8.49108 7.29574 8.68358 7.19476ZM41.1392 7.01203L41.1396 6.99799C41.1433 6.92383 41.1861 6.92888 41.4946 7.06837L43.5178 7.98276C43.5893 8.01479 43.6499 8.04178 43.695 8.0615L43.8682 8.13614C43.9594 8.17479 44.0309 8.20288 44.0543 8.20572L44.0623 8.20619C44.1127 8.21203 44.3258 8.3075 45.2333 8.72501L45.2954 8.75373C45.9739 9.06489 46.2163 9.30789 46.3377 9.81771L46.3433 9.84217C46.4035 10.109 46.3875 10.2998 46.2651 10.9323L46.2351 11.0857L46.1554 11.4862L45.9923 12.3174C45.7534 13.5428 45.5427 14.6655 45.4643 15.1514L45.449 15.2476C45.3958 15.5716 45.3346 15.8426 45.3026 15.8747C45.2197 15.9573 44.533 15.8166 44.3153 15.6653L44.3039 15.6569C43.8256 15.3128 43.5022 14.5964 42.792 12.3141L41.9784 9.68738C41.97 9.65992 41.9623 9.63468 41.9549 9.61038L41.8313 9.21653C41.7852 9.06789 41.7321 8.89606 41.6786 8.72138L41.5785 8.39365L41.5075 8.16296C41.3933 7.79704 41.2824 7.45921 41.2377 7.34213C41.1814 7.2017 41.1392 7.04722 41.1392 7.01203Z" fill="#A2732E"/>
</svg>
