<svg width="51" height="51" viewBox="0 0 51 51" fill="none" xmlns="http://www.w3.org/2000/svg">
<path d="M18.3507 3.588C18.731 3.44268 19.2043 3.49917 19.3337 3.70919L19.3407 3.72134C19.3924 3.8176 19.3315 3.83416 19.2193 3.75069L19.2124 3.74549C19.1396 3.689 19.0465 3.66075 18.9252 3.66075C18.7229 3.66075 18.6218 3.70508 18.4559 3.85846C18.1647 4.12891 18.1404 4.61743 18.387 5.36031C18.6663 6.19171 19.0475 6.88993 19.709 7.7794L19.7383 7.81885C19.9564 8.1095 20.3512 8.55636 20.7553 8.98255L20.8048 9.03463C21.1953 9.44425 21.5882 9.82784 21.8327 10.0267L21.8582 10.0472C22.206 10.3258 22.728 10.6326 22.9747 10.7053C23.2376 10.7818 23.5048 10.7497 23.6342 10.6204C23.7637 10.4912 23.7637 10.2046 23.6383 10.027L23.6285 10.0131C23.5658 9.92204 23.5494 9.85577 23.5485 9.63771V9.60835C23.5486 9.58926 23.5488 9.56923 23.5489 9.54808L23.5493 9.52646C23.5531 9.17916 23.5841 8.99392 23.7064 8.61269L23.7151 8.58587C23.9133 7.97222 24.4433 7.29404 24.7224 7.29404C24.775 7.29404 24.8195 7.30603 24.8195 7.32228C24.8195 7.34106 24.7488 7.49049 24.6603 7.66816L24.6415 7.70571C24.2816 8.4284 24.3018 8.98145 24.7346 10.1198L24.863 10.4517C25.053 10.94 25.1644 11.2101 25.2845 11.4665L25.3154 11.5317L25.3405 11.5839L25.3534 11.6101L25.3828 11.6699C25.4079 11.7202 25.4341 11.772 25.462 11.8267L25.4791 11.8599C25.9564 12.7964 26.5227 13.4585 27.611 14.3747L27.6335 14.3929C27.6465 14.4035 27.6618 14.4164 27.679 14.4308L27.9548 14.6654C28.0537 14.7492 28.2746 14.9216 28.5042 15.0971L28.5907 15.1631L28.706 15.2506C28.7187 15.2601 28.7313 15.2697 28.7436 15.279C28.7747 15.3021 28.8059 15.3253 28.837 15.3486L28.944 15.4294C29.1739 15.6039 29.3815 15.7685 29.4476 15.8282C29.5325 15.9088 29.6135 15.9654 29.6217 15.9572C29.6332 15.9497 29.5717 15.84 29.4857 15.7114L29.4719 15.6909C29.1788 15.2599 28.905 14.6704 28.7532 14.1306L28.7232 14.0214C28.3974 12.8237 28.3524 12.1041 28.5553 11.2953L28.5616 11.2704C28.683 10.802 28.7436 10.8101 28.7436 11.2986C28.7477 12.5895 29.3743 14.2761 30.321 15.5553L30.4103 15.6748C30.6863 16.0428 30.882 16.282 31.0989 16.5215L31.1504 16.5781C31.2026 16.6362 31.2706 16.7138 31.34 16.7946L31.382 16.8435C31.4162 16.8838 31.4502 16.924 31.4819 16.9622L32.0272 17.6183L32.1455 17.7612C32.165 17.7846 32.184 17.8078 32.2027 17.8304L32.2743 17.9154C32.4856 18.1671 32.6745 18.4046 32.7237 18.4735L32.7286 18.4805C32.7731 18.545 32.8338 18.6056 32.8621 18.6176C32.9389 18.646 32.7164 18.2624 32.3644 17.7497C31.8506 17.0064 31.5917 16.4158 31.4565 15.6849L31.4502 15.6505C31.4147 15.4558 31.3965 15.1173 31.3956 14.7878V14.7359L31.396 14.6706C31.3989 14.3743 31.4161 14.1005 31.4478 13.9646L31.4502 13.9549C31.5433 13.5673 31.697 13.1355 31.8467 12.8327L31.8701 12.7867C32.0043 12.5265 32.0714 12.4675 32.0408 12.651L32.0174 12.7888C31.9202 13.3682 31.8992 13.6031 31.8992 13.967C31.8992 14.7643 32.0671 15.5848 32.38 16.2987L32.3967 16.3367C32.7022 17.0255 33.0115 17.5899 33.4925 18.3194L33.6435 18.5467C34.2016 19.3843 34.3267 19.5424 35.1109 20.3766L35.4199 20.7044C35.67 20.971 35.8906 21.2178 35.9366 21.2779L36.0256 21.4072L35.9488 21.7261L35.9366 21.7754C35.9242 21.8263 35.9112 21.8813 35.8984 21.9367L35.8884 21.9812L35.8746 22.0434C35.8535 22.1392 35.8349 22.2286 35.8233 22.2914L35.7785 22.5043C35.7599 22.5919 35.7405 22.6818 35.7238 22.7528L35.7183 22.7757C35.6738 22.9655 35.6738 23.0261 35.7141 23.0624C35.7343 23.0807 35.8519 23.1356 35.9792 23.19L36.0334 23.2128C36.1698 23.2699 36.3037 23.3207 36.3291 23.3207C36.3655 23.3207 36.3494 23.1795 36.2846 22.9978C36.2214 22.8167 36.2276 22.5628 36.303 22.2545L36.3538 22.0517C36.5162 21.3994 36.5642 21.1321 36.5233 21.0802L36.5203 21.0771C36.4892 21.0458 36.307 20.9078 36.0957 20.759L36.0701 20.7411C34.7027 19.7721 33.8532 18.7509 33.4527 17.5964C33.3126 17.1847 33.2199 16.1439 33.3083 15.9822L33.3123 15.9757L33.319 15.9659C33.3495 15.9257 33.3654 15.9714 33.485 16.4377C33.6226 16.9706 34.0313 17.8386 34.4075 18.3997C34.9053 19.143 35.3837 19.6437 36.0933 20.1713L36.1762 20.2324C36.4253 20.415 36.5399 20.4929 36.8613 20.6979L36.9481 20.7533C37.0451 20.8137 37.1302 20.8865 37.1423 20.9106L37.1433 20.9147C37.156 20.9814 37.1032 21.3825 36.9845 22.0692L36.9735 22.1308C36.8935 22.584 36.8711 22.8361 36.8671 23.1956L36.8673 23.2686C36.8698 23.5932 36.9033 23.617 37.3607 23.9263C37.7523 24.1893 38.0138 24.3301 38.2984 24.4338L38.3357 24.447C38.6735 24.5672 38.6498 24.6427 38.2071 24.7627L38.1496 24.778C37.7935 24.871 36.9965 25.3272 36.9965 25.4401C36.9965 25.5107 37.0614 25.5507 37.0947 25.5053L37.0977 25.5007C37.109 25.4819 37.145 25.463 37.1729 25.4607L37.1786 25.4603C37.21 25.4603 37.3244 25.4188 37.438 25.3687L37.5141 25.3346L37.5797 25.3057C38.1116 25.0747 38.6533 24.8999 38.8692 24.8953L38.8778 24.8951C39.0072 24.8951 39.1691 24.8225 39.3471 24.6853L39.376 24.6625C39.4871 24.5761 39.5068 24.5764 39.6302 24.6288C39.707 24.661 39.8811 24.7659 40.0105 24.8628C40.2552 25.04 40.5651 25.2323 40.7453 25.3205L40.759 25.3272C40.8113 25.3532 41.046 25.3792 41.3014 25.3926L41.3498 25.395L41.4195 25.3982C41.6829 25.4109 41.9546 25.4329 42.0455 25.4442L42.2153 25.4684V25.2019C42.2153 24.9922 42.1992 24.9275 42.1506 24.9073C42.1159 24.8958 41.9414 24.9208 41.7534 24.9653L41.7258 24.972C41.3132 25.0687 41.0664 25.0849 41.0907 25.0042C41.1433 24.8508 41.827 24.4915 42.0698 24.4915C42.2072 24.4915 42.4905 24.6892 42.6118 24.8669C42.7453 25.0607 42.806 25.214 42.8423 25.4321L42.8458 25.452C42.864 25.5561 42.8801 25.5744 42.916 25.544L42.9193 25.541C42.9962 25.4805 43.065 25.1858 43.065 24.9275C43.065 24.7861 43.0325 24.6409 42.9678 24.5076C42.8464 24.2493 42.446 23.8335 42.2235 23.7366C42.1304 23.6962 42.0536 23.6517 42.0536 23.6356C42.0536 23.5911 42.09 23.5952 42.2558 23.6558C42.9435 23.9061 43.3886 24.4915 43.3886 25.1373C43.3886 25.3775 43.3078 25.6675 43.1464 26.0074L43.0995 26.1055C43.0782 26.1504 43.0598 26.1901 43.0429 26.2277L43.0296 26.258L43.0225 26.2741L43.009 26.3061L42.9993 26.3293C42.9351 26.4877 42.8816 26.6617 42.7412 27.1154L42.7193 27.1883C42.7005 27.2503 42.6804 27.315 42.6598 27.38L42.6194 27.5064C42.5575 27.6986 42.4965 27.8799 42.4581 27.9875L42.4387 28.0404C42.303 28.4151 42.3109 28.5237 42.4554 28.6673L42.4838 28.695C42.5765 28.7869 42.5828 28.8202 42.5714 29.0007C42.5552 29.2026 42.3854 29.5377 42.3003 29.5377C42.2812 29.5377 42.1135 29.3893 41.9205 29.2058L41.8419 29.1309C41.6488 28.9481 41.4721 28.7981 41.4345 28.7869C41.355 28.763 41.24 28.7978 40.8775 28.9644L40.8602 28.9724C40.6634 29.0629 39.9884 29.3021 39.5234 29.4414L39.4847 29.4529C39.1732 29.5457 38.5339 29.6588 38.3155 29.6588C38.1455 29.6588 37.6439 29.57 37.4214 29.5053C36.7123 29.2868 35.7328 28.7746 35.0192 28.2463L34.9859 28.2215C34.1284 27.5798 32.5545 26.7198 31.7779 26.4737L31.6119 26.4216C31.4412 26.3675 31.2951 26.3193 31.252 26.304L31.2214 26.2957C31.1527 26.2775 31.0317 26.2486 30.9284 26.2315L30.8577 26.2176C30.7395 26.1947 30.588 26.1666 30.4914 26.1467L30.4768 26.1444C30.365 26.1276 30.0973 26.1115 29.8314 26.1073L29.7945 26.1068C29.7635 26.1065 29.7328 26.1063 29.7025 26.1063L29.6397 26.1065C28.6552 26.113 28.1228 26.2758 27.3168 26.8118L27.2914 26.8289C27.1327 26.9351 26.8959 27.1223 26.6634 27.3199L26.6213 27.3559C26.3537 27.5853 26.0988 27.8228 25.984 27.9585L25.9587 27.9886C25.777 28.2084 25.9554 28.123 26.3204 27.8057L26.3519 27.7789C26.5555 27.6071 26.8253 27.41 26.9637 27.3295C27.4896 27.0146 28.327 26.74 28.9137 26.6835C29.2291 26.6553 30.2486 26.7359 30.544 26.8128L30.5747 26.821C30.7964 26.8814 31.1494 26.9955 31.5106 27.1203L31.5938 27.149L31.6938 27.184C32.1765 27.354 32.6371 27.5298 32.7811 27.608L32.9981 27.726C33.0943 27.7783 33.1958 27.8329 33.2747 27.8744L33.4825 27.9873C33.6764 28.0934 33.8907 28.212 34.0878 28.3266L34.1102 28.3388C34.1777 28.3763 34.3194 28.4593 34.4673 28.5421L34.4951 28.5578C34.5091 28.5655 34.523 28.5732 34.537 28.5808L34.5751 28.6035C34.7575 28.7122 34.9948 28.8659 35.1194 28.9563C35.249 29.0572 35.4554 29.1946 35.5726 29.2591L35.5923 29.2708C35.8175 29.4068 35.8541 29.5165 35.6536 29.4853C35.5807 29.4771 35.3905 29.4165 35.2288 29.36L35.1963 29.3481C34.9615 29.2629 34.9102 29.2609 34.7513 29.2995C34.6219 29.3317 34.5329 29.3882 34.448 29.4933C34.3791 29.57 34.3265 29.6547 34.3265 29.679C34.3265 29.7436 35.6777 30.3854 35.8194 30.3854C35.876 30.3854 35.9043 30.3492 35.9245 30.2523C35.969 30.0585 36.1471 29.7436 36.2361 29.7153C36.2805 29.7032 36.4019 29.7355 36.5233 29.792L36.5744 29.8149L36.6377 29.8425C36.7196 29.878 36.7961 29.9089 36.8348 29.9171L36.9578 29.9515C37.1747 30.0115 37.2824 30.0359 37.5179 30.0782L37.5428 30.0827C37.9595 30.1593 38.2992 30.1593 38.8009 30.0827L38.9459 30.0593C39.2633 30.0072 39.3927 29.9768 39.7503 29.8651L39.883 29.8234C40.2951 29.6931 40.5885 29.5779 40.759 29.4812L40.7874 29.466C40.8618 29.4261 40.9568 29.3729 41.0139 29.348C41.0746 29.3156 41.1231 29.2752 41.1231 29.2552C41.1231 29.1825 41.2403 29.1864 41.3293 29.2672C41.467 29.3882 41.6086 29.5982 41.6086 29.6749L41.6084 29.691C41.6065 29.759 41.5854 29.7502 41.3781 29.6184L41.3542 29.6038C41.1377 29.4712 41.0599 29.4698 41.0238 29.5992L41.0219 29.6063C41.0098 29.6669 40.8602 29.8848 40.6983 30.0868L40.608 30.1986C40.2721 30.6177 40.2347 30.7048 40.2331 30.9453L40.233 30.9627C40.233 31.0879 40.2533 31.2292 40.2817 31.2696L40.2853 31.2765C40.3062 31.3191 40.3003 31.3899 40.2525 31.5607L40.2416 31.5992L40.2281 31.6456C40.2151 31.6885 40.2003 31.7366 40.1833 31.7901L39.9863 32.408L40.0015 33.36C40.0024 33.4345 40.0031 33.4998 40.0032 33.558V33.5873C40.0024 33.9267 39.9808 34.0109 39.9013 34.261C39.5649 35.3081 38.7725 36.193 38.0226 36.3711L37.9777 36.3813C37.8478 36.4091 37.8677 36.3744 38.0403 36.2633C38.2467 36.13 38.4894 35.8958 38.6715 35.6577C39.1286 35.0603 39.2622 34.2045 39.0801 33.066C39.0478 32.8803 38.971 32.7914 38.8657 32.8238L38.8542 32.828C38.7889 32.8536 38.778 32.8909 38.7767 33.1471V33.2072C38.7767 33.615 38.7038 33.8734 38.4449 34.39C38.2295 34.8243 37.6911 35.3761 37.296 35.5731L37.2797 35.581C36.9804 35.7264 36.5758 35.8758 36.4909 35.8758C36.3515 35.8758 36.4476 35.7503 36.7018 35.6L36.7134 35.593C37.1949 35.3106 37.5387 34.9674 37.7613 34.5436C37.9519 34.1789 38.01 33.8998 37.9354 33.6987L37.9311 33.6877C37.9123 33.6388 37.8618 33.4461 37.8158 33.2438L37.8057 33.1992C37.7572 32.9852 37.6965 32.7955 37.6763 32.7834C37.6075 32.7391 37.5347 32.856 37.4457 33.1588C37.3971 33.3163 37.2878 33.5424 37.207 33.6593C37.029 33.9138 36.4545 34.4265 36.135 34.6161C35.6097 34.9298 34.8222 35.2006 34.3076 35.2479L34.2203 35.2554C34.0195 35.2719 33.9953 35.2666 34.0466 35.224L34.0596 35.2135C34.104 35.1772 34.1648 35.149 34.1971 35.149C34.3063 35.149 34.7474 34.9715 34.994 34.8301C35.1276 34.7534 35.4027 34.5273 35.605 34.3255C36.0338 33.8976 36.2442 33.5222 36.2926 33.1023L36.3005 33.0209C36.3152 32.855 36.3022 32.8479 36.1997 32.7915L36.1833 32.7834C36.0821 32.7342 36.0586 32.743 35.8145 32.9027L35.7749 32.9287C34.9859 33.4455 34.4843 33.6109 33.6954 33.615L33.6067 33.6147C33.2981 33.6129 33.1942 33.5993 33.1554 33.5567L33.1534 33.5545C33.0764 33.4616 33.1373 33.4253 33.3435 33.4414C33.5857 33.4652 34.1358 33.3335 34.3895 33.1911L34.4034 33.1831C34.9006 32.8978 35.3675 32.4954 35.9215 31.8734L35.9993 31.7854C36.3538 31.3818 36.3627 31.265 36.0256 31.4351C35.9366 31.4794 35.8073 31.5159 35.7345 31.5159C35.5873 31.5159 35.1041 31.3715 34.8226 31.2478L34.7537 31.2169C34.6413 31.1673 34.4566 31.0892 34.3063 31.0313L34.1717 30.9772C34.1549 30.9704 34.1383 30.9636 34.122 30.957L34.02 30.915L33.9127 30.8697C33.6722 30.7665 33.3782 30.6307 32.688 30.3047L32.612 30.2692C31.3817 29.6965 30.1052 29.2946 29.3142 29.2366L29.254 29.2323C28.8681 29.2041 28.7209 29.16 28.7679 29.0895C28.78 29.0693 28.7194 28.9362 28.6304 28.7989L28.6118 28.7698C28.5272 28.6371 28.4334 28.4741 28.3958 28.3952L28.3867 28.3774C28.3483 28.3047 28.3049 28.2458 28.2825 28.2458C28.2598 28.2458 28.1804 28.3059 28.0941 28.3864L28.0761 28.4033C27.8334 28.6333 27.3844 28.9644 27.1942 29.0491L27.1332 29.076C26.9729 29.1466 26.7316 29.2577 26.6319 29.307L26.6071 29.3194C26.6002 29.3229 26.5949 29.3257 26.5915 29.3278C26.5713 29.3358 26.5591 29.2793 26.5591 29.2027C26.5591 29.1097 26.5997 29.0087 26.6926 28.8918L26.7253 28.8465C26.7863 28.7629 26.8514 28.6791 26.8787 28.6414C26.9475 28.5486 27.0041 28.2499 26.9596 28.2256C26.9433 28.2135 26.814 28.2902 26.6724 28.3993C26.3811 28.6173 26.1181 28.7504 25.8431 28.8151C25.4429 28.913 25.1379 29.0184 24.8357 29.1683L24.8073 29.1825C24.6506 29.2598 24.3688 29.4313 24.0785 29.6194L24.013 29.662L23.9477 29.7049L23.8549 29.7666C23.5414 29.9758 23.2537 30.181 23.1447 30.2805L23.1262 30.2977C22.9852 30.4282 22.9181 30.4552 22.9181 30.3854C22.9181 30.3397 23.1729 29.7901 23.4399 29.2413L23.5007 29.1168C23.7012 28.7074 23.8983 28.3201 23.9892 28.1679L24.0225 28.1136C24.2615 27.7279 24.6729 27.1892 24.8802 26.9863L25.0784 26.8006L24.9369 26.7441C24.6942 26.6431 23.5048 26.51 22.8575 26.51L22.8305 26.5101C22.4693 26.5145 21.4096 26.5999 21.1179 26.6472L21.0873 26.6526L21.0177 26.6641C20.967 26.6725 20.9052 26.6821 20.8414 26.692L20.7133 26.7118L20.6186 26.7275C20.1527 26.8068 19.7992 26.8849 19.3782 26.9985L19.2105 27.0449C18.8034 27.1563 18.7108 27.1711 18.7108 27.1316C18.7135 27.0944 19.0175 26.8038 19.3705 26.4945L19.4027 26.4662C19.4511 26.4241 19.5004 26.3815 19.5497 26.3394L19.5827 26.3113C19.6981 26.2135 19.8134 26.1183 19.9204 26.0336L19.9939 25.9746C20.4627 25.6012 20.8253 25.3581 21.5062 24.9436L21.5611 24.9107C21.869 24.7275 22.2761 24.5027 22.6912 24.2827L22.8122 24.219C23.4066 23.9067 23.9998 23.6142 24.3259 23.4782L24.3548 23.4666C24.6933 23.3294 24.7475 23.2658 24.6334 23.1795C24.3138 22.9373 23.347 22.5819 22.6147 22.4325L22.5803 22.4262C22.4509 22.4017 22.2873 22.3662 22.2021 22.3479C22.1116 22.3282 21.8839 22.3124 21.6854 22.3115H21.6417C21.4546 22.31 21.2952 22.2944 21.2837 22.2752C21.2392 22.2065 21.3647 22.154 21.66 22.1218C21.8257 22.1055 21.9674 22.0693 21.9755 22.045C22.0241 21.9039 20.6406 21.9441 19.5321 22.1096L19.1714 22.1649C18.9664 22.1966 18.8364 22.2179 18.7141 22.2419L18.6697 22.2506L18.6254 22.2597L18.5591 22.2741C18.4458 22.299 18.3165 22.3299 18.1241 22.376L18.0854 22.3851C17.72 22.4729 17.0664 22.6914 16.7972 22.8161L16.7556 22.8345C16.6459 22.883 16.4971 22.9458 16.396 22.986L16.3764 22.9937C16.069 23.1149 15.442 23.4338 15.2397 23.5709L15.2237 23.5823C15.0667 23.6964 15.0432 23.7879 15.1957 23.7275L15.2032 23.7245C15.685 23.5298 16.5154 23.2686 16.9118 23.1834L17.214 23.1189C17.9628 22.9511 18.5637 22.8483 19.2654 22.7692L19.4335 22.7509C19.7454 22.7175 19.9778 22.7167 20.3949 22.7452L20.5452 22.7561C21.1856 22.8035 21.6682 22.8584 21.9269 22.9171L21.9501 22.9213C22.0447 22.9396 22.2087 22.9754 22.3314 22.9978L22.3824 23.0083C22.7294 23.0815 23.1226 23.2025 23.1941 23.2614L23.1972 23.2642C23.2458 23.3046 23.2296 23.3248 23.1002 23.3773L23.0546 23.3964C22.9934 23.4218 22.9454 23.4401 22.9355 23.4417L22.9342 23.4419C22.9261 23.4419 22.8209 23.4862 22.6956 23.5427L22.6524 23.5627C22.5303 23.6186 22.3584 23.6943 22.2506 23.7447L22.2058 23.7646C22.1075 23.8081 22.0269 23.8408 22.0103 23.845L22.0069 23.8457L22.0032 23.8468C21.9802 23.8539 21.8836 23.8949 21.7773 23.9424C21.6559 23.9989 21.4617 24.0797 21.3445 24.1281C20.432 24.486 19.2802 25.1021 18.2562 25.7841L18.2092 25.8155C16.6311 26.8667 14.9262 28.3372 13.8363 29.5807L13.6539 29.7903C13.5202 29.9424 13.42 30.0535 13.4111 30.0625L13.4071 30.0661C13.364 30.1077 13.1662 30.3555 12.9602 30.6212L12.8843 30.7195C12.8211 30.8016 12.7589 30.8831 12.7018 30.9587L12.6286 31.0562L12.5801 31.1219C12.2259 31.6041 11.6321 32.4947 11.3172 33.0196L11.2784 33.0845L10.9773 33.5853L10.9716 33.5948C10.9279 33.6694 10.8796 33.7601 10.8348 33.8501L10.822 33.8758C10.7318 34.0591 10.659 34.2316 10.6723 34.2449C10.737 34.3092 10.8837 34.1669 11.3615 33.5795L11.5463 33.3516C12.4171 32.2791 12.9803 31.6823 13.7629 30.995C15.183 29.7456 16.8009 28.7528 18.6087 28.0282L18.6702 28.0036C19.2569 27.7694 20.0012 27.5313 20.3289 27.4666L20.3458 27.4641C20.3957 27.4559 20.4929 27.437 20.5992 27.4147L20.6576 27.4024L20.7335 27.386L20.7739 27.3781C20.9437 27.3464 21.2053 27.3033 21.3807 27.2811L21.4448 27.2727C21.6301 27.2483 21.8707 27.2139 22.0078 27.1922L22.0301 27.1889C22.0561 27.1851 22.0818 27.1817 22.1075 27.1788L22.1291 27.1765C22.2158 27.167 22.2977 27.1624 22.3643 27.1621H22.3807C22.5088 27.1626 22.5733 27.1806 22.4933 27.2124L22.448 27.2296L22.1435 27.3486L22.0888 27.3698C21.7165 27.5151 21.4213 27.6686 21.0775 27.8946L21.0453 27.9167C20.9691 27.9695 20.8626 28.0456 20.7499 28.127L20.538 28.2816C20.3579 28.414 20.2011 28.5324 20.1705 28.5614L20.1672 28.5647C20.1612 28.5707 20.1355 28.5936 20.0974 28.6253L20.0826 28.6376C20.0443 28.6693 19.9961 28.708 19.9447 28.7465C19.6088 29.0087 18.8645 29.784 18.5571 30.1917C17.9865 30.9505 17.5213 31.762 17.1209 32.6906C16.7248 33.6246 16.491 34.5822 16.3294 35.9735L16.3239 36.021C16.2639 36.5481 16.275 38.0347 16.3419 38.6412L16.3632 38.8285C16.3736 38.9164 16.383 38.9926 16.393 39.0658L16.4028 39.1353L16.4111 39.1914C16.4368 39.3606 16.4695 39.5406 16.5262 39.84L16.5307 39.8655C16.5632 40.0416 16.6372 40.349 16.7183 40.6549L16.7483 40.7671C16.7996 40.957 16.8522 41.1398 16.8971 41.2837L16.9105 41.3256C16.9658 41.4985 17.0548 41.7525 17.1486 42.011L17.1958 42.1404L17.2641 42.3244C17.3899 42.6602 17.5037 42.9472 17.5359 42.9985L17.5376 43.001C17.5537 43.0212 17.6062 43.1504 17.6589 43.2834C17.9259 43.9659 18.8605 45.6249 19.4147 46.4041L19.4532 46.4577C19.5905 46.6464 19.811 46.9334 20.0357 47.2195L20.1405 47.3524C20.4193 47.7049 20.6854 48.0315 20.786 48.1401L20.9115 48.2691C19.2826 48.0643 17.7347 46.5832 16.2683 43.8261L16.2511 43.7882C16.1318 43.5225 15.8721 42.8636 15.7517 42.515L15.7307 42.4527C15.5242 41.8363 15.4656 41.6115 15.2679 40.708L15.2602 40.6744C15.234 40.5647 15.2058 40.4779 15.1911 40.4779C15.1789 40.4779 15.1427 40.6191 15.1184 40.7888L15.1086 40.8456C15.0615 41.1166 14.9924 41.4701 14.9161 41.8138L14.908 41.8504C14.7381 42.6094 14.6652 43.2997 14.6652 44.2081C14.6652 45.2052 14.7542 46.0973 14.9524 47.0985L14.97 47.1806C14.9902 47.2724 15.0174 47.3918 15.0464 47.5168L15.1038 47.7607C15.1559 47.9795 15.2037 48.1713 15.2184 48.2141L15.2195 48.2167C15.235 48.2516 15.2058 48.268 15.1351 48.2691H15.1264C15.0224 48.2691 15.0028 48.2474 14.8965 47.9772L14.8796 47.9342C14.4346 46.7916 14.1191 45.5484 13.8521 43.8892C13.5122 41.7615 13.5284 38.9478 13.8966 36.8244L13.9575 36.4785C14.0056 36.2081 14.046 35.9899 14.0889 35.7783L14.1026 35.7117L14.1164 35.6457L14.1375 35.5466C14.2024 35.247 14.2795 34.9278 14.3974 34.4615L14.5383 33.908C14.6611 33.4288 14.7453 33.1113 14.834 32.8017L14.8657 32.6917L14.9091 32.5439C14.9318 32.4674 14.9557 32.3888 14.9808 32.3059L15.0374 32.1213C15.0819 31.976 15.1184 31.8307 15.1225 31.7983C15.1344 31.7095 14.9929 31.7459 14.8271 31.8752L14.7231 31.9558C14.6101 32.0427 14.4332 32.178 14.2499 32.3159L14.1595 32.3837C12.8897 33.336 11.8997 34.3119 10.929 35.5599L10.8907 35.6093C10.559 36.0372 9.51125 37.5914 9.29681 37.9749L9.17058 38.1983C8.91733 38.649 8.81555 38.8443 8.57666 39.3354L8.48135 39.5293C8.36348 39.7712 8.2767 39.9578 8.27339 39.9802L8.27322 39.9813C8.26912 40.0339 8.11133 40.2194 8.11133 40.171C8.11133 40.1306 8.609 38.1364 8.77894 37.5107L8.80009 37.4314C8.88167 37.1294 8.98565 36.7922 9.12703 36.3667L9.15669 36.2778L9.19977 36.1497C9.30297 35.8445 9.42415 35.4961 9.56774 35.0886L9.5892 35.0289C9.79938 34.4527 10.2156 33.5075 10.6925 32.521C11.3883 31.0919 12.2986 29.6588 13.306 28.4074C14.5115 26.9046 16.3237 25.2516 17.6119 24.4743L17.6738 24.4372C17.8257 24.3452 17.9548 24.2565 17.9663 24.2412C18.0108 24.1726 17.841 24.1605 17.5012 24.205L17.4104 24.2182C17.2263 24.2447 16.991 24.2764 16.8498 24.2936C15.9207 24.4244 15.167 24.6135 14.405 24.9182L14.3617 24.9355C14.0252 25.072 13.3997 25.3874 12.7475 25.7458L12.6874 25.7791L12.5666 25.846C12.4859 25.8909 12.4053 25.9364 12.3251 25.9818L12.2652 26.0161C12.099 26.1109 11.9354 26.2065 11.7787 26.3003L11.712 26.3403C11.089 26.7118 10.3042 27.277 9.81058 27.6969L9.78864 27.7158C9.56648 27.9066 9.36545 28.026 9.36545 27.9713L9.36561 27.9675C9.37177 27.9032 9.52955 27.7133 10.2312 26.9339C11.1581 25.9056 11.9247 25.1468 12.8156 24.381L12.8608 24.3421C14.1918 23.1995 15.1507 22.5335 16.2712 21.9724C17.0156 21.6009 18.0351 21.2053 18.731 21.0196L18.7767 21.0067L19.1759 20.8984L19.294 20.8652C19.5415 20.7962 19.6544 20.7722 20.1064 20.6805L20.23 20.6562C20.9362 20.5179 21.2738 20.4715 22.028 20.4142L22.1077 20.4083C22.829 20.358 23.3292 20.3643 23.8445 20.4383L23.8974 20.4451C24.1711 20.4795 24.3196 20.485 24.3461 20.4585C24.3704 20.4342 24.2896 20.3295 24.1034 20.1436C23.9456 19.9943 23.6869 19.7037 23.5209 19.5058L23.4484 19.418C23.3482 19.2977 23.2121 19.1356 23.0731 18.9715L22.7807 18.6282C22.6429 18.4672 22.5306 18.3372 22.4878 18.2902L22.4708 18.272C22.4657 18.2666 22.4558 18.2551 22.4417 18.2387L22.2344 17.9919C22.1131 17.8466 21.9229 17.6448 21.8096 17.5399L21.7836 17.5145C21.688 17.4196 21.6204 17.3366 21.6316 17.3218C21.6381 17.3161 21.6862 17.3213 21.7654 17.3352L21.8014 17.3417L21.8631 17.3535C22.209 17.4212 22.8788 17.5801 23.4448 17.7321L24.0263 17.8886C24.0572 17.8969 24.0859 17.9044 24.1115 17.9111L24.176 17.929C24.8461 18.1142 25.6299 18.3815 26.0454 18.5732L26.1629 18.6242C26.2339 18.6547 26.286 18.6763 26.2951 18.678L26.2962 18.6782C26.3166 18.6782 26.5618 18.7959 26.8212 18.9275L26.9063 18.9709L26.9628 18.9999C27.0658 19.0532 27.1649 19.1056 27.2468 19.1506L27.8536 19.4734L28.2046 19.6598C28.7955 19.9757 29.0002 20.0975 29.1572 20.2122L29.1685 20.2204L29.1881 20.2349C29.5033 20.4681 29.5756 20.4041 29.3061 20.1112L29.1362 19.9298L29.1564 19.6431L29.1586 19.6169C29.1715 19.47 29.1979 19.3392 29.2171 19.3201C29.2534 19.2838 29.9532 19.9741 31.2924 21.3789L31.4514 21.546C32.667 22.8213 32.8704 23.0068 33.2622 23.2172L33.2747 23.2238C33.725 23.4663 33.9909 23.4976 34.3158 23.3363L34.3306 23.3287C34.7142 23.1373 34.8176 22.8554 34.6407 22.4945L34.6218 22.4565C34.573 22.3566 34.5238 22.2425 34.5126 22.1904L34.5088 22.1781C34.4597 22.0263 34.1834 21.2966 34.1151 21.1549L34.1121 21.1489C34.0537 21.0286 33.9956 21.0351 34.0162 21.1539L34.0192 21.1691C34.0711 21.44 34.1307 22.0565 34.1091 22.1273L34.1081 22.1298C34.0878 22.1824 34.0676 22.1863 33.9949 22.1459L33.9876 22.1418C33.8636 22.0651 33.2805 21.5268 32.6934 20.9456L32.5935 20.8464L32.5514 20.8042C32.5165 20.7692 32.4815 20.7342 32.4468 20.6992L32.4053 20.657L32.3846 20.6362L32.3239 20.5754C32.013 20.2676 31.5229 19.7956 31.162 19.4595L30.3434 18.7023C30.3259 18.6857 30.3128 18.6734 30.3051 18.6659L30.3013 18.6621L30.2792 18.6427C30.0687 18.4596 29.0429 17.6431 28.8447 17.5034C28.2947 17.12 27.5583 16.7203 27.0041 16.5063C26.6197 16.3569 26.191 16.2641 25.669 16.2196L25.4906 16.2024C24.7406 16.1286 24.519 16.0852 24.5039 16.0139C24.4919 15.937 24.6699 15.8282 24.949 15.7434C25.2485 15.6517 26.2423 15.6505 26.6645 15.7399L26.7295 15.7542C27.0778 15.8312 27.1808 15.8665 27.5098 15.9976C28.6232 16.4453 30.0578 17.4113 31.4328 18.6447L31.5519 18.7517C31.6556 18.844 31.8205 18.99 31.9838 19.1359L32.0812 19.2232L32.1692 19.3027C32.4179 19.529 32.7695 19.857 32.9997 20.083L33.0606 20.1407C33.2974 20.3629 33.4951 20.53 33.5174 20.515C33.5403 20.4999 33.5202 20.4205 33.4641 20.3072L33.4527 20.285C33.3828 20.1491 33.1319 19.866 32.5661 19.2991L32.3887 19.1224C30.9486 17.6852 29.9614 16.906 28.5414 16.0825C27.5139 15.4889 26.6158 15.2831 25.4263 15.3639C24.9976 15.3961 24.6495 15.4809 24.2046 15.6707C24.152 15.6909 24.1317 15.6748 24.1156 15.602L24.1058 15.555C24.0634 15.3545 23.9994 15.0949 23.9291 14.83L23.9008 14.7238L23.8644 14.59C23.7386 14.1346 23.6076 13.7119 23.5493 13.5997C23.5087 13.5189 23.4197 13.4424 23.3307 13.402L23.2693 13.375C22.6833 13.1167 22.2996 12.8969 22.0413 12.667L21.9972 12.6272C21.9614 12.5955 21.9073 12.5485 21.8437 12.4939L21.6338 12.3148L21.583 12.2716C20.8913 11.6903 20.1752 10.907 19.5725 10.0633C18.1484 8.07305 17.2746 5.437 17.667 4.30659C17.7822 3.98154 18.026 3.71882 18.3335 3.59479L18.3507 3.588ZM22.8777 28.4315L22.9333 28.3847C23.2575 28.1136 23.2783 28.1521 23.021 28.538L22.9776 28.6027C22.8381 28.8128 22.7007 29.0821 22.4326 29.679L22.4226 29.7029C22.337 29.9132 22.1112 30.5956 21.8704 31.3745L21.8546 31.4264C21.7075 31.9198 21.6378 32.3233 21.7004 32.3233C21.7203 32.3233 21.8882 32.1636 22.082 31.9668L22.0929 31.9558C22.7049 31.329 23.9065 30.3826 24.6333 29.9556L24.6577 29.9414C24.7909 29.864 24.9468 29.7778 25.1041 29.6937L25.1838 29.6511C25.5816 29.4405 25.9639 29.2546 25.9807 29.2713C25.9923 29.283 25.9851 29.3893 25.9625 29.5135L25.9603 29.5255C25.9445 29.6066 25.931 29.6924 25.9201 29.7772L25.9158 29.8111L25.9122 29.842C25.883 30.1003 25.879 30.3356 25.9078 30.3815C25.9401 30.43 26.0009 30.3976 26.2233 30.2199L26.2521 30.1963C26.3988 30.0773 26.65 29.8974 26.8436 29.766L26.9612 29.6866C27.1422 29.5635 27.3045 29.4479 27.3399 29.4125C27.4087 29.348 27.6312 29.2309 27.8617 29.1421C27.9185 29.1178 27.9912 29.0491 28.0236 28.9846C28.0559 28.916 28.1086 28.8716 28.1571 28.8716C28.22 28.8716 28.2409 28.9022 28.257 29.0417L28.2609 29.0764C28.2768 29.2064 28.2988 29.2394 28.3715 29.247C28.4201 29.2552 28.4807 29.2954 28.5011 29.3398C28.5238 29.3778 28.5574 29.4122 28.5782 29.4161L28.5819 29.4165C28.6022 29.4165 28.7235 29.4651 28.8529 29.5215C28.9823 29.5821 29.1968 29.6628 29.3302 29.6992L29.3766 29.7133C29.7018 29.8136 30.191 29.994 30.5844 30.1633L30.8547 30.2811C31.0882 30.3843 31.1275 30.4085 31.1303 30.4378L31.1306 30.4419C31.1306 30.4776 30.8054 30.4614 30.4577 30.4139L30.4114 30.4074L30.3811 30.403C30.3354 30.3962 30.2898 30.3889 30.2448 30.3812L30.2001 30.3733C29.5147 30.2507 28.8217 30.2095 28.2691 30.2572L28.2339 30.2603C28.1714 30.2655 28.1064 30.2717 28.0414 30.2785L27.9624 30.287C27.7561 30.3094 27.562 30.3351 27.4694 30.3492L27.4473 30.3533C27.3132 30.3801 27.071 30.4464 26.8223 30.5211L26.7759 30.5352L26.6723 30.5672C26.4056 30.6502 26.1553 30.7359 26.0487 30.7856L25.9084 30.8528C25.3541 31.1193 25.0713 31.2626 24.8034 31.4232L24.7788 31.4381C24.6849 31.495 24.5918 31.5545 24.4886 31.623L24.4312 31.661C23.697 32.1465 21.5783 34.1437 20.4908 37.2637C19.412 40.3588 19.7127 44.0219 21.3929 48.2531L21.3047 48.1341C20.6743 47.2817 20.1981 46.588 19.8759 46.0528L19.8559 46.0189C19.5881 45.561 19.0298 44.4801 18.8564 44.0706L18.8155 43.9785L18.7414 43.813C18.7152 43.7548 18.689 43.6968 18.6663 43.6468C18.3272 42.8943 17.9998 41.8277 17.7307 40.6289L17.7195 40.5787C17.6118 40.1005 17.4999 38.9571 17.497 38.3182V38.2938C17.497 36.8871 17.7468 35.1597 18.0894 34.201L18.1882 33.9291C18.3026 33.6172 18.372 33.4401 18.4482 33.2708L18.4585 33.2484L18.4686 33.2262C18.5047 33.1481 18.5432 33.0692 18.5893 32.9772C19.1071 31.9236 19.7181 31.0758 20.5069 30.3168C20.6017 30.2256 20.6888 30.1434 20.7751 30.0648L20.8141 30.0298L20.8529 29.9951L20.8919 29.9608L20.918 29.938L20.9443 29.9151C21.2391 29.6609 21.5718 29.4094 22.1899 28.9603C22.2663 28.9066 22.3501 28.8448 22.4337 28.7815L22.5077 28.7252C22.6549 28.6124 22.7933 28.5016 22.8777 28.4315ZM39.5737 31.8185L39.5857 31.8008C39.6979 31.6337 39.6777 31.5913 39.5251 31.6773C39.3268 31.7863 38.813 31.8993 38.3316 31.9397C38.2827 31.9432 38.2057 31.9451 38.11 31.9452H38.0775C37.9256 31.9449 37.7334 31.9408 37.5355 31.9331L37.4592 31.9301C37.3869 31.9271 37.3145 31.9234 37.2435 31.9195L36.9962 31.9044C36.4021 31.8701 36.3701 31.8914 36.3412 32.0568C36.313 32.2303 36.9602 32.3435 37.9676 32.3435L38.0973 32.3425C38.4632 32.3395 38.6287 32.3334 38.7554 32.3084L38.7758 32.3042L38.7889 32.3012L38.8018 32.298L38.8147 32.2947L38.8337 32.2895L38.8463 32.2857C38.8548 32.2832 38.8632 32.2805 38.8717 32.2777L38.8845 32.2734C38.9082 32.2654 38.9323 32.2565 38.9588 32.2464L38.9995 32.2302C39.293 32.1106 39.4536 31.9924 39.5737 31.8185ZM40.4192 29.9454L40.4113 29.9329C40.3847 29.8936 40.3644 29.9007 40.1318 29.9818L40.1059 29.9902C39.9952 30.0247 39.8082 30.0727 39.6641 30.0997L39.5279 30.1241C39.1003 30.2024 39.0759 30.2229 39.0274 30.3531C39.0041 30.4233 38.9127 30.565 38.8263 30.6728L38.8016 30.7034C38.7202 30.8056 38.6598 30.9036 38.6675 30.9264C38.6997 31.0111 39.2135 30.9587 39.4563 30.8416C39.7031 30.7245 40.4636 30.0181 40.4192 29.9454ZM36.7377 30.014C36.6568 29.9454 36.5557 29.9858 36.4141 30.1433C36.2672 30.3096 36.2216 30.4953 36.3153 30.571L36.321 30.5751C36.402 30.6398 36.7983 30.781 37.0169 30.8255C37.3648 30.894 37.8543 30.9103 38.0038 30.8577C38.1375 30.8134 38.4935 30.4339 38.4935 30.3451C38.4935 30.3219 38.3332 30.3059 38.1056 30.3048L38.0768 30.3047C37.5573 30.3047 36.9195 30.1709 36.744 30.0197L36.7377 30.014ZM33.4164 28.1046L33.3358 28.0672C32.9661 27.8971 32.9102 27.9012 32.7085 28.0538L32.6806 28.0751C32.5859 28.1462 32.4987 28.2016 32.4758 28.2053L32.4736 28.2054C32.413 28.2054 32.1015 28.4921 32.1015 28.5486C32.1015 28.6253 32.2472 28.7222 32.7448 28.9724L32.8307 29.0172C33.0524 29.1334 33.3181 29.2785 33.4607 29.3641L33.4839 29.3781C33.634 29.4684 33.782 29.5377 33.8128 29.5377C33.8478 29.5377 33.9013 29.4819 33.9343 29.4095L33.9382 29.4004C33.9977 29.2618 34.279 28.9447 34.4196 28.8639L34.4277 28.8595C34.537 28.803 34.46 28.7222 34.2254 28.6535L34.1924 28.6439C34.016 28.5953 33.9521 28.6188 33.7116 28.7787L33.6968 28.7891C33.6449 28.8244 33.5933 28.8514 33.5821 28.8514C33.5336 28.8514 33.5619 28.7383 33.6591 28.5445C33.7157 28.4356 33.7522 28.3266 33.744 28.2984C33.7318 28.2741 33.5862 28.1852 33.4164 28.1046ZM31.1104 27.3376C30.7777 27.2388 30.4335 27.1941 30.2446 27.2225L30.2325 27.2244C30.1676 27.2326 30.0665 27.3052 29.9979 27.3899C29.8683 27.5474 29.6337 27.9997 29.6337 28.0965C29.6337 28.1409 29.7228 28.1611 30.01 28.1813L30.064 28.1859C30.5577 28.2299 31.2283 28.3425 31.5756 28.4478L31.6267 28.4614C31.6805 28.476 31.7213 28.488 31.7213 28.488C31.7254 28.488 31.7414 28.4437 31.7536 28.3872C31.7697 28.3305 31.883 28.165 32.0045 28.0199L32.0209 28.0004C32.1372 27.8625 32.214 27.7365 32.1986 27.721C32.1683 27.6935 31.8767 27.5834 31.5557 27.4766L31.4909 27.4551L31.426 27.4341L31.3935 27.4237C31.31 27.397 31.2274 27.3715 31.1491 27.3488L31.1104 27.3376ZM29.6297 27.1801C29.6013 27.1477 29.2413 27.4262 29.1564 27.5474C28.8853 27.931 28.9176 28.5043 29.2089 28.375C29.2914 28.3358 29.3091 28.3004 29.3101 28.1688V28.157C29.3101 27.9391 29.3951 27.6565 29.5366 27.3941L29.553 27.3638C29.6045 27.2677 29.637 27.1875 29.6297 27.1801ZM38.8225 26.4677H38.8094L38.7917 26.4678C38.697 26.4704 38.7038 26.4898 38.7281 26.5382C38.813 26.6957 39.0962 26.9096 39.4401 27.075L39.4708 27.0897C39.8118 27.249 40.0712 27.3193 40.0712 27.2487C40.0712 27.164 39.8123 26.7118 39.707 26.6109L39.6853 26.5906C39.6072 26.521 39.5455 26.504 39.2608 26.4879L38.9556 26.4719C38.9173 26.4702 38.8845 26.4688 38.8567 26.4681L38.8225 26.4677ZM40.0591 25.3997L40.0117 25.3677C39.8434 25.256 39.8096 25.2771 39.1732 25.5855L39.1167 25.6132C38.5119 25.9124 37.9676 26.2332 37.9676 26.2919C37.9676 26.3807 38.0848 26.409 38.2265 26.3525L38.2483 26.3438C38.4614 26.2611 39.0186 26.1164 39.3309 26.0659L39.3613 26.0606C39.8451 25.9796 40.1045 26.0969 40.6478 26.6409L40.7391 26.7331C41.18 27.1739 41.2252 27.1376 40.9572 26.6027L40.941 26.5713C40.7261 26.1619 40.2522 25.5296 40.0591 25.3997ZM26.3284 24.7175C25.9644 24.6651 25.5314 24.6651 25.0016 24.7135L24.8723 24.7261C24.2961 24.784 24.0735 24.8311 23.4846 25.0083C23.3748 25.0411 23.2488 25.0837 23.121 25.1296L23.0412 25.1588L22.9796 25.1818C22.6246 25.3156 22.2989 25.4602 22.3234 25.4845C22.3415 25.5026 22.6524 25.4461 23.145 25.3382L23.3842 25.2852C23.808 25.1924 24.4843 25.0588 24.7385 25.0204L24.8299 25.0053C24.8619 25.0001 24.8954 24.9947 24.9293 24.9895L25.0803 24.9663L25.2848 24.9355C25.4136 24.916 25.6551 24.8891 25.8317 24.8764L25.8511 24.8749C26.0029 24.8636 26.1257 24.852 26.2211 24.8405L26.2454 24.8375L26.2865 24.8318C26.4162 24.8134 26.4782 24.7945 26.4782 24.7739C26.4782 24.7537 26.4094 24.7296 26.3284 24.7175ZM37.1382 24.3179L37.1194 24.3056C36.9029 24.1672 36.762 24.1824 36.347 24.3935L36.3291 24.4027C36.0823 24.5278 35.7466 24.8306 35.7951 24.879C35.8112 24.8951 35.9002 24.871 35.9933 24.8265L36.0304 24.8085C36.1176 24.7665 36.2093 24.7275 36.2483 24.7135C36.4059 24.661 36.9804 24.5723 37.1625 24.5723L37.1821 24.5721C37.4535 24.5701 37.4426 24.5231 37.1382 24.3179ZM24.953 19.4048C24.8236 19.4048 25.396 19.7876 26.0012 20.1235L26.0455 20.148C26.1639 20.213 26.2827 20.2758 26.3974 20.3334L26.6388 20.4547C27.2296 20.7523 27.5535 20.9246 27.8546 21.1064L27.8969 21.1321L27.9461 21.1624L27.9953 21.1932L28.0591 21.2334C28.1233 21.2743 28.1889 21.3171 28.2582 21.3628L28.3198 21.4035C28.955 21.8272 29.1276 22.0442 29.3372 22.6711L29.3504 22.7111C29.643 23.5943 30.1058 23.9435 31.2966 24.1816L31.3329 24.1887C31.5273 24.2283 31.8773 24.2483 32.3448 24.2493L32.4728 24.2494C32.8955 24.2515 33.1669 24.267 33.3075 24.3017L33.3233 24.3058C33.4069 24.3272 33.512 24.361 33.6181 24.3989L33.6755 24.4197C33.8876 24.498 34.0878 24.5862 34.1081 24.6166C34.1446 24.6772 34.286 24.657 34.286 24.5925C34.286 24.551 34.0641 24.3365 33.8136 24.1237L33.7621 24.0805C33.7359 24.0585 33.7096 24.0367 33.6832 24.0153L33.657 23.994L33.6144 23.9601C33.5155 23.8816 33.4199 23.8103 33.3396 23.7568L33.1048 23.5952L32.935 23.688L32.9146 23.6994C32.7781 23.7735 32.6964 23.7811 32.2835 23.7851C31.7293 23.7851 31.4098 23.7204 30.9687 23.5064C30.6047 23.3369 30.3013 22.909 30.1596 22.372C30.0786 22.0773 29.9695 21.9361 29.6742 21.7423C28.9796 21.2882 27.785 20.6651 26.84 20.257L26.5096 20.1145C26.3743 20.056 26.2494 20.0016 26.1732 19.9667L26.1187 19.9413C26.0752 19.9214 26.0258 19.899 25.9755 19.8764L25.873 19.8307C25.8199 19.8072 25.77 19.7854 25.7298 19.7682L25.6301 19.721C25.5153 19.667 25.3637 19.5967 25.2484 19.5422L25.1808 19.5088C25.0574 19.4485 24.9599 19.4048 24.953 19.4048ZM35.8921 23.7486L35.8536 23.7358C35.5204 23.6271 35.3637 23.6227 35.1882 23.7082C34.9004 23.852 34.7706 24.0822 34.9744 24.0876L34.9818 24.0877C35.0784 24.0877 35.2839 24.0745 35.5035 24.0566L35.5584 24.0521C35.5936 24.0491 35.6288 24.0462 35.664 24.0429L35.8339 24.0273C36.073 24.0044 36.2683 23.981 36.2805 23.9706C36.3332 23.9182 36.2279 23.8618 35.8921 23.7486ZM30.8839 21.9885C30.8313 21.9885 30.7665 22.2026 30.7665 22.3679C30.7665 22.5941 30.8514 22.7959 31.0334 22.9978C31.3121 23.3074 31.657 23.4493 32.1419 23.4576L32.1662 23.458C32.5343 23.4621 32.6557 23.4095 32.583 23.2722C32.5101 23.1391 32.2997 23.03 32.146 23.0543C31.9923 23.0785 31.8992 23.0261 31.8992 22.921C31.8992 22.8322 31.7375 22.6829 31.4502 22.5013C31.3295 22.4274 31.1636 22.2862 31.0756 22.1855L31.0352 22.1384C30.9623 22.0539 30.8981 21.9885 30.8839 21.9885ZM18.3147 18.4456L18.3718 18.4445L18.4766 18.4432C18.9833 18.4386 19.4795 18.4566 19.7019 18.4966L19.7609 18.5073C20.5058 18.6469 21.54 18.9674 22.0484 19.2151L22.0727 19.2273C22.478 19.4326 23.2823 20.0082 23.2823 20.0992C23.2823 20.1302 23.0186 20.1376 22.7671 20.1243L22.7387 20.1226C22.6396 20.1167 22.544 20.1074 22.469 20.0951L22.2813 20.0626C22.0968 20.0315 21.8325 19.9894 21.1987 19.8894L20.1323 19.7218C20.0648 19.7111 19.9935 19.6999 19.9163 19.6874L19.8099 19.6716C18.8092 19.526 17.9103 19.4766 16.5236 19.4962L16.2459 19.5007C14.8577 19.5244 14.5374 19.558 13.7995 19.748L13.6023 19.7969C13.184 19.8993 13.128 19.9026 13.128 19.8529C13.128 19.8037 13.5875 19.5743 14.0771 19.363L14.1394 19.3363L14.1853 19.3169L14.247 19.291C14.4632 19.2009 14.6756 19.1189 14.8473 19.0618C15.5991 18.8129 16.5486 18.5988 17.3053 18.5066L17.3555 18.5007C17.6028 18.4705 17.9543 18.4522 18.3147 18.4456ZM11.9587 2.1387L11.975 2.12198C12.0619 2.03409 12.1413 1.97365 12.1489 1.98138C12.1569 1.99337 12.0842 2.11456 11.983 2.25578C11.6425 2.73388 11.4221 3.22745 11.3181 3.74785L11.2976 3.85215C11.2747 3.97018 11.2465 4.12134 11.2264 4.21775L11.222 4.2441C11.1703 4.57783 11.1797 5.52868 11.2427 5.92142C11.3681 6.67235 11.6271 7.5443 11.9546 8.32347C12.7354 10.1602 13.6578 11.5408 15.0092 12.8852C15.9477 13.8218 16.8659 14.5081 17.7803 14.9521C18.4195 15.2629 18.8725 15.4204 19.4915 15.5495C19.5841 15.5691 19.6869 15.5861 19.7899 15.6001L19.8208 15.6042C20.1348 15.6451 20.4427 15.6568 20.4665 15.6181C20.4787 15.5979 20.4383 15.4526 20.3775 15.3033C20.0902 14.6089 20.0255 13.4867 20.2156 12.5218L20.2243 12.4805C20.3125 12.0661 20.4452 11.8834 20.505 12.1067L20.5069 12.1141C20.528 12.2031 20.8105 12.6113 21.1277 13.0329L21.1938 13.1202L21.2269 13.1637C21.4268 13.4252 21.631 13.6797 21.7853 13.854C21.9223 14.008 22.0842 14.1835 22.2495 14.3587L22.3207 14.4338L22.3919 14.5082C22.7062 14.8368 23.0121 15.1421 23.165 15.2771L23.1985 15.3063C23.2387 15.3407 23.2935 15.3876 23.3538 15.4386L23.4816 15.5465L23.6326 15.6727C23.7713 15.7898 23.9213 15.929 23.9821 15.9896L23.9974 16.005C24.0772 16.0841 24.1366 16.1048 24.3688 16.1306L24.4473 16.139C24.8592 16.1825 25.0308 16.2259 25.3605 16.3755L25.4232 16.4041C25.7312 16.5471 25.9379 16.6941 26.4376 17.1078L26.4738 17.1378C27.0637 17.6334 27.8241 18.4372 27.7605 18.5007C27.7484 18.5168 27.7041 18.4924 27.6635 18.4562C27.5624 18.3553 27.2995 18.2463 26.8908 18.1292L26.6278 18.0571C26.5206 18.0276 26.4267 18.0014 26.377 17.988L26.3084 17.9664C26.215 17.9375 26.0876 17.8993 25.9928 17.8708L25.9153 17.8455C25.8164 17.8133 25.6752 17.7687 25.5333 17.7253L25.4191 17.6907C25.3942 17.6833 25.3695 17.676 25.3454 17.6689L24.7649 17.4875L24.7507 17.4832C24.6577 17.455 24.3745 17.3824 24.1236 17.3259L23.9868 17.2931C23.9557 17.2858 23.9243 17.2782 23.8931 17.271L23.7612 17.2402C23.6215 17.208 23.4961 17.1796 23.4238 17.1643L23.3989 17.1585C23.1045 17.0905 22.3029 16.9362 21.8865 16.8656L21.8115 16.8522C21.6746 16.8278 21.5123 16.8006 21.4145 16.7833L21.2892 16.7607C21.1974 16.7444 21.086 16.7253 20.9907 16.7093L20.825 16.6815C20.4351 16.6147 20.2234 16.5679 20.1307 16.5346C20.0782 16.5104 20.0255 16.5024 20.0174 16.5144C20.0102 16.5216 20.1227 16.6453 20.2827 16.8009L20.3841 16.8988C20.6529 17.1602 20.9572 17.4965 21.8016 18.4603L21.817 18.4784C21.9712 18.6611 21.966 18.7086 21.7975 18.6499L21.7787 18.6428C21.6146 18.5811 21.3891 18.5254 20.9763 18.4361L20.102 18.2427C19.3867 18.0833 19.1016 18.0151 18.8305 17.9336L18.8028 17.9252C18.7439 17.9074 18.6851 17.8886 18.6218 17.8679L18.5085 17.8304C16.7365 17.2492 15.8101 16.688 14.4913 15.4083C13.6862 14.6291 12.9135 13.6442 12.3916 12.7438L12.3736 12.7118C12.3034 12.5862 12.1912 12.3727 12.0757 12.1474L12.0125 12.0237L11.9316 11.8637C11.8025 11.6068 11.6903 11.3764 11.6553 11.2906L11.6242 11.2137C11.5892 11.1282 11.5505 11.036 11.5259 10.9838L11.5177 10.9638C11.4697 10.8423 11.3377 10.4568 11.2026 10.0363L11.1643 9.91668L11.1455 9.85751C11.0039 9.40528 10.834 8.63432 10.7774 8.20229C10.4821 5.90122 10.6076 4.55684 11.2427 3.19637C11.4448 2.7645 11.6959 2.39716 11.9587 2.1387Z" fill="url(#paint0_linear_404_307)"/>
<defs>
<linearGradient id="paint0_linear_404_307" x1="8.11133" y1="25.1249" x2="65.6221" y2="31.1781" gradientUnits="userSpaceOnUse">
<stop stop-color="#FF0000"/>
<stop offset="1"/>
</linearGradient>
</defs>
</svg>
