<svg width="51" height="51" viewBox="0 0 51 51" fill="none" xmlns="http://www.w3.org/2000/svg">
<path d="M10.1246 15.542C7.1753 18.5914 4.99921 22.9793 4.22619 27.4244L4.1831 27.6753C3.85016 29.6439 3.80615 30.7814 3.80615 36.095V41.5247L8.22776 41.5241C10.5392 41.52 10.9645 41.4943 10.9645 41.3909L10.9637 41.3782C10.9531 41.2745 10.8335 40.8535 10.6877 40.4063C10.0865 38.5804 9.63778 36.4295 9.43739 34.4985L9.42144 34.3308C9.30467 33.0563 9.41892 33.0381 9.93632 34.1939L9.95288 34.2309C11.079 36.7737 12.9213 39.2688 14.8777 40.9034L15.6223 41.5247L21.4574 41.5243C23.9862 41.52 25.9492 41.4922 25.9492 41.4482C25.9492 41.4113 25.7343 41.3024 25.4779 41.2087L25.453 41.1997C24.5176 40.8748 22.8569 40.0047 21.7593 39.2783L21.1631 38.8716C20.8398 38.6495 20.5997 38.48 20.5566 38.4369L19.9822 37.9306C19.9149 37.8716 19.8448 37.8102 19.7741 37.7488C16.3571 34.7375 14.4673 30.1681 14.8777 25.914C15.2596 21.9278 17.2065 18.582 20.3562 16.4597C22.4464 15.064 24.4031 14.4617 26.8561 14.4617C28.679 14.4712 29.7384 14.7006 31.2941 15.4558C31.8869 15.7436 32.246 15.9951 32.7292 16.4816L32.8461 16.6001C33.4617 17.2308 33.9502 17.9128 33.7757 17.9128L33.7684 17.9117C33.6905 17.8956 33.2013 17.6728 32.659 17.3965L32.597 17.3663C31.5505 16.8683 28.9424 16.1171 25.9492 16.4919C24.0016 16.7358 21.7689 17.8171 20.7857 18.534L20.7317 18.5745C19.8265 19.2603 17.8573 21.1076 17.9415 21.2013C17.9797 21.2395 18.3614 21.2204 18.8005 21.1629L18.8668 21.1554C19.8363 21.0479 21.177 21.0413 21.177 21.1533C21.177 21.2013 21.0816 21.2586 20.9575 21.2968C20.6102 21.3815 19.5795 22.2059 19.1644 22.7243L19.144 22.7498C18.6669 23.3521 17.9986 24.7382 17.7315 25.6559C17.4497 26.6627 17.3713 28.8554 17.5873 29.9814L17.598 30.0343C18.1271 32.6556 19.4607 34.7901 21.8674 36.8638L21.9406 36.9266C24.5845 39.2019 28.2495 40.7696 32.3344 41.3815L32.4351 41.3957C33.5371 41.5454 35.2075 41.5683 35.2075 41.4291C35.2075 41.3718 35.1596 41.3337 35.1024 41.3337C35.0451 41.3337 34.6347 41.0946 34.1956 40.8077C32.8344 39.9145 31.7686 38.7069 31.0893 37.2575L31.0555 37.1847C30.5784 36.1523 30.4065 35.3971 30.3683 34.1256L30.3658 33.9872C30.3535 33.4296 30.3199 32.9764 30.2935 32.9419L30.292 32.9403C30.2156 32.8543 29.5951 33.5044 29.2898 33.9727C28.7555 34.8084 28.5803 35.4318 28.5743 36.5135L28.5727 36.9247C28.5698 37.3231 28.5624 37.6054 28.555 37.6054C28.4594 37.6054 27.9727 36.9649 27.6673 36.4582C27.1141 35.5096 26.9569 34.9578 26.9515 33.8419L26.9514 33.7816C26.9514 32.6345 27.0754 32.0991 27.5432 31.1814C28.3354 29.6518 29.7861 28.5333 32.2007 27.5965C35.7323 26.22 40.9722 25.9715 42.8142 27.0995L42.9244 27.167C43.379 27.4515 44.1753 28.0633 44.1313 30.3115C44.1209 30.8467 44.0732 31.3387 43.9882 31.7872L44.0939 31.7269C44.7174 31.3682 45.1465 31.0621 45.3816 30.8085C46.966 29.0687 47.8059 26.7839 47.6819 24.5471C47.5961 22.9984 47.1091 21.6409 46.2407 20.5034C44.9809 18.8687 42.8524 17.7121 40.0846 17.1576L39.8921 17.1161C39.3286 16.9917 39.1243 16.9135 38.9862 16.7476L38.4556 16.0739C38.3847 15.9835 38.3126 15.8907 38.2424 15.8001C35.5224 12.3013 29.767 8.46189 21.7975 9.35688C16.3093 9.70465 11.4704 14.1559 10.1246 15.542ZM33.2158 18.5504C33.3507 18.9206 32.6612 19.6661 31.9573 19.9096C30.9839 20.2463 29.9196 20.1529 29.343 19.5985C28.6598 18.9398 28.4936 18.1788 28.9028 17.5973L28.9241 17.5693C29.1767 17.2444 29.7122 16.9124 30.6863 17.2174L30.9137 17.2788C31.9959 17.5667 32.9364 17.7826 33.2158 18.5504Z" fill="#6A07AC"/>
</svg>
