<svg width="51" height="51" viewBox="0 0 51 51" fill="none" xmlns="http://www.w3.org/2000/svg">
<g clip-path="url(#clip0_404_295)">
<path d="M33.6493 -2.46218C33.6493 -2.33185 33.6996 -2.0311 33.7601 -1.78053C33.9511 -0.968694 33.9009 1.17647 33.6695 2.0986C33.2669 3.68235 32.6331 4.73481 30.973 6.58917C28.5883 9.23548 27.3406 11.0897 26.4553 13.2948C26.3748 13.5154 26.2842 13.6658 26.2541 13.6457C26.1937 13.5755 26.4452 12.7937 26.7369 12.1522C26.8778 11.8515 27.0691 11.4204 27.1696 11.2C27.2703 10.9795 27.3608 10.7689 27.3809 10.7389C27.4011 10.7089 26.8477 10.1275 26.1433 9.43587C23.7285 7.07027 22.6117 5.46649 22.1691 3.73237C21.9477 2.88045 21.9778 -0.0263674 22.2093 -0.948654C22.481 -1.97098 22.3904 -2.17137 22.0081 -1.42976C21.5554 -0.54755 21.2233 0.434697 20.9414 1.72779C20.7 2.81024 20.6296 3.34152 20.3579 5.91761C20.3076 6.48897 20.1668 7.28077 20.0561 7.67161C19.3015 10.4382 18.9896 12.5431 19.2512 13.0242C19.3518 13.2247 19.382 13.2348 19.6737 13.0845C20.2473 12.7937 20.0662 13.0242 19.2411 13.6156C17.4099 14.9287 16.0616 16.2619 15.0958 17.7054C14.4719 18.6474 13.9286 19.7099 13.9286 20.0008C13.9286 20.1009 14.0494 20.4116 14.2001 20.7023C14.4417 21.1534 14.482 21.3439 14.482 22.0755C14.482 23.0478 14.3412 23.4789 13.7274 24.3709C13.0432 25.3934 11.1516 26.9069 9.86374 27.4882C9.43108 27.6789 9.19958 27.839 9.19958 27.9493C9.19958 28.2701 9.93412 29.493 10.3668 29.8939C10.7893 30.2848 10.8397 30.305 11.2521 30.2448L11.6848 30.1746L11.7452 30.5756C11.9666 31.8885 15.3473 33.1616 16.9672 32.5301C17.2086 32.44 17.7721 32.1292 18.2249 31.8384C19.4323 31.0668 20.5692 30.6056 22.31 30.2046C22.9337 30.0643 24.4026 30.0643 25.1472 30.2147C25.7509 30.3349 26.7873 30.7859 26.4854 30.7859C26.395 30.796 26.1937 30.746 26.0527 30.6958C25.5297 30.4953 23.7487 30.2848 23.1652 30.345C22.4507 30.4252 22.33 30.5554 22.4709 31.0668C22.7024 31.8987 22.642 32.099 21.9578 32.6504C21.1126 33.332 18.2047 36.2489 17.2692 37.3615C16.0315 38.8249 14.8341 40.8197 14.3914 42.1427C14.2203 42.6338 13.9286 44.1374 13.9286 44.4883C13.9286 44.8089 14.1097 44.7889 14.2405 44.4481C14.5826 43.536 15.4177 42.2429 16.1121 41.5813C16.605 41.1002 16.766 41.1002 16.5145 41.5914C16.0517 42.4635 15.599 44.398 15.4278 46.1621C15.2065 48.3674 15.5485 50.2718 16.5044 52.1664C17.0779 53.329 18.1242 54.612 18.3254 54.4116C18.3557 54.3914 18.2852 54.221 18.1847 54.0305C18.0438 53.7599 18.0136 53.4794 18.0237 52.5271C18.0337 51.2542 18.1343 50.6628 18.5369 49.5901C19.6737 46.5129 22.3401 43.5861 26.3546 41C27.8036 40.0678 29.192 39.2859 29.3329 39.3361C29.5543 39.4063 26.5157 42.5435 25.4994 43.2954C24.6442 43.937 24.3324 44.2276 24.5235 44.2276C24.7347 44.2276 27.3004 42.9145 28.5984 42.1427C29.172 41.8019 29.6649 41.5212 29.6849 41.5212C29.7252 41.5212 31.6269 40.2783 32.794 39.4865C34.7863 38.1432 36.7986 36.289 37.684 34.9858C38.1469 34.3143 38.8813 32.8108 38.8813 32.5502C38.8813 32.4599 38.9417 32.3998 39.0121 32.4298C39.1027 32.4599 39.1328 32.7906 39.1227 33.6628C39.1128 34.8757 39.0121 35.4169 38.5895 36.5095C38.3178 37.2312 38.3279 37.3014 38.6399 36.9505C39.314 36.1988 40.1188 34.7954 40.622 33.5024C41.2559 31.8586 41.3364 31.4275 41.3364 29.5932C41.3465 27.9995 41.2256 27.1174 40.9037 26.1852C40.5818 25.3032 40.2094 24.3709 40.0183 23.9801C39.8976 23.7394 39.8069 23.519 39.8271 23.4988C40.0988 23.2383 41.8998 25.4535 42.2217 26.4358C42.3727 26.9169 42.2923 26.0949 42.101 25.3131C41.7187 23.6994 40.954 22.0656 39.7567 20.2714C38.8512 18.9181 38.0663 17.9659 36.4968 16.3321C35.883 15.7006 35.722 15.5703 35.6011 15.6705C35.4 15.831 35.4202 15.7707 35.8126 14.628C36.2653 13.2948 36.4665 12.2124 36.4665 11.0998C36.4665 10.3179 36.2553 8.77425 36.1143 8.54372C36.0942 8.50364 35.9333 7.95248 35.7723 7.3109C35.5712 6.52889 35.4402 5.66704 35.3597 4.71477C35.1484 1.86807 34.6254 -0.808221 34.0417 -2.02116C33.9309 -2.24159 33.8505 -2.48222 33.8505 -2.55228C33.8505 -2.6225 33.8102 -2.68262 33.7499 -2.68262C33.6996 -2.68262 33.6493 -2.58242 33.6493 -2.46218ZM24.2921 19.6298C24.2921 19.8603 23.3362 20.4116 22.7728 20.5118C22.4408 20.572 22.3803 20.6422 21.9879 21.4141C21.5049 22.4063 20.9012 22.9977 20.2172 23.1681C19.7039 23.2984 18.1645 23.3185 17.9734 23.1982C17.8727 23.128 17.8828 23.0278 17.9934 22.6971C18.6072 20.983 19.7241 20.2813 22.1589 20.0809C22.9941 20.0107 23.477 19.9204 23.7487 19.7901C24.1814 19.5697 24.2921 19.5397 24.2921 19.6298Z" fill="#F09D03"/>
</g>
<defs>
<clipPath id="clip0_404_295">
<rect width="50" height="50" fill="white" transform="translate(0.75 0.875)"/>
</clipPath>
</defs>
</svg>
