<svg width="51" height="51" viewBox="0 0 51 51" fill="none" xmlns="http://www.w3.org/2000/svg">
<path d="M25.8617 3.27453L25.9753 3.18996C26.5904 2.73631 26.712 2.71264 26.6347 2.99998C26.6014 3.13647 26.584 3.52195 26.5814 3.93615L26.581 4.05907C26.5814 4.6227 26.6079 5.19942 26.6569 5.2485C26.7164 5.30798 26.8502 5.16692 27.1327 4.76613L27.1625 4.72589C27.3758 4.43998 27.5885 4.2096 27.6382 4.2096C27.8546 4.2096 29.2109 5.29883 30.235 6.28534L30.3292 6.37654C30.946 6.97015 32.0165 8.2096 32.5813 8.95895L32.8004 9.25323C33.9069 10.747 34.6391 11.8314 34.8711 12.3273L34.8783 12.3429C35.3837 13.4265 35.5994 14.5768 35.6068 16.1946V17.2333L36.365 17.9383C37.8591 19.3261 39.0486 21.07 39.829 22.9995C40.2067 23.9423 40.4141 24.637 40.6176 25.6931L40.6318 25.7675C40.8845 27.0811 40.7655 30.324 40.4682 30.2053C40.4123 30.1843 40.3697 30.1244 40.3647 30.0619L40.3642 30.0494C40.3642 29.9685 40.2213 29.5456 40.0606 29.1112L39.9921 28.928C39.8192 28.4712 39.6458 28.0537 39.6209 28.068C39.592 28.0897 39.5492 28.6121 39.5264 29.2447L39.5243 29.3073C39.4796 30.5911 39.3383 31.4372 38.9518 32.7432C38.6953 33.5923 37.8094 35.4593 37.2362 36.3647L37.2124 36.4018C36.6549 37.2701 35.3094 38.8657 35.1385 38.8657C35.0726 38.8657 35.115 38.0862 35.2089 37.481L35.2183 37.4198C35.2611 37.1203 35.1548 37.2272 34.8496 37.8074L34.7892 37.9232C34.1772 39.1158 32.5515 41.3277 31.1855 42.8545L31.0472 43.0083C30.8647 43.2136 30.6934 43.4227 30.6457 43.5035L30.6315 43.5282C30.52 43.7196 30.4764 43.5967 30.4258 42.9545L30.4207 42.887C30.3972 42.5909 30.3573 42.3535 30.3365 42.3535C30.3156 42.3535 30.2164 42.4969 30.1182 42.6738L30.0658 42.7697C29.9423 42.9936 29.6824 43.4463 29.4593 43.8377C28.7384 45.114 28.1362 46.613 27.7348 48.1195C27.6829 48.2976 27.6084 48.4385 27.5565 48.4385C27.5044 48.4385 27.3558 48.2531 27.222 48.023L27.1751 47.9472C26.4106 46.7251 25.2853 45.7089 23.2561 44.3977L23.1931 44.3571C20.1676 42.4128 17.8633 40.1198 16.674 37.8637L16.3619 37.2701L16.3545 37.5669L16.3549 37.6016C16.3578 37.7192 16.3742 37.9074 16.3952 38.098L16.4023 38.1613C16.4108 38.235 16.4198 38.3077 16.4288 38.3757L16.4424 38.4657C16.4777 38.708 16.4933 38.9043 16.4733 38.9174C16.4368 38.954 15.971 38.4923 15.4973 37.9612L15.3984 37.849L15.3594 37.8047C15.3337 37.775 15.308 37.7453 15.2824 37.7155L15.1873 37.604C13.2592 35.2896 11.9942 31.9645 11.9691 29.1333L11.9684 28.9463C11.965 28.5561 11.9441 28.2536 11.9166 28.2536C11.8379 28.2607 11.4145 29.2519 11.2638 29.7758L11.2367 29.873C11.1002 30.3459 10.9855 30.3331 10.9132 29.8416L10.8908 29.6824C10.6121 27.6587 10.6882 26.3417 11.1882 24.4466C11.82 22.0199 13.2323 19.7121 15.1873 17.9013L15.9084 17.2333V16.2317C15.9158 14.1241 16.3246 12.588 17.224 11.304L17.3962 11.0626C18.2028 9.93267 18.8608 9.041 19.3487 8.42987L19.4243 8.33567C20.4725 7.02222 22.0706 5.53047 23.141 4.84787C23.4407 4.66546 23.5608 4.7341 23.5647 5.11011L23.5649 5.14956C23.5677 5.51264 23.6529 5.61173 23.7668 5.3801L23.7728 5.36731C23.8475 5.19753 24.2831 4.72053 24.7685 4.24574L24.8652 4.15169L24.9627 4.05844L25.0352 3.98996C25.3367 3.70625 25.636 3.44416 25.8617 3.27453ZM27.1327 25.0179C26.4562 24.8919 25.0514 24.8919 24.375 25.0254C23.1131 25.2818 21.6338 25.9865 20.8523 26.711L20.7912 26.7685C20.6543 26.8955 20.5299 26.9921 20.5022 26.9921C20.3758 26.9921 20.4577 27.2516 20.7029 27.6674C21.2233 28.5133 22.2713 29.3741 23.7059 30.1087C24.4741 30.5032 25.2494 31.2354 25.5289 31.8242L25.5608 31.8929C25.6575 32.0972 25.7436 32.2609 25.7577 32.2609C25.7799 32.2609 25.8617 32.105 25.9508 31.9047C26.2145 31.327 27.0194 30.5981 28.0171 30.0302L28.169 29.9446C29.0648 29.438 29.5732 29.0779 30.1326 28.5518L30.1656 28.5207C30.5372 28.172 31.1467 27.3111 31.1467 27.133C31.1467 26.9326 30.1357 26.1832 29.2958 25.7528C28.6022 25.3992 27.9996 25.1929 27.2016 25.0318L27.1327 25.0179ZM25.9956 16.7574H25.9152C25.8601 16.7576 25.8027 16.7579 25.7427 16.7584C25.6976 16.759 25.652 16.76 25.6062 16.7609L25.4705 16.7647C24.9896 16.7803 24.5203 16.8187 24.3453 16.8624C22.8288 17.2333 21.6247 18.4133 21.409 19.7417C21.3348 20.2093 21.3645 20.4912 21.5205 20.9217L21.6247 21.1888L21.1712 21.775C20.2866 22.9029 19.8629 24.1794 19.9447 25.4336C19.9819 25.9382 20.0785 26.3983 20.19 26.6061C20.1968 26.6197 20.4364 26.4512 20.7294 26.2219L20.807 26.1608C21.8254 25.352 23.1112 24.7658 24.3453 24.5283C25.8913 24.2388 27.7422 24.4688 29.1398 25.1219C29.6824 25.3742 30.686 26.0199 31.065 26.3686C31.236 26.517 31.3995 26.6209 31.4292 26.5913C31.5243 26.489 31.6554 25.7111 31.6597 25.1631L31.66 25.1368C31.667 24.0172 31.313 23.0782 30.4696 21.9497L30.3215 21.7528C29.9873 21.3037 29.9548 21.2075 30.0019 21.0255C30.0272 20.9182 30.0472 20.5966 30.0572 20.2654L30.0603 20.1487L30.0616 20.0905L30.0629 19.9223C30.0644 19.4161 30.0338 19.3088 29.829 18.8919L29.8162 18.866C29.3479 17.9087 28.4411 17.1963 27.326 16.8995L27.27 16.8849C26.9001 16.7906 26.597 16.7587 25.9956 16.7574ZM26.7462 19.0516C27.3856 18.5395 27.9355 18.4059 28.3964 18.6434C28.9539 18.9329 29.0729 20.0534 28.612 20.6396L28.5903 20.6664C28.514 20.7584 28.431 20.8325 28.4038 20.8325C28.3668 20.8325 28.3444 20.6546 28.3518 20.4319C28.3593 19.9271 28.1957 19.7195 27.8167 19.7195C27.4804 19.7195 26.7128 20.1428 26.221 20.6015L25.817 20.981L25.6982 20.8029C25.5717 20.6099 24.7467 20.046 24.2857 19.8383C23.6905 19.5667 23.2259 19.8538 23.2442 20.4845L23.245 20.5061C23.2526 20.6842 23.2302 20.8325 23.2005 20.8325C23.089 20.8325 22.8957 20.5654 22.7843 20.2464C22.5686 19.6303 22.6801 19.0961 23.1112 18.7325C23.2973 18.5766 23.4311 18.5321 23.6911 18.5321C24.0919 18.5321 24.3641 18.6535 24.8651 19.0566L24.8952 19.0812C25.542 19.6081 26.0474 19.6008 26.7462 19.0516ZM31.0576 12.0684L30.988 12.0479C30.6375 11.9464 30.4165 11.9242 29.9844 11.9451L29.8519 11.9524C29.2236 11.9906 28.9481 12.0728 27.7795 12.5582C27.2963 12.7585 26.947 12.8475 26.4117 12.907C25.3339 13.0257 24.6277 12.907 23.3566 12.395L23.1232 12.3008C22.392 12.0087 22.2336 11.9783 21.6607 11.9581L21.6321 11.9571C20.8887 11.9349 20.6211 11.972 20.1157 12.1946L20.0387 12.2304C19.7069 12.3865 19.6412 12.445 19.1493 12.9293C18.3912 13.6862 18.1012 14.4505 18.1533 15.5117L18.1579 15.5888C18.1883 16.0763 18.2427 16.2998 18.3912 16.6175C18.7718 17.4216 19.5638 18.1105 20.4826 18.436L20.7235 18.5185C21.3238 18.7223 21.3212 18.6879 21.6321 18.2426C21.7956 17.9978 22.0782 17.6712 22.2639 17.5155L22.2983 17.4875C22.4677 17.3479 22.5984 17.2092 22.5984 17.1814C22.5984 17.154 22.4902 17.1265 22.35 17.1226L22.316 17.1221C22.0409 17.1221 21.461 16.9439 21.1341 16.7658C21.0448 16.7139 20.8591 16.5137 20.7327 16.3207L20.7057 16.2822C20.5829 16.11 20.4491 15.9518 20.3963 15.9159L20.3908 15.9125C20.2521 15.8251 20.271 15.7591 20.5388 15.434L20.5815 15.3823C20.7145 15.2182 20.7982 15.08 20.7772 15.0591C20.7549 15.0293 20.6285 14.9774 20.5022 14.9329L20.4692 14.9219C20.1825 14.8221 20.1859 14.7267 20.4799 14.5692C20.807 14.3912 21.1341 14.4357 21.7807 14.7251C23.0977 15.3274 24.5383 15.5735 25.1442 15.3051L25.1628 15.2966C25.3637 15.2075 25.4825 15.0814 25.5644 14.881L25.5778 14.851C25.6968 14.5985 25.8691 14.5031 25.8691 14.7103C25.8691 14.7696 25.9805 14.9329 26.1219 15.0666C26.7046 15.6483 27.7657 15.5816 29.5851 14.8382L29.7987 14.75C30.6107 14.4184 30.875 14.3918 31.1395 14.5916C31.373 14.7664 31.3055 14.9629 31.0142 14.9698L30.9981 14.97C30.7156 14.97 30.7156 15.0888 30.9981 15.4153L31.0538 15.4826C31.2581 15.7335 31.2504 15.7795 31.065 15.9644C30.9832 16.0534 30.842 16.2391 30.7529 16.38C30.5001 16.7658 29.9574 17.0702 29.4296 17.1073L29.3659 17.1117C29.157 17.1273 28.9911 17.1532 28.9911 17.1666C28.9911 17.1814 29.1546 17.3522 29.3553 17.56C29.5634 17.7604 29.8311 18.0942 29.9649 18.3095L30.0018 18.3701C30.1847 18.6681 30.2235 18.6849 30.4332 18.6359C32.4551 18.2129 33.6815 16.6323 33.3842 14.8363C33.1538 13.4934 32.2618 12.4321 31.0576 12.0684ZM28.5582 15.9584L28.5451 15.9571C28.4411 15.9421 28.2774 16.0016 28.1809 16.0832C28.0842 16.1648 27.9653 16.2317 27.9059 16.2317C27.6457 16.2317 27.9355 16.5507 28.27 16.6323C28.5971 16.7139 28.7829 16.5656 28.7532 16.2464L28.7494 16.2088C28.7278 16.0174 28.6943 15.9735 28.5582 15.9584ZM23.1398 15.9421L23.1038 15.9273C22.9031 15.8383 22.7024 16.1129 22.7917 16.3652C22.8512 16.5359 22.9107 16.5656 23.1857 16.5878C23.3997 16.602 23.5384 16.5752 23.6346 16.4944L23.6687 16.4638C23.8451 16.3016 23.8129 16.2481 23.5126 16.1054L23.4262 16.0679L23.1854 15.9619C23.1687 15.9546 23.1535 15.948 23.1398 15.9421Z" fill="#4A86E8"/>
</svg>
