<svg width="51" height="51" viewBox="0 0 51 51" fill="none" xmlns="http://www.w3.org/2000/svg">
<path d="M11.8976 18.96C12.7243 19.4004 13.8421 19.8326 15.6467 20.4142L15.8306 20.4763C16.2994 20.6368 16.687 20.7845 16.718 20.8214C16.7626 20.8691 16.8179 21.3806 16.853 21.9777L16.8704 22.2695C16.9566 23.5981 17.1254 24.4776 17.3468 24.7937L17.3719 24.8265C17.6201 25.1383 18.1532 25.4718 19.2758 26.0304L19.5544 26.1688C20.2048 26.4951 20.3969 26.6326 20.3426 26.7326L20.3391 26.7383C19.7946 27.6505 19.4727 28.4869 19.2218 29.7104L19.1044 30.2977C18.9128 31.2699 18.981 31.1866 19.7687 30.669C20.5406 30.1423 21.6447 29.7104 22.8002 29.4658L22.8892 29.4474C23.25 29.3726 23.5528 29.2645 23.5528 29.2064C23.5528 29.1398 23.3431 28.8407 23.0987 28.5249L23.0463 28.4595C22.5611 27.8486 22.413 27.534 22.6216 27.6224L22.7191 27.6643C23.5981 28.0462 24.9952 28.7992 25.3411 29.0766L25.7651 29.4307L26.2889 29.0569C26.7664 28.7078 28.9786 27.5776 29.1767 27.5776C29.2844 27.5776 29.1128 27.8767 28.6708 28.4423L28.5596 28.5832C28.3107 28.898 28.1277 29.1813 28.1496 29.2279L28.1521 29.2312C28.1742 29.271 28.6217 29.4094 29.1492 29.552L29.2232 29.5719C30.4343 29.8961 31.3191 30.2783 32.0874 30.8102L32.658 31.1924L32.5766 30.7769L32.5438 30.5936C32.237 28.9049 31.8825 27.8292 31.354 26.9627L31.3127 26.8893C31.2065 26.698 31.1341 26.5462 31.1443 26.5388L31.1505 26.5376C31.1696 26.5324 31.2256 26.5103 31.3089 26.476L32.0526 26.1649C33.1704 25.6995 34.195 24.9847 34.3812 24.5443L34.3893 24.5216C34.4604 24.2957 34.5818 23.4221 34.6492 22.5335L34.6621 22.3915C34.7424 21.5313 34.85 20.8194 34.9053 20.7799C34.9434 20.7526 35.1165 20.6884 35.3588 20.6073L35.4208 20.5866C35.5685 20.5377 35.7376 20.4838 35.9154 20.4285L36.1845 20.3455C37.4463 19.9514 39.2904 19.2296 39.8965 18.8842L39.9236 18.8686C40.1682 18.7274 40.3894 18.6275 40.4126 18.6442C40.4639 18.6747 40.032 19.2337 39.49 19.8742L39.4335 19.9406C39.3767 20.0074 39.319 20.0749 39.2604 20.1426L39.1131 20.3119L38.9648 20.4804L38.8757 20.5805C38.5968 20.891 38.1468 21.2932 37.8536 21.5018L37.7101 21.6016C37.4777 21.7657 37.2922 21.9143 37.2922 21.9433C37.2922 21.9766 37.4435 22.1677 37.6298 22.3588L37.9386 22.6903C38.1084 22.8733 38.3003 23.0818 38.4565 23.2563C39.3182 24.1871 40.0518 24.7271 41.0646 25.176C42.3314 25.7297 43.1618 25.9083 44.5643 25.9154L44.7792 25.916C45.4304 25.9197 45.7775 25.9518 45.7338 25.9987C45.5757 26.1759 44.3774 26.4939 43.3283 26.6266L42.9737 26.6695C42.2004 26.7612 41.9828 26.7605 41.2496 26.6633L41.0066 26.6302C39.9823 26.4921 39.2253 26.2906 38.8002 26.0333L38.771 26.0153C38.4333 25.7993 38.3983 25.982 38.6894 26.3976C39.5977 27.644 41.0531 28.7992 42.3571 29.3311L42.5111 29.3942C42.788 29.51 42.9976 29.609 42.9976 29.6303C42.9976 29.6967 41.6352 29.5719 40.8434 29.4307L40.6883 29.4027C39.4365 29.1746 38.5774 28.9316 38.101 28.6736L38.0724 28.6578C37.8976 28.5581 37.7114 28.5 37.6647 28.5249C37.5937 28.5813 38.0527 29.2759 38.5808 29.9608L38.6348 30.0304C38.8513 30.3083 39.0765 30.5811 39.2795 30.8052L39.3299 30.8601C40.2031 31.824 42.0776 33.0955 43.2887 33.5525L43.7543 33.7271H43.3934C42.6132 33.7271 39.7723 33.0124 38.5498 32.5054C38.2059 32.3629 37.6721 32.0924 37.3304 31.8875L37.1497 31.7781C36.62 31.4628 36.4306 31.4119 36.5233 31.6012L36.5969 31.7415C36.9294 32.3845 36.9816 32.7293 36.9968 34.853L37.0064 36.5112C37.0212 38.185 37.0596 38.7023 37.1792 39.0985L37.1877 39.1263L37.207 39.185L37.2701 39.3634C37.5339 40.1301 37.3767 40.103 36.6454 39.25L36.5703 39.1619C35.4525 37.8406 34.9868 37.0759 34.2881 35.4057C34.16 35.1148 33.997 35.173 33.7526 35.6134L33.6996 35.7085C33.1546 36.6755 32.4174 37.6593 31.1045 39.1782L30.7801 39.5525C28.0325 42.7294 26.8609 44.3835 26.1493 46.0926L26.1193 46.1603C25.9169 46.6032 25.796 46.5415 25.4739 45.8598L25.4198 45.7454C25.3201 45.5387 25.2223 45.3547 25.1828 45.3196C25.1399 45.2735 25.0672 45.1638 25.0195 45.0557L25.0083 45.0287C24.7715 44.4736 23.7794 43.0944 22.6029 41.6553L22.5121 41.5444C22.4056 41.415 22.2979 41.2853 22.1892 41.1558L22.0889 41.0366L21.9374 40.8583L21.7853 40.681L21.6325 40.5047L21.5304 40.388C21.4624 40.3103 21.3943 40.2333 21.3263 40.157L21.224 40.0427C19.3728 37.9651 18.1734 36.3862 17.6961 35.3642C17.5494 35.0822 17.4026 35.2375 17.0228 36.0795L16.9859 36.1619C16.5419 37.1776 15.6414 38.5428 14.8071 39.4886L14.7039 39.6042C14.1817 40.1832 14.0152 40.192 14.2514 39.6437L14.2845 39.569C14.6339 38.788 14.727 37.6244 14.564 35.8295C14.4127 34.0429 14.5174 32.8877 14.89 31.982L14.9196 31.9028C14.9949 31.6953 15.0362 31.522 14.9949 31.4999C14.9611 31.4759 14.7541 31.5755 14.5203 31.7317L14.4941 31.7492C13.5159 32.414 12.0024 32.9707 9.94149 33.4362L9.48216 33.5375C8.26512 33.8021 7.97574 33.8322 7.89227 33.7353C7.85945 33.6886 7.88801 33.6492 7.96864 33.6445L7.98537 33.644C8.59618 33.644 11.3065 31.9338 12.1179 31.0368L12.1422 31.0097C12.3243 30.8077 12.5785 30.4872 12.8368 30.144L12.9597 29.9795L13.0935 29.7975C13.5174 29.2164 13.8886 28.6616 13.8886 28.5832L13.8883 28.5666C13.8839 28.4519 13.8213 28.4768 13.3646 28.6995C12.5496 29.09 10.6517 29.4972 9.11483 29.6135L8.35791 29.6634L9.56943 29.12C9.61819 29.0979 9.66504 29.0767 9.70859 29.0569C10.7565 28.5997 11.9792 27.5859 12.8291 26.4806L13.3182 25.8324L12.2935 26.198C10.4422 26.8629 8.66071 26.8961 6.70458 26.3227L6.4843 26.2559C5.40991 25.9245 5.52352 25.8677 6.90261 25.8988L7.05944 25.9026C8.46741 25.932 9.06986 25.8166 10.3265 25.2804L10.3956 25.2508C11.5836 24.7452 12.3347 24.1838 13.2422 23.1189L13.432 22.8961C13.776 22.4939 14.0845 22.1414 14.1564 22.068L14.1755 22.0453C14.2692 21.9287 14.2318 21.8739 13.9469 21.694C13.7607 21.5694 13.4113 21.2951 13.1784 21.0957L13.1317 21.0532C12.4605 20.4344 11.0943 18.7806 11.0943 18.5694C11.0943 18.5445 11.455 18.719 11.8976 18.96ZM25.7302 30.6523L25.7116 30.6551C25.6021 30.6742 25.2521 30.7765 24.8919 30.8932C22.9603 31.5334 21.6874 32.6512 21.0056 34.3031L20.9796 34.367C20.6302 35.2478 20.7001 35.3142 21.3289 34.6744C21.6316 34.3586 22.1207 33.9514 22.4 33.7603C22.7042 33.5629 23.2676 33.243 23.8479 32.9287L24.1573 32.7627L24.3612 32.6546C25.062 32.2856 25.68 31.982 25.7651 31.982C25.7917 31.982 25.8627 32.0077 25.9678 32.0536L26.0115 32.073C26.3106 32.2075 26.8341 32.4755 27.3935 32.7753L27.6073 32.8905L27.8108 33.0013C28.5567 33.4094 29.2843 33.8288 29.5609 34.0263C29.8287 34.2174 30.2014 34.5413 30.4107 34.7575L30.5202 34.8648C30.6821 35.0221 30.813 35.1397 30.8417 35.1397C31.0488 35.1397 30.2891 33.4756 29.8105 32.8833L29.7938 32.8628C29.3979 32.3807 28.4082 31.6162 27.8143 31.3254C27.5573 31.2056 27.0534 31.0172 26.653 30.892L26.6034 30.8767C26.1958 30.752 25.8001 30.6523 25.7302 30.6523ZM33.6538 21.3753C32.898 22.9526 31.9176 23.5717 29.8111 23.7933L29.5814 23.8163C28.8855 23.8884 28.5095 23.9608 28.4537 24.041L28.4369 24.0667C28.3688 24.1767 28.1785 24.5212 27.998 24.8792C27.8815 25.1081 27.6234 25.4878 27.3359 25.8756L27.2799 25.9509L27.2284 26.0192L27.1246 26.1554L27.0481 26.2542C26.6405 26.7768 26.2468 27.2263 26.1633 27.2263C26.1282 27.2263 26.1398 26.9748 26.1867 26.6562C26.3268 25.6756 26.9345 24.0997 27.5304 23.1525L27.846 22.6411L28.5939 22.4986L28.7001 22.4768C29.6139 22.284 31.2436 21.8237 32.448 21.4081L32.8963 21.2538C33.8354 20.9346 33.8559 20.971 33.6538 21.3753ZM17.773 20.9395C17.8023 20.9395 18.2028 21.0696 18.7251 21.2454L19.1636 21.3936C19.6026 21.5395 20.2757 21.7428 20.9633 21.9419L21.5798 22.118C22.5281 22.3856 23.3753 22.6083 23.5156 22.6157L23.5224 22.616C23.8989 22.616 24.4426 23.5031 25.099 25.176L25.1748 25.3712C25.6268 26.5578 25.6516 27.6142 25.2051 26.9077C25.1413 26.8101 24.9648 26.6007 24.7738 26.39L24.7189 26.3301L24.6638 26.2706L24.6091 26.212C23.9896 25.5582 23.604 24.9882 23.3704 24.3847L23.1716 23.8733H22.6692C21.3838 23.8733 20.0166 23.4961 19.222 22.9177C18.7663 22.5907 17.995 21.6437 17.7845 21.1238C17.7378 21.0232 17.7263 20.9395 17.773 20.9395ZM26.0196 12.0431L26.0429 12.2081L26.0898 12.5944C26.2722 14.0705 26.3977 14.7463 26.6119 15.4856L26.635 15.5613C26.9278 16.5126 27.6043 18.0809 27.7853 18.1934C27.8842 18.2591 28.575 18.4312 29.3237 18.5904L29.5692 18.6417L29.7799 18.6843C30.1528 18.7583 30.5133 18.8233 30.7959 18.8644L30.8982 18.8787C32.7217 19.1345 33.9415 19.209 35.5096 19.1594L35.9976 19.1395C36.6725 19.1107 37.2827 19.0786 37.461 19.052L37.5273 19.0439C38.2029 18.9663 37.5932 19.1864 35.4864 19.795L34.3688 20.1166C29.6328 21.4819 27.6936 22.0875 27.4018 22.2718C27.094 22.4662 26.439 23.5124 26.2063 24.1675L26.1939 24.2035C26.1127 24.443 25.9965 24.6247 25.9383 24.6163C25.8709 24.6005 25.7168 24.3454 25.5808 24.0449L25.5666 24.0137C25.195 23.1881 24.8 22.5606 24.5212 22.3296L24.4953 22.3096C24.2523 22.1284 23.7933 21.9624 22.1256 21.4704L19.0714 20.5788C18.7289 20.4792 18.4415 20.3965 18.1925 20.3253L17.7927 20.2117C17.5142 20.1335 17.2862 20.0708 17.0691 20.0128L16.717 19.9201L16.5116 19.8668L16.4283 19.845L16.303 19.8114L16.2192 19.7887C16.1215 19.762 16.0239 19.7346 15.927 19.707L15.844 19.6831L15.6579 19.6287C15.3812 19.547 15.1178 19.4646 14.8879 19.3885L14.7555 19.3442C14.2913 19.1866 13.9996 19.064 14.0789 19.0438C14.1419 19.0289 14.4512 19.0476 14.7759 19.0818L14.8803 19.0933C16.5531 19.3161 19.7009 19.1511 21.6639 18.7384L22.7473 18.509C24.1518 18.2095 24.0523 18.1977 24.2358 17.8274L24.3699 17.5601C25.2601 15.7743 25.5246 14.9499 25.7122 13.4015L25.7392 13.1755C25.7946 12.7318 25.8675 12.3187 25.9219 12.2165L26.0196 12.0431ZM25.6131 16.0057L25.5877 16.0607C25.319 16.628 24.3751 18.219 23.8841 18.9177L23.7438 19.1154C23.2321 19.8468 23.2977 19.9684 24.244 21.1646L24.2773 21.2068C24.5223 21.5075 24.9057 22.0508 25.1418 22.4225L25.2691 22.6251C25.6417 23.2116 25.8124 23.3945 25.9732 23.3945C26.0196 23.3945 26.2637 23.1056 26.4958 22.7506L26.5556 22.6584L26.6519 22.5134L26.7869 22.3141C26.8953 22.1554 27.0182 21.9777 27.1449 21.7952L27.6575 21.0583L27.7313 20.9524C28.104 20.4142 28.4008 19.9206 28.4008 19.8198C28.4008 19.7208 28.2034 19.341 27.9478 18.9778L27.885 18.8876C27.6377 18.5302 27.3308 18.0541 27.1812 17.7806L26.8579 17.2319C26.798 17.131 26.7478 17.0472 26.7167 16.9963C26.6487 16.8939 26.5311 16.6633 26.4139 16.4211L26.3768 16.3444C26.3462 16.2802 26.3158 16.2162 26.2869 16.1543L26.231 16.0296C25.9426 15.396 25.8757 15.4223 25.6131 16.0057ZM25.7614 17.2623L25.9319 17.4258C26.0227 17.5157 26.1252 17.679 26.1592 17.7936C26.1933 17.908 26.4207 18.3411 26.6708 18.758L26.7113 18.8298C26.9322 19.2262 27.1142 19.6405 27.1142 19.7715C27.1142 19.9025 26.9095 20.352 26.6708 20.7607L26.6238 20.8394L26.5768 20.9189L26.4418 21.1515C26.2758 21.4408 26.1313 21.7044 26.0682 21.8232L25.9091 22.1257L25.0501 20.8811C24.6755 20.3331 24.3858 19.8558 24.3858 19.7879C24.3858 19.7226 24.5223 19.4528 24.6815 19.1995L24.7347 19.1149C25.005 18.6805 25.4479 17.8922 25.6818 17.4258L25.7614 17.2623ZM11.7501 4.86421L11.5958 5.08228C10.3704 6.82855 10.0355 7.71738 9.94087 9.33916L9.92793 9.57884C9.88643 10.4216 9.9213 10.7126 10.0886 11.2308L10.1237 11.3376C10.4318 12.2771 10.8182 12.8164 11.5895 13.3712L11.6382 13.4057C12.6053 14.098 14.1081 14.5901 16.5081 14.9903L16.881 15.0572L17.4867 14.1647C18.2474 13.0595 18.9857 12.2633 19.8746 11.6292L19.9451 11.5795C21.0752 10.7787 22.5547 10.145 23.8247 9.9031L23.9289 9.88353C24.2156 9.82736 24.4729 9.75778 24.5353 9.72795C24.6867 9.64448 24.8499 9.14413 25.1645 7.81805L25.2054 7.64559C25.524 6.31604 25.6393 6.23052 25.5722 7.35936C25.5609 7.51588 25.5486 7.66799 25.5341 7.82358L25.5188 7.98326L25.4973 8.18555C25.4277 8.81703 25.3146 9.58326 25.0934 10.9123L24.9897 11.5293C24.5237 14.2815 23.6849 17.3421 23.3354 17.5758C23.2409 17.6386 22.2291 17.8474 21.1663 18.0394L20.8909 18.0885L20.6165 18.1363C20.0346 18.2362 19.4828 18.3227 19.1061 18.3681L18.987 18.3807C18.3634 18.4449 17.3469 18.5202 16.6479 18.5515C11.7547 18.735 8.36453 17.2921 6.90813 14.3982L6.85701 14.2932C6.62411 13.8062 6.59349 13.5937 6.59349 12.4468L6.59286 12.308C6.59049 10.8822 6.7344 10.397 7.50236 9.14413C8.17802 8.05995 9.05187 7.04251 10.182 6.05001L10.7118 5.58389C11.0216 5.30981 11.271 5.0867 11.3469 5.01601C11.5516 4.83691 11.8337 4.73735 11.7501 4.86421ZM39.949 4.81577C40.0073 4.81577 40.2752 5.00764 40.5548 5.24117L40.7146 5.37624C42.9546 7.28235 44.1813 8.83391 44.8073 10.5369C45.0985 11.3292 45.0985 13.2224 44.8073 13.9896C44.4112 15.0405 43.7587 15.8662 42.7219 16.6166C41.0908 17.7843 39.5063 18.3097 37.013 18.5014C35.4287 18.6266 33.0287 18.5098 31.3392 18.2346L30.3288 18.0647C29.8345 17.9801 29.4474 17.9111 29.1475 17.8531L28.9845 17.8207L28.8401 17.7907C28.7497 17.7715 28.671 17.7537 28.6025 17.7368L28.5651 17.7273L28.5005 17.7103C28.3484 17.6686 28.2648 17.6337 28.2285 17.6008C27.8372 17.2486 27.0162 13.914 26.4564 10.4604L26.4218 10.2444L26.3879 10.0282L26.3745 9.93734C26.3229 9.5749 26.271 9.0545 26.2279 8.52212L26.2051 8.23083L26.1826 7.91352C26.1228 7.02768 26.0985 6.26918 26.1548 6.35865C26.1644 6.37585 26.2017 6.5136 26.2561 6.73088L26.3161 6.9734C26.3558 7.13671 26.4007 7.32496 26.4482 7.52835L26.5933 8.16014C26.7819 8.96882 26.9722 9.63801 27.0053 9.66957C27.0519 9.70302 27.5063 9.82799 28.0188 9.94492L28.1851 9.98594C29.6827 10.3613 30.4606 10.708 31.6073 11.5126C32.6907 12.2801 33.3315 13.0054 34.4267 14.6902L34.469 14.7519C34.6419 14.9997 34.6922 15.0042 35.114 14.9653C36.5471 14.8235 38.8538 14.0814 39.7859 13.4725L39.8828 13.4084C40.6069 12.9234 40.9174 12.5846 41.2767 11.8597L41.3504 11.7079C41.5907 11.2058 41.6317 11.0106 41.6376 10.0667L41.6384 9.73632C41.65 7.89316 41.3005 6.77569 40.2986 5.41632L40.2394 5.33616C40.03 5.04709 39.9063 4.81577 39.949 4.81577Z" fill="#FF0000"/>
</svg>
