<svg width="51" height="51" viewBox="0 0 51 51" fill="none" xmlns="http://www.w3.org/2000/svg">
<path d="M13.2135 3.97112C11.5062 4.38674 10.206 5.56322 9.68923 7.16322C9.54043 7.61813 9.52481 8.72409 9.65009 9.28882C9.77538 9.85356 10.1748 10.5516 10.6761 11.0928L11.1224 11.5634L10.9344 11.8378C10.8247 11.9869 10.4567 12.6771 10.1042 13.3672C8.80433 15.9399 8.10721 17.0457 6.54098 19.0614C6.04757 19.689 5.65609 20.2537 5.65609 20.3242C5.65609 20.4262 5.85964 20.3948 6.21199 20.2302C6.40008 20.1439 6.59574 20.0732 6.64276 20.0732C6.68978 20.0732 6.58012 20.3792 6.39219 20.7556C5.42887 22.7321 5.15479 24.5047 5.49941 26.5047C5.74225 27.9007 5.74998 27.9086 5.84402 27.9949C5.91455 28.0498 5.98493 27.9007 6.126 27.4225C6.29042 26.8419 6.60363 26.0812 6.7368 25.94C6.76804 25.9086 6.79155 26.4733 6.79944 27.1949C6.79944 28.2772 6.83069 28.6225 6.97175 29.1556C7.15195 29.8539 7.63748 31.0067 7.98209 31.5479C8.2325 31.9479 9.09404 33.046 9.18019 33.0774C9.21159 33.093 9.21933 32.4733 9.19581 31.7126C9.1723 30.7949 9.18019 30.34 9.2351 30.3714C9.28197 30.4028 9.39163 30.6381 9.48552 30.8969C10.0495 32.4342 11.2007 34.1049 12.6809 35.5323C13.4091 36.2303 14.9755 37.4852 15.1164 37.4852C15.1556 37.4852 15.14 37.1559 15.0852 36.7637C15.0303 36.3637 14.999 36.0265 15.0145 36.0107C15.0303 35.9951 15.1242 36.0735 15.2259 36.1912C15.4688 36.4812 16.9882 37.7519 17.7557 38.3089C19.972 39.9166 21.0918 40.8421 22.298 42.0658C23.8954 43.6735 24.5926 44.7952 24.9919 46.4265C25.1016 46.8972 25.219 47.3049 25.2504 47.3286C25.2737 47.3598 25.3365 47.1717 25.3913 46.9207C25.8142 44.701 27.1455 42.7951 29.7769 40.6147C30.5679 39.9559 30.8968 39.697 31.8052 39.0226C33.8883 37.4617 34.4523 37.0224 34.9457 36.5519C35.2668 36.2461 35.5565 35.9951 35.58 35.9951C35.6035 35.9951 35.5721 36.3167 35.5095 36.7009C35.4468 37.0931 35.4077 37.4303 35.4312 37.4538C35.4939 37.5088 36.4258 36.85 37.1775 36.2303C37.7337 35.7675 38.6186 34.8498 39.1903 34.1519C39.9656 33.2028 41.1246 31.1165 41.2266 30.4735C41.2422 30.387 41.289 30.3244 41.3283 30.3321C41.3752 30.3479 41.3987 30.8577 41.3831 31.744L41.3596 33.1323L41.6807 32.7793C42.4013 31.9872 43.2236 30.497 43.5054 29.4851C43.7638 28.5361 43.8108 28.0733 43.7794 26.9909C43.7638 26.3556 43.7795 25.9086 43.8265 25.9321C43.9205 25.9949 44.2885 26.8419 44.4531 27.3674C44.688 28.1047 44.6566 28.0498 44.7349 27.9165C44.7742 27.846 44.8759 27.4225 44.9698 26.9753C45.1814 25.893 45.2049 24.2381 45.0091 23.289C44.8131 22.3086 44.2885 20.9281 43.8735 20.2537C43.7012 19.987 43.8187 19.9635 44.2572 20.1832C44.6252 20.3713 44.8916 20.4419 44.8916 20.3477C44.8916 20.2614 44.6096 19.8616 43.7168 18.6614C43.2157 17.9948 42.5813 17.0928 42.2994 16.6614C41.8138 15.9242 41.6494 15.6341 40.8193 14.073C40.6312 13.7281 40.3885 13.2653 40.271 13.0536C40.1536 12.8339 39.9264 12.4104 39.7698 12.0967L39.4722 11.5399L39.8011 11.1948C40.2475 10.7476 40.5451 10.2927 40.7409 9.80638C41.6259 7.55549 40.3806 5.022 37.9529 4.13585C37.3029 3.89269 35.7601 3.84552 35.0789 4.03376C34.46 4.20638 33.9197 4.48094 33.403 4.87305L32.9878 5.18674L32.3847 5.022C30.3407 4.48094 27.8659 4.47305 25.7986 5.022C25.2581 5.16323 25.2034 5.16323 24.7805 5.04567C23.7702 4.7476 23.3395 4.69269 21.9062 4.64567C20.6298 4.61427 20.2773 4.62989 19.4237 4.77112C18.8755 4.85743 18.2803 4.99076 18.0924 5.0534C17.6381 5.21025 17.5833 5.20252 17.3093 4.97498C16.9176 4.64567 16.0719 4.21427 15.5314 4.06516C15.038 3.9241 13.6285 3.86918 13.2135 3.97112ZM19.9093 9.25742C20.3399 9.39076 20.8334 9.62602 21.5147 10.0181C22.3136 10.4732 22.7833 10.5908 23.3159 10.4653C23.8721 10.3397 24.1383 10.1751 24.7179 9.6418C24.9919 9.38287 25.2425 9.17111 25.2816 9.17111C25.313 9.17111 25.5245 9.35936 25.7436 9.59478C25.9709 9.82989 26.3388 10.1201 26.5738 10.2378C26.934 10.426 27.0907 10.4653 27.6233 10.4653C28.2498 10.4653 28.2498 10.4653 29.1268 9.97111C30.2781 9.32022 30.701 9.17111 31.4606 9.12409C31.9775 9.09269 32.1733 9.1162 32.5883 9.26531C32.8704 9.36725 33.1052 9.4848 33.1287 9.53971C33.1601 9.6418 33.1052 9.66531 31.6095 10.3006C29.9649 10.9908 27.5919 12.1829 27.5919 12.3085C27.5919 12.4967 28.007 12.779 28.8214 13.132C30.3877 13.8144 30.5601 13.9634 30.9124 14.9909C31.03 15.3439 31.2023 15.7595 31.304 15.9164C31.539 16.285 32.2124 16.8967 32.9878 17.4458C33.9432 18.1204 34.3191 18.6537 34.3191 19.3281C34.3191 19.8144 34.1468 20.1518 33.7083 20.5439C32.8232 21.3202 32.698 21.4772 32.4004 22.1674C31.9227 23.3125 31.586 23.94 31.2884 24.2458C30.513 25.046 29.5732 25.0616 27.0516 24.3163C26.5582 24.1674 26.1039 23.8458 25.8924 23.4772C25.7124 23.1793 25.6889 23.0379 25.6889 22.5204C25.6966 21.1948 26.3467 20.2223 27.96 19.1477C29.1268 18.3713 29.5264 17.8223 29.6046 16.889C29.6829 15.9007 29.1739 15.0928 28.2419 14.7399C27.8112 14.583 27.7015 14.5672 26.7226 14.6222C25.3522 14.6928 24.984 14.6928 23.9425 14.6222C22.9635 14.5595 22.431 14.6536 21.8202 15.0144C21.1388 15.4144 20.7474 16.3399 20.9274 17.1085C21.1467 18.042 21.4678 18.4341 22.6816 19.242C23.7075 19.9242 24.1069 20.3399 24.5141 21.1713C24.7805 21.7204 24.804 21.8067 24.804 22.5046C24.804 23.1163 24.7726 23.289 24.6473 23.4851C24.3418 23.9556 24.0128 24.1597 23.2064 24.4028C21.4991 24.8969 20.4966 24.9832 19.8858 24.7009C19.6979 24.6144 19.4001 24.3949 19.2201 24.2067C18.9069 23.8851 18.3038 22.7713 18.108 22.1518C17.9513 21.6576 17.7009 21.3281 17.0743 20.7635C16.3538 20.1125 16.1971 19.83 16.2442 19.2027C16.2912 18.5672 16.5497 18.23 17.599 17.4302C18.9929 16.3713 19.2905 16.0183 19.5961 15.0928C19.9485 14.0339 20.3399 13.6732 21.6793 13.1634C22.3605 12.9046 22.8853 12.5358 22.8853 12.3242C22.8853 12.23 22.3605 11.932 21.0918 11.3044C20.1052 10.8262 19.2515 10.426 19.2043 10.426C19.0948 10.426 17.5833 9.73584 17.4188 9.6104C17.3328 9.54776 17.3563 9.50831 17.5128 9.42989C18.1315 9.10847 19.2043 9.03005 19.9093 9.25742ZM18.2959 12.5358C18.4917 12.7476 18.4291 13.085 18.1627 13.2811C17.9592 13.43 17.928 13.43 17.7321 13.3202C17.466 13.1711 17.3875 12.6536 17.6069 12.4888C17.8106 12.3399 18.1392 12.3634 18.2959 12.5358ZM33.027 12.6144C33.1131 12.779 33.1208 12.9046 33.074 13.0379C32.8859 13.5242 32.1263 13.3594 32.1263 12.8418C32.1263 12.6222 32.4162 12.3869 32.6746 12.3869C32.8547 12.3869 32.9329 12.4418 33.027 12.6144ZM19.1183 25.5086C19.9327 26.3714 20.8334 26.4498 22.8618 25.8379C24.3811 25.3753 25.9238 25.3361 27.2395 25.7283C28.6727 26.1595 29.26 26.2772 29.7926 26.2381C30.6618 26.1753 31.3902 25.7361 31.8678 24.9753C31.9854 24.7791 32.1186 24.6223 32.1575 24.6223C32.2595 24.6223 32.1421 25.2105 31.8836 25.9949C31.0377 28.5674 29.6673 29.9558 27.3727 30.5911C26.9028 30.7244 26.4643 30.7714 25.4696 30.7949C24.2636 30.8342 24.1225 30.8186 23.3552 30.6302C20.9588 30.0263 19.5412 28.6774 18.719 26.246C18.437 25.3911 18.2647 24.693 18.3194 24.5988C18.3352 24.5674 18.4603 24.693 18.5935 24.8733C18.7267 25.0616 18.9616 25.3439 19.1183 25.5086Z" fill="#D9D900"/>
</svg>
