<svg width="51" height="51" viewBox="0 0 51 51" fill="none" xmlns="http://www.w3.org/2000/svg">
<path d="M31.0832 28.3304C31.4511 29.0452 32.3018 34.5556 32.3018 36.1002C32.2788 37.8525 31.8879 39.7892 31.543 39.7892C31.4512 39.7892 31.2212 39.5124 31.0603 39.1435L30.9842 38.9974C30.7968 38.6424 30.7455 38.61 30.6764 39.0857L30.6704 39.128L30.6647 39.1687C30.6461 39.3082 30.6256 39.4831 30.6005 39.697L30.5891 39.7753C30.3999 41.0476 29.9958 41.9298 29.658 41.7489C29.5457 41.6588 29.4552 41.4149 29.4511 41.1672L29.451 41.1495C29.451 40.3425 29.1291 40.6884 28.3706 42.2793C27.6578 43.801 25.5887 46.9136 25.2669 46.9365C25.2618 46.9365 25.2563 46.9355 25.25 46.9336C25.2437 46.9355 25.2381 46.9365 25.2331 46.9365C24.9112 46.9136 22.8421 43.801 22.1293 42.2793L22.0845 42.1852C21.3655 40.6905 21.0553 40.3653 21.049 41.1255V41.1495C21.049 41.4031 20.957 41.6566 20.8419 41.7489C20.4972 41.9334 20.0834 41.0111 19.8994 39.697L19.8617 39.3789C19.8502 39.2844 19.8396 39.2008 19.8295 39.128L19.8235 39.0857C19.7459 38.5512 19.6907 38.658 19.4396 39.1435C19.2787 39.5124 19.0488 39.7892 18.957 39.7892C18.612 39.7892 18.2212 37.8525 18.1981 36.1002C18.1981 34.5556 19.0488 29.0452 19.4168 28.3304C19.5086 28.169 20.1293 28.7454 21.0259 29.829C21.1466 29.9743 21.2735 30.1221 21.4038 30.2697L21.4561 30.3287L21.5272 30.4084L21.5987 30.4876L21.67 30.5658L21.7415 30.6438C22.3861 31.342 23.0515 31.977 23.4169 32.2269C24.0246 32.6476 24.6276 32.8652 25.2413 32.874H25.2586C25.8616 32.8653 26.4542 32.6551 27.0512 32.2488L27.083 32.2269C27.48 31.9555 28.2311 31.2293 28.9249 30.4614L28.9727 30.4084L29.0439 30.3287L29.0961 30.2697C29.2264 30.1221 29.3533 29.9743 29.474 29.829L29.5539 29.7329C30.4074 28.7115 30.994 28.1737 31.0832 28.3304ZM26.2095 29.4626C25.332 29.9664 25.4706 30.1955 26.8099 30.539C28.1031 30.8596 28.2647 31.3863 26.9947 31.1116C26.4223 30.9933 25.844 30.93 25.25 30.928C24.6559 30.93 24.0776 30.9933 23.5053 31.1116C22.2352 31.3863 22.3968 30.8596 23.69 30.539L23.7689 30.5185C25.0344 30.1862 25.1504 29.9564 24.2904 29.4626C23.1245 28.8278 23.5201 28.1748 25.1864 28.3131L25.2265 28.3165V28.3157L25.25 28.3168L25.2735 28.3157V28.3165L25.3136 28.3131C26.9798 28.1748 27.3754 28.8278 26.2095 29.4626ZM33.8103 3.31348C34.2014 3.31348 35.1682 5.20633 35.6055 6.82211L35.6244 6.89738C35.9285 8.11016 35.9466 8.56949 35.7435 9.36128L35.7181 9.46416C35.5946 9.97398 35.5177 10.4027 35.5824 10.4461C35.6285 10.4923 36.0657 10.4231 36.549 10.2845C38.3673 9.73051 39.9092 7.99923 40.9909 5.32168L41.0081 5.27766C41.2803 4.58164 41.5917 4.00602 41.7042 4.00602C42.2967 4.00602 41.6034 7.71631 40.7185 9.20144L40.6917 9.24578C40.4424 9.65493 40.3046 10.0865 40.3884 10.2318L40.3925 10.2383C40.5995 10.5846 41.2672 10.169 41.6583 9.45359L41.6817 9.40878C42.0613 8.69209 42.3488 8.70708 42.3488 9.45359C42.3488 10.4231 41.2439 11.3001 39.3337 11.8542L39.0368 11.9401C35.8925 12.8527 34.5827 13.3264 33.5111 13.9085C32.2683 14.5548 30.4501 16.2399 29.9668 17.2093L29.9403 17.257C29.6946 17.7021 29.7033 17.8457 30.1066 18.2528L30.1347 18.2809L30.1762 18.3219C30.1977 18.3427 30.2199 18.3642 30.2431 18.3864C30.5652 18.7098 30.8414 19.1945 30.8414 19.4714C30.8414 20.1408 31.1865 20.0484 31.785 19.1713C32.7976 17.6941 34.5008 16.7015 37.2395 15.986C39.0806 15.5243 42.3488 15.3857 42.3488 15.7782C42.3488 16.4245 40.8987 19.102 40.0242 20.0485C38.5743 21.6182 37.5846 22.0568 34.8919 22.2645C31.8081 22.5184 31.5089 22.7492 31.1637 25.0806L31.1524 25.1655C30.971 26.5349 30.7581 27.1096 30.059 28.1275L29.966 28.2608C28.9893 29.6587 28.8107 29.7728 28.6321 29.2355C28.1718 27.7583 27.6424 26.9734 26.5147 26.05L26.4629 26.0071C25.99 25.6174 25.5335 25.3183 25.25 25.2068C24.9562 25.3223 24.4766 25.6394 23.9853 26.05C22.8575 26.9734 22.3282 27.7583 21.8679 29.2355L21.8568 29.2678C21.6762 29.7833 21.4786 29.6205 20.441 28.1275L20.3988 28.0658C19.7192 27.0652 19.5168 26.4832 19.3363 25.0806C18.991 22.7492 18.6919 22.5184 15.608 22.2645C12.9153 22.0568 11.9256 21.6182 10.4757 20.0485C9.60107 19.102 8.15112 16.4245 8.15112 15.7782C8.15112 15.3857 11.4193 15.5243 13.2604 15.986C15.9992 16.7015 17.7024 17.6941 18.7149 19.1713C19.3134 20.0484 19.6585 20.1408 19.6585 19.4714C19.6585 19.1945 19.9348 18.7098 20.2568 18.3864L20.3237 18.3219C20.3379 18.3079 20.3517 18.2943 20.3651 18.2809L20.3933 18.2528L20.4342 18.211C20.81 17.8217 20.7962 17.6762 20.5331 17.2093C20.0498 16.2399 18.2316 14.5548 16.9888 13.9085L16.9222 13.8727C15.8289 13.2887 14.459 12.8041 11.1662 11.8542C9.25582 11.3001 8.15112 10.4231 8.15112 9.45359C8.15112 8.69177 8.45047 8.69177 8.84163 9.45359C9.22901 10.1619 9.88698 10.5763 10.1011 10.2484L10.1074 10.2383C10.1996 10.0997 10.0613 9.66124 9.80825 9.24578C8.91074 7.79158 8.19721 4.00602 8.79556 4.00602C8.91074 4.00602 9.23279 4.6061 9.50908 5.32168C10.5907 7.99923 12.1327 9.73051 13.9509 10.2845L13.9922 10.2962C14.4588 10.4268 14.8727 10.4909 14.9175 10.4461C14.9857 10.4005 14.8968 9.92728 14.7616 9.38195L14.7384 9.28933C14.551 8.52483 14.5819 8.05351 14.8945 6.82211C15.3317 5.20633 16.2985 3.31348 16.6895 3.31348C16.8508 3.31348 16.8968 3.7059 16.8047 4.39845L16.7955 4.46203C16.7395 4.86472 16.6758 5.52176 16.6196 6.21335L16.6073 6.36736L16.5951 6.522L16.5863 6.63797L16.5682 6.88633C16.5538 7.08515 16.5404 7.28081 16.5286 7.46842C16.3905 10.0537 16.8047 10.8155 19.2443 12.4311L19.4442 12.5632C21.5441 13.9522 21.8998 14.3031 22.9267 15.8705L23.8242 17.2554L25.25 17.2775L26.6758 17.2554L27.5733 15.8705L27.6667 15.7285C28.6545 14.2343 29.0455 13.8866 31.2556 12.4311C33.6952 10.8155 34.1096 10.0537 33.9714 7.46842L33.9608 7.30574C33.948 7.11402 33.9341 6.91536 33.9193 6.71529L33.9048 6.522L33.8926 6.36736L33.8803 6.21335C33.8212 5.48404 33.7536 4.79308 33.6953 4.39845L33.6863 4.32855C33.6066 3.67955 33.6547 3.31348 33.8103 3.31348ZM29.4605 21.0411C28.8852 21.318 28.586 21.6873 28.3558 22.3337C27.9646 23.5108 28.3329 23.8802 28.9773 22.9799C29.2304 22.6107 29.7137 22.2182 30.0359 22.1491C30.6343 21.9875 31.1865 21.2257 30.9565 20.8565C30.7493 20.5332 30.3812 20.5794 29.4605 21.0411ZM21.0395 21.0411L20.9849 21.014C20.1041 20.5777 19.7464 20.5396 19.5435 20.8565C19.3134 21.2257 19.8657 21.9875 20.464 22.1491C20.7862 22.2182 21.2695 22.6107 21.5226 22.9799C22.1671 23.8802 22.5353 23.5108 22.1442 22.3337L22.1244 22.2798C21.8969 21.6668 21.5985 21.3101 21.0395 21.0411Z" fill="url(#paint0_radial_404_309)"/>
<defs>
<radialGradient id="paint0_radial_404_309" cx="0" cy="0" r="1" gradientUnits="userSpaceOnUse" gradientTransform="translate(25.0525 28.9503) scale(17.0988 21.8115)">
<stop offset="0.0125" stop-color="#1606A8"/>
<stop offset="0.970833" stop-color="#6572F9" stop-opacity="0.76"/>
</radialGradient>
</defs>
</svg>
