<svg width="51" height="51" viewBox="0 0 51 51" fill="none" xmlns="http://www.w3.org/2000/svg">
<path d="M10.7647 4.88672H11.0184L11.1524 4.88734C11.4858 4.88955 11.8036 4.89682 12.0564 4.90976L12.1439 4.91464C13.8223 5.02241 15.4198 5.47117 17.2327 6.35969L18.3277 6.89823L18.8033 6.75448C20.6862 6.16624 23.0272 5.83693 25.1397 5.84103L25.2499 5.84151L25.3603 5.84103C27.4727 5.83693 29.8138 6.16624 31.6967 6.75448L32.1723 6.89823L33.2672 6.35969C35.0802 5.47117 36.6777 5.02241 38.3561 4.91464L38.4435 4.90976C38.7299 4.89508 39.1001 4.88767 39.4815 4.88672H39.7352L40.0555 4.89034L40.2774 4.89429C40.8218 4.90628 41.2753 4.93184 41.3895 4.96861C41.7217 5.06723 41.3177 9.11488 40.8241 10.6227C40.6209 11.2236 39.8521 12.8078 39.5287 13.2933L39.5138 13.3153C39.1997 13.773 39.1907 13.9794 39.4419 14.2128L39.4537 14.2232L39.4766 14.2448C39.6052 14.3709 39.952 14.7568 40.3317 15.19L40.4357 15.3091L40.5273 15.4144L40.6714 15.5804L40.8647 15.8047L41.0395 16.0092C41.1972 16.1948 41.3376 16.3624 41.4435 16.4924L41.478 16.5369L41.5219 16.5956C41.6371 16.7516 41.807 16.9962 41.9841 17.2581L42.0701 17.3858L42.1695 17.5348L42.3405 17.7942C42.572 18.1489 42.7538 18.442 42.7538 18.4758C42.7538 18.5834 42.5384 18.5746 42.26 18.4488C41.9908 18.3322 41.8652 18.413 41.9998 18.6284C42.3604 19.2086 42.9532 20.4004 43.2642 21.1744L43.2831 21.2222C44.0102 23.053 44.2705 24.4889 44.2794 26.661L44.2787 27.0473L44.2768 27.2665C44.2684 27.9534 44.237 28.0895 44.1358 28.1328C44.0461 28.1687 43.9563 28.1328 43.9025 28.043C43.7499 27.7648 43.5975 27.8816 43.4807 28.3573C43.1102 29.8743 42.2717 31.9721 41.442 33.4412L41.3985 33.5179C41.0761 34.0842 39.967 35.657 39.369 36.3889L39.3163 36.4526C38.999 36.8373 38.536 37.3435 38.0639 37.8352L37.9339 37.9701L37.7693 38.1391L37.5694 38.3417C36.9007 39.015 36.3129 39.5579 36.22 39.5579C36.1777 39.5579 36.1196 39.4865 36.0904 39.3956L36.0803 39.3612C36.0511 39.2704 35.9929 39.1988 35.9508 39.1988C35.7622 39.1988 28.1195 45.3635 25.8757 45.3635C23.6319 45.3635 14.7339 39.1988 14.5491 39.1988C14.507 39.1988 14.4488 39.2704 14.4197 39.3612L14.4095 39.3956C14.3803 39.4865 14.3222 39.5579 14.2799 39.5579C14.178 39.5579 13.4785 38.9026 12.7307 38.1391L12.566 37.9701L12.436 37.8352L12.2848 37.6769C11.8831 37.254 11.499 36.8313 11.2182 36.4943L11.1576 36.4212L11.102 36.3532C10.8459 36.0371 10.5048 35.58 10.1723 35.1156L10.1012 35.0159C9.67498 34.4171 9.27466 33.8221 9.1014 33.5179L9.05786 33.4412C8.24303 31.9983 7.41967 29.9491 7.03955 28.439L7.01936 28.3573C6.90259 27.8816 6.75001 27.7648 6.59742 28.043C6.54362 28.1328 6.45383 28.1687 6.36405 28.1328L6.35442 28.1282C6.25154 28.075 6.22598 27.8994 6.22141 27.0473L6.22046 26.661C6.2293 24.5209 6.48208 23.0955 7.18488 21.3026L7.23569 21.1744C7.54669 20.4004 8.13967 19.2086 8.50022 18.6284C8.63466 18.413 8.50906 18.3322 8.23987 18.4488C7.96168 18.5746 7.7463 18.5834 7.7463 18.4758C7.7463 18.4362 7.99371 18.0439 8.27884 17.6127L8.34795 17.5086L8.42985 17.3858L8.51584 17.2581C8.71702 16.9606 8.90906 16.6852 9.02188 16.5369L9.05659 16.4924L9.15537 16.3723C9.28854 16.2117 9.45549 16.0143 9.63537 15.8047L9.8285 15.5804L9.97257 15.4144L10.3415 14.9931C10.6744 14.6159 10.9561 14.3056 11.0462 14.2232L11.058 14.2128C11.3045 13.9838 11.3005 13.7809 11.0039 13.3415L10.9714 13.2933L10.9392 13.2438C10.5996 12.7082 9.87269 11.2047 9.67576 10.6227C9.18219 9.11488 8.77841 5.06723 9.1104 4.96861C9.23979 4.92695 9.80531 4.89965 10.4444 4.89034L10.7647 4.88672ZM39.9266 6.30588L38.9393 6.32372C37.1082 6.36806 35.1112 6.88308 33.7221 7.68008L33.573 7.76592L33.4676 7.82509C33.3264 7.90367 33.2161 7.9608 33.1896 7.96584L33.1864 7.96616C33.1595 7.96616 32.9979 8.06494 32.8185 8.18155L32.5043 8.39708L31.7594 8.13673C30.1351 7.5802 28.8604 7.4636 27.8463 7.79559C27.0924 8.04695 26.3027 8.4419 25.6833 8.87267C25.5577 8.97145 25.4051 9.04324 25.3513 9.04324C25.3322 9.04324 25.2971 9.03282 25.25 9.0142C25.2029 9.03282 25.1677 9.04324 25.1486 9.04324C25.0948 9.04324 24.9422 8.97145 24.8166 8.87267C24.1973 8.4419 23.4075 8.04695 22.6536 7.79559C21.6395 7.4636 20.365 7.5802 18.7405 8.13673L17.9956 8.39708L17.6814 8.18155L17.5658 8.10738C17.443 8.02975 17.3442 7.97199 17.3169 7.96647L17.3103 7.96584C17.2776 7.95953 17.1164 7.87353 16.9269 7.76592L16.7779 7.68008C15.3887 6.88308 13.3919 6.36806 11.5606 6.32372L10.5733 6.30588L10.5465 6.70967C10.4747 7.63417 10.8874 9.8778 11.3452 11.0357C11.749 12.0588 12.4223 13.0819 13.0864 13.7011L13.4992 14.087L13.158 14.3652C13.0189 14.4846 12.7377 14.7508 12.4557 15.03L12.3972 15.0879L12.2779 15.2077L12.074 15.4155C11.1514 16.3616 11.0364 16.6093 11.613 16.3816L11.6504 16.3668C11.9823 16.223 12.3235 16.1782 12.3235 16.268L12.3224 16.2723C12.306 16.3175 12.1035 16.6388 11.8301 17.0574L11.6234 17.3719C11.0056 18.2898 10.2143 19.7718 9.93201 20.5377L9.89273 20.6464C9.16925 22.67 9.01983 24.962 9.41068 27.7482L9.42787 27.8691L9.43529 27.9149C9.53375 28.4894 9.7949 28.5487 9.81005 27.9846L9.81068 27.9376C9.81588 27.7307 9.8872 27.4227 10.1553 26.4716L10.3195 25.8937C10.3552 25.7738 10.4049 25.6442 10.4387 25.6018L10.4486 25.5856C10.4843 25.5215 10.5477 25.3662 10.6022 25.2024L10.6279 25.1235C10.7246 24.8319 10.9367 24.3758 11.1702 23.9254L11.2188 23.8323L11.29 23.6985C11.6291 23.067 11.9798 22.5055 12.0721 22.5055C12.1135 22.5055 12.1395 23.0213 12.1435 23.6834L12.1441 23.9415L12.1455 24.1023C12.1605 25.3314 12.2874 26.4545 12.4223 26.4545C12.4559 26.4545 12.5529 26.2486 12.6391 25.993L12.6713 25.8953L12.6957 25.8244C12.8937 25.2644 13.0342 25.2553 13.0411 25.8177L13.0416 25.894C13.0593 26.959 13.9287 30.1847 14.653 31.8784L14.6962 31.9781L14.7402 32.0778C15.4717 33.7176 17.1259 36.7259 17.6999 37.4628L17.7575 37.5352C17.875 37.6849 18.0704 37.9511 18.2326 38.187L18.3061 38.2948L18.3382 38.3406C18.5035 38.5741 18.656 38.7502 18.6957 38.7502L18.7058 38.7497L18.7113 38.7488L18.715 38.7478C18.7615 38.7313 18.7885 38.6027 18.9155 37.6113L19.0097 36.8655C19.2161 35.2141 19.1443 33.2575 18.7943 31.1664L18.7569 30.9249L18.6855 30.4763L18.6149 30.0446L18.5862 29.8656C18.4887 29.2671 18.3732 28.6483 18.2634 28.1446L18.2192 27.9431L18.1706 27.7157C18.0726 27.2529 17.9718 26.7422 17.8667 26.168L17.8346 25.9912L17.7968 25.7801C17.7714 25.6373 17.7457 25.491 17.7199 25.3407L17.6726 25.0634L17.6208 24.7638C17.6125 24.7157 17.6046 24.6683 17.5965 24.621L17.5533 24.3609L17.4864 23.9475L17.2597 22.4966C17.2148 22.1735 17.1699 21.6889 17.1699 21.4107V20.926L17.861 20.2888L17.992 20.1706C18.3407 19.8574 18.7861 19.4691 19.0788 19.2293L19.1443 19.1759L19.2175 19.1145L19.2906 19.0527L19.363 18.9907C20.3495 18.1407 21.1975 17.2212 21.2893 16.8783L21.3193 16.7715L21.3373 16.7041C21.3641 16.6031 21.3834 16.5221 21.3873 16.4922L21.3881 16.4834C21.3881 16.451 21.3378 16.4231 21.1478 16.3821L21.0705 16.3662L20.9883 16.3505C20.8118 16.3182 20.5622 16.2778 20.2116 16.2245L19.0545 16.0526L18.9875 16.0408C18.6399 15.9778 18.2847 15.8862 18.1752 15.8103C18.0589 15.7355 17.7884 15.2835 17.4997 14.7185L17.4302 14.5807L17.3526 14.4236C16.8391 13.3877 16.4036 12.5909 15.9763 11.924C15.8326 11.7088 15.7518 11.5024 15.7968 11.4574C15.8684 11.3856 17.2956 11.5651 17.6636 11.6908L17.7269 11.7137C18.3412 11.9396 18.7326 12.2054 19.5595 13.0065L19.6829 13.1267L19.7431 13.1837C20.1553 13.5674 20.5901 13.8549 21.3433 14.2486L22.0131 14.5992L22.1409 14.6672C22.7943 15.017 22.8311 15.0809 22.7969 15.2938L22.7684 15.46C22.5125 16.9162 21.8484 18.0441 20.6851 19.0084L20.6192 19.0628C20.4237 19.2289 20.0541 19.6269 19.69 20.0482L19.5673 20.1912L19.4821 20.2918C19.1442 20.6939 18.8417 21.0809 18.7293 21.2745L18.7135 21.3029L18.7045 21.3205L18.6885 21.3536C18.6304 21.4803 18.647 21.5684 18.8328 22.0532L18.9641 22.3919L18.9834 22.4395C19.0998 22.7207 19.3405 23.2065 19.6029 23.7058L19.6494 23.7942L19.7843 24.0469C20.107 24.6462 20.4276 25.2018 20.5647 25.3763L20.6165 25.4391C20.8325 25.6962 20.93 25.7365 21.2535 25.7365C21.5797 25.7365 22.3238 25.5654 23.0495 25.3427L23.1505 25.3112C23.5877 25.1737 24.0107 25.0196 24.323 24.875C25.0881 24.5231 24.8276 23.9041 23.5836 23.0853L23.5063 23.035L23.3274 22.9213C22.2182 22.2114 21.8316 21.8817 21.5587 21.4465L21.5404 21.4169C21.2522 20.9422 21.2227 20.4708 21.4689 20.1631L21.4869 20.1414C21.6048 20.0018 21.684 19.9624 22.0893 19.9603H22.1411L22.2477 19.9611C22.2728 19.9614 22.2989 19.9619 22.326 19.9624L22.5663 19.9674L22.6419 19.9699C23.0719 19.986 23.5359 20.0342 23.7127 20.0823C24.0021 20.1572 24.6077 20.1905 25.1609 20.182L25.2526 20.1803L25.339 20.182L25.4317 20.1831C25.9587 20.1866 26.5139 20.153 26.7874 20.0823C26.9744 20.0313 27.4836 19.9803 27.9336 19.9674L28.1739 19.9624L28.2523 19.9611C28.29 19.9606 28.3254 19.9603 28.3588 19.9603H28.4106C28.8363 19.9624 28.9024 20.0058 29.031 20.1631C29.2773 20.4708 29.2478 20.9422 28.9597 21.4169L28.9412 21.4465C28.654 21.9043 28.2413 22.2453 26.9938 23.035L26.9165 23.0853L26.8429 23.1343C25.6623 23.9287 25.4271 24.5302 26.1771 24.875C27.0298 25.2698 28.708 25.7365 29.2464 25.7365L29.2997 25.7361C29.5815 25.7312 29.6798 25.6815 29.8834 25.4391L29.9197 25.3954C30.0469 25.2463 30.38 24.6702 30.7157 24.0469L30.8505 23.7942L30.9431 23.6179C31.2027 23.1209 31.4342 22.6484 31.5358 22.3919L31.6672 22.0532L31.7199 21.9141C31.8747 21.4985 31.8632 21.4495 31.7864 21.3029L31.7706 21.2745L31.7494 21.2395C31.6199 21.0308 31.3194 20.6491 30.9895 20.2584L30.9327 20.1912L30.8099 20.0482L30.6888 19.9089C30.3658 19.5412 30.0546 19.2105 29.8807 19.0628L29.8657 19.0502C28.6709 18.0768 27.991 16.9374 27.7314 15.46L27.703 15.2938L27.6977 15.2561C27.6743 15.0598 27.7554 14.986 28.4868 14.5992L29.1566 14.2486C29.9465 13.8358 30.3863 13.5396 30.817 13.1267L30.9404 13.0065L31.0632 12.8883C31.8343 12.1531 32.217 11.9108 32.8365 11.6908C33.2044 11.5651 34.6315 11.3856 34.7033 11.4574C34.7481 11.5024 34.6673 11.7088 34.5237 11.924C34.075 12.6241 33.6172 13.4679 33.0698 14.5807L33.0002 14.7185L32.9314 14.8518C32.6692 15.3535 32.4319 15.7415 32.3249 15.8103C32.2081 15.891 31.8133 15.9898 31.4454 16.0526L30.2883 16.2245L29.9703 16.2737C29.7316 16.3112 29.5566 16.3412 29.4294 16.3662L29.3966 16.3728C29.1699 16.4189 29.1118 16.4487 29.1118 16.4834L29.1126 16.4922L29.1153 16.508C29.1241 16.555 29.1492 16.6557 29.1808 16.7715L29.2106 16.8783C29.3048 17.2296 30.1922 18.186 31.2095 19.0527L31.2824 19.1145L31.3556 19.1759L31.4211 19.2293C31.752 19.5004 32.278 19.9614 32.6391 20.2888L33.33 20.926V21.4107C33.33 21.6889 33.2851 22.1735 33.2402 22.4966L33.0136 23.9475L32.9466 24.3609L32.9034 24.621C32.8797 24.7624 32.8548 24.9067 32.8275 25.0634L32.7801 25.3407L32.7415 25.5633C32.7159 25.7097 32.6905 25.8524 32.6654 25.9912L32.6334 26.168L32.5812 26.4498C32.4773 27.0033 32.3776 27.4959 32.2807 27.9431L32.2529 28.0701C32.1273 28.6355 31.9929 29.3624 31.8851 30.0446L31.8144 30.4763L31.743 30.9249L31.7056 31.1664C31.3556 33.2575 31.2838 35.2141 31.4902 36.8655L31.6172 37.8637C31.7166 38.6254 31.7426 38.7328 31.7849 38.7478L31.7903 38.7492L31.7941 38.7497L31.8043 38.7502C31.8466 38.7502 32.0166 38.5507 32.1938 38.2948L32.2675 38.187C32.4499 37.9216 32.6742 37.6181 32.7826 37.4847C33.3512 36.774 35.0897 33.6089 35.8037 31.9781L35.8252 31.9292C36.5537 30.25 37.4406 26.9697 37.4583 25.894L37.4588 25.8177L37.4596 25.7733C37.4739 25.2346 37.6232 25.2824 37.8288 25.8953L37.861 25.993L37.8777 26.0419C37.9593 26.2743 38.0462 26.4545 38.0778 26.4545C38.2185 26.4545 38.3506 25.2316 38.3558 23.9415L38.3566 23.6834L38.358 23.5128C38.3651 22.9348 38.3901 22.5055 38.4278 22.5055C38.5232 22.5055 38.8945 23.1051 39.2439 23.7618L39.2813 23.8323L39.3297 23.9254L39.3778 24.0187C39.5919 24.4379 39.7819 24.852 39.8722 25.1235L39.8977 25.2024L39.9143 25.2512C39.9702 25.4125 40.0312 25.557 40.0612 25.6018C40.0951 25.6442 40.1447 25.7738 40.1804 25.8937L40.3446 26.4716L40.445 26.831C40.6278 27.4939 40.6828 27.7501 40.6889 27.928L40.6895 27.9624C40.6984 28.5653 40.9786 28.4938 41.072 27.8691L41.0755 27.8456C41.4835 25.0151 41.3392 22.6936 40.6072 20.6464L40.5818 20.576C40.3124 19.8221 39.5048 18.3052 38.8765 17.3719L38.6698 17.0574L38.5182 16.8242C38.3137 16.5075 38.1766 16.2858 38.1766 16.268C38.1766 16.1782 38.5176 16.223 38.8497 16.3668L38.8869 16.3816C39.4695 16.6115 39.3461 16.3565 38.3975 15.3863L38.2613 15.2474C38.2482 15.2342 38.2353 15.2209 38.222 15.2077L38.1027 15.0879L38.0443 15.03L37.8992 14.8875C37.6694 14.6633 37.457 14.4641 37.3418 14.3652L37.0007 14.087L37.4136 13.7011C38.0778 13.0819 38.7509 12.0588 39.1547 11.0357C39.6125 9.8778 40.0252 7.63417 39.9536 6.70967L39.9266 6.30588ZM24.9488 29.0508L25.2527 29.0468L25.5511 29.0508L25.6799 29.0519C25.7654 29.0525 25.8506 29.0528 25.9352 29.053L26.2321 29.0524C27.0929 29.0475 27.8176 29.015 27.9451 28.9495C28.0619 28.8867 28.3131 28.6265 28.5015 28.3841C28.6392 28.2016 28.7957 27.9592 28.9409 27.7134L28.9756 27.6543L29.0097 27.5952L29.0708 27.4873L29.1148 27.4074C29.3215 27.0287 29.4681 26.6999 29.435 26.6429C29.4097 26.6093 29.1872 26.552 28.9229 26.5154L28.8022 26.4996L28.7334 26.4902C28.4792 26.4536 28.2088 26.4028 28.0797 26.3647L28.0456 26.3524L27.9584 26.3226C27.7673 26.2588 27.4264 26.1512 27.0722 26.0364L26.7763 25.9403C26.001 25.69 25.6571 25.5868 25.2526 25.6381C25.2518 25.6387 25.2508 25.6386 25.25 25.6384L25.2473 25.6389C24.8428 25.5868 24.4991 25.69 23.7236 25.9403L23.2032 26.1088C22.8732 26.215 22.5829 26.3071 22.4544 26.3524L22.4202 26.3647C22.2795 26.4062 21.9704 26.463 21.6977 26.4996L21.577 26.5154L21.5247 26.523C21.2838 26.5596 21.0886 26.6117 21.0651 26.6429C21.0296 26.7038 21.1999 27.076 21.4291 27.4873L21.4902 27.5952L21.5243 27.6543L21.559 27.7134C21.7042 27.9592 21.8607 28.2016 21.9984 28.3841L22.0369 28.4327C22.2198 28.6603 22.4461 28.8908 22.555 28.9495C22.6907 29.0192 23.5047 29.0514 24.4387 29.053H24.5649C24.6493 29.0528 24.7345 29.0525 24.8202 29.0519L24.9488 29.0508ZM22.492 20.7644C22.3844 20.6658 22.0253 20.7106 21.8908 20.8452L21.8784 20.8599C21.814 20.9396 21.7756 21.0469 21.801 21.1144C21.8637 21.267 21.9804 21.285 22.0612 21.1594C22.0882 21.1054 22.1868 21.0696 22.2856 21.0696C22.4472 21.0696 22.5908 20.8632 22.492 20.7644ZM28.0079 20.7644C27.9091 20.8632 28.0529 21.0696 28.2143 21.0696C28.3131 21.0696 28.4117 21.1054 28.4388 21.1594C28.5196 21.285 28.6362 21.267 28.699 21.1144C28.7244 21.0469 28.6861 20.9396 28.6215 20.8599L28.6092 20.8452C28.4746 20.7106 28.1155 20.6658 28.0079 20.7644ZM19.0097 14.0692L18.921 13.989C18.418 13.54 18.3052 13.527 18.3722 13.903L18.3815 13.9524C18.4084 14.132 18.5072 14.4282 18.5879 14.5987C18.7135 14.8589 18.7943 14.9217 19.0097 14.9307C19.1511 14.9307 19.4694 14.9615 19.7436 15.0017L19.8085 15.0115L19.879 15.0204C20.3967 15.0808 20.4049 14.9817 19.9178 14.7302L19.8534 14.6974C19.656 14.5897 19.2791 14.3116 19.0097 14.0692ZM31.4902 14.0692C31.2208 14.3116 30.844 14.5897 30.6465 14.6974L30.5821 14.7302C30.0739 14.9927 30.1049 15.0891 30.6914 15.0115L30.7563 15.0017L30.8229 14.9923C31.0804 14.9568 31.3603 14.9307 31.4902 14.9307C31.7056 14.9217 31.7864 14.8589 31.9121 14.5987C31.9929 14.4282 32.0915 14.132 32.1185 13.9524L32.1248 13.9193C32.202 13.5051 32.0762 13.5355 31.4902 14.0692Z" fill="black"/>
</svg>
