<svg width="51" height="51" viewBox="0 0 51 51" fill="none" xmlns="http://www.w3.org/2000/svg">
<path d="M28.7316 38.5686L30.3786 39.0313L31.1398 38.5798L31.2568 38.5134L31.3721 38.45C31.7145 38.2646 32.0181 38.1286 32.1088 38.1286C32.2472 38.1286 32.2887 38.4107 32.2887 39.3923V40.6673L28.1484 42.915C26.8678 43.6055 26.2267 43.935 25.8572 44.071L25.857 44.1352C25.8248 44.1283 25.7896 44.1191 25.7511 44.1071C25.7123 44.1189 25.6771 44.1283 25.6448 44.1352V44.071L25.5842 44.0478C25.4366 43.9899 25.2497 43.9043 25.0043 43.7828L24.8525 43.7068C24.459 43.5077 23.9329 43.2277 23.2164 42.8408L19.2132 40.6673L19.2137 39.2378C19.2179 38.3807 19.2623 38.1286 19.3931 38.1286C19.4938 38.1286 19.8576 38.2965 20.2453 38.5134L20.3621 38.5798L21.1233 39.0313L22.7705 38.5686C23.9562 38.2392 24.9353 37.9877 25.7084 37.8141C26.6228 38.0112 27.6306 38.2627 28.7316 38.5686ZM7.65536 7.61499H7.67161L7.6836 7.61704C7.85433 7.6527 9.04029 8.10461 10.4756 8.68181L13.9181 10.0749C14.7727 10.4196 15.5724 10.7405 16.1526 10.9707L18.5177 11.9031L19.6512 11.5071C21.5555 10.851 23.6026 10.509 25.6448 10.4811V10.4794L25.751 10.48L25.8572 10.4794L25.8573 10.4811C27.8994 10.509 29.9466 10.851 31.8507 11.5071L32.9842 11.9031L35.3494 10.9707L36.3637 10.5657C36.9181 10.3433 37.5457 10.0904 38.1822 9.83337L41.0264 8.68181C42.5027 8.08804 43.7151 7.62698 43.8305 7.61499H43.8343C44.0416 7.61499 44.0006 16.3678 41.8966 18.1358L41.7745 18.2368C40.9279 18.9324 40.3023 19.4316 39.8978 19.7349L39.7808 19.8218L39.6904 19.8872C39.4824 20.0355 39.3677 20.101 39.3465 20.0836C39.2684 20.0197 39.0366 19.2368 38.8014 18.3612L38.7334 18.1055C38.6586 17.8225 38.5849 17.5358 38.5173 17.2663C37.9635 15.0603 41.0838 12.8535 41.2496 12.548C41.3255 12.4084 40.5145 12.9969 39.6064 13.6934L39.2888 13.9383L39.0477 14.1259C38.1472 14.8293 37.3077 15.5151 37.2828 15.5916C37.2313 15.7704 37.6582 16.8497 39.2746 20.5401L39.7296 21.5765L39.8515 21.8572C40.1902 22.6435 40.6306 23.7073 40.918 24.4506L41.5676 26.0686L34.9061 32.049L34.9054 32.0311C34.3248 30.7566 34.0023 30.1644 33.9378 30.2548C33.8687 30.3227 33.7858 30.7752 33.7306 31.2505C33.6891 31.7257 33.5648 32.563 33.4541 33.1286L33.2886 34.0808C33.2205 34.4793 33.1528 34.8864 33.1086 35.1878L33.065 35.4341L33.0376 35.5779C32.9241 36.1503 32.8318 36.2999 32.5155 36.5666L32.4451 36.6247C31.7958 37.1675 31.2392 37.309 30.3605 37.1452L30.1988 37.1135L30.0776 37.0882C29.6172 36.9899 28.9899 36.83 28.3739 36.6597L28.0978 36.5824L27.7912 36.4943C26.9871 36.2605 26.3103 36.0382 26.2114 35.9572C25.9211 35.7197 26.2114 34.3845 26.64 34.0112L26.6619 33.9929L26.7073 33.9585C26.9667 33.7702 27.7025 33.339 28.503 32.903L28.8623 32.7085L29.0092 32.6278C29.8333 32.1721 30.518 31.741 30.6026 31.6194L30.6068 31.6126C30.8694 31.2165 30.7727 30.6056 30.2613 29.4176L30.0345 28.8935L29.9342 28.6586C29.4714 27.5676 29.4646 27.3956 29.6168 26.7517L29.7203 26.3255C29.8844 25.6716 30.0036 25.6648 32.2792 24.8692L33.288 24.509C33.6301 24.3855 33.8778 24.2943 33.9378 24.2696C34.0519 24.2157 34.4575 23.7758 34.8803 23.2784L35.0365 23.0928L35.2285 22.8601L35.3446 22.717C35.7148 22.2559 36.0112 21.8515 36.0112 21.7691C36.0112 21.6674 35.9283 21.6446 35.7762 21.7013L35.6941 21.7245L35.4608 21.7848C35.0437 21.8902 34.2647 22.0801 33.3511 22.2988L32.2376 22.5639L31.9217 22.6409C30.9604 22.8773 30.1301 23.1047 29.671 23.2547L29.6132 23.274L29.5212 23.3059C29.3985 23.3497 29.321 23.3838 29.2975 23.4057L29.2938 23.4097C29.197 23.5003 29.0863 23.8736 29.0311 24.2244C28.9896 24.5751 28.8238 25.2653 28.6717 25.7631L28.636 25.8878C28.3206 27.0054 28.3577 27.4373 28.8648 28.7564L28.936 28.9414L28.9762 29.0479C29.6181 30.7572 29.5059 31.0906 28.2846 31.6012L28.2223 31.6255L28.1806 31.6408L28.1391 31.6555C27.745 31.7911 27.3461 31.8236 26.0227 31.8274H25.4792L25.157 31.8255C24.0872 31.8173 23.723 31.7794 23.3628 31.6555L23.3213 31.6408L23.2796 31.6255L23.2172 31.6012L23.1365 31.567C22.1229 31.1315 21.9335 30.8025 22.3386 29.5736L22.3684 29.4853L22.4189 29.3399C22.4631 29.2156 22.5121 29.0831 22.566 28.9414L22.6371 28.7564C23.1443 27.4373 23.1813 27.0054 22.8659 25.8878L22.8303 25.7631C22.6781 25.2653 22.5123 24.5751 22.4708 24.2244L22.4577 24.1463C22.4017 23.8329 22.3059 23.5197 22.219 23.421L22.2045 23.4057C22.0951 23.3032 20.8075 22.9355 19.2643 22.5639L18.1508 22.2988C17.0196 22.0282 16.095 21.8013 15.8078 21.7245L15.7257 21.7013C15.5738 21.6446 15.4908 21.6674 15.4908 21.7691C15.4908 21.86 15.851 22.3426 16.2733 22.8601L16.4654 23.0928L16.6526 23.3147C17.064 23.7969 17.4529 24.2169 17.5641 24.2696L17.6566 24.3051C17.8081 24.3621 18.1084 24.4716 18.4752 24.6032L19.2227 24.8692L20.2071 25.2136C21.5241 25.6801 21.6426 25.7805 21.7767 26.3061L21.8772 26.7186C22.0481 27.4349 22.0378 27.5681 21.4674 28.8935L21.2407 29.4176L21.1884 29.5405C20.7313 30.6281 20.6449 31.2091 20.8815 31.5916L20.8994 31.6194C20.9888 31.7483 21.7511 32.2237 22.6396 32.7085L22.9989 32.903C23.8529 33.3682 24.6332 33.8275 24.8399 33.9929L24.862 34.0112C25.2905 34.3845 25.5809 35.7197 25.2905 35.9572C25.1793 36.0483 24.3367 36.3182 23.4041 36.5824L23.128 36.6597L22.9598 36.7058C22.3435 36.8738 21.7317 37.0269 21.303 37.1135L21.1414 37.1452C20.2819 37.3055 19.7305 37.1735 19.099 36.6597L18.9866 36.5666L18.9385 36.5254C18.6371 36.2629 18.5582 36.0937 18.437 35.4341L18.3935 35.1878L18.3731 35.0526C18.3226 34.7233 18.252 34.3047 18.1839 33.9107L18.0479 33.1286L18.0211 32.9881C17.9179 32.4314 17.8095 31.6877 17.7713 31.2505L17.7555 31.1217C17.7011 30.6961 17.6268 30.3167 17.5641 30.2548C17.5006 30.1657 17.1782 30.7528 16.5971 32.0159L16.5964 32.0402L9.93433 26.0686L10.5841 24.4506L10.6589 24.2584C10.983 23.4329 11.4498 22.3134 11.7723 21.5765L12.2273 20.5401C13.8438 16.8497 14.2706 15.7704 14.2191 15.5916C14.1942 15.5151 13.3549 14.8293 12.4542 14.1259L12.0948 13.8468C11.11 13.0864 10.1709 12.3981 10.2523 12.548C10.4181 12.8535 13.5383 15.0603 12.9847 17.2663L12.901 17.5967C12.8579 17.7646 12.8135 17.9356 12.7686 18.1055L12.7006 18.3612L12.5817 18.796C12.391 19.482 12.2202 20.0306 12.1554 20.0836C12.1313 20.1033 11.9866 20.0159 11.7212 19.8218L11.6039 19.7349C11.1995 19.4316 10.5742 18.9324 9.72747 18.2368L9.60534 18.1358C7.50136 16.3678 7.46964 7.62335 7.65536 7.61499Z" fill="#F25252"/>
</svg>
