<svg width="83" height="83" viewBox="0 0 83 83" fill="none" xmlns="http://www.w3.org/2000/svg">
<g clip-path="url(#clip0_7_331)">
<path d="M0.232918 11.0184C0.317398 10.6786 1.15267 7.60246 4.42276 4.30087C7.69303 0.999665 10.7403 0.156438 11.0771 0.0713421C11.878 -0.131304 12.7251 0.105305 13.3088 0.694375L43.9346 31.6117C44.0118 31.6898 44.084 31.7734 44.1496 31.8615L62.0638 55.8668C62.3257 56.2177 62.4773 56.6215 62.5221 57.0328L78.0029 72.6598C78.1812 72.6343 78.3614 72.617 78.5445 72.617C79.5688 72.617 80.5321 73.02 81.2567 73.7515C82.752 75.2608 82.752 77.7171 81.2567 79.2267L78.6415 81.8668C77.9173 82.5978 76.9544 83.0002 75.9299 83.0002C74.9053 83.0002 73.9422 82.5974 73.2185 81.8662C72.4939 81.1349 72.0946 80.1626 72.0946 79.1284C72.0946 78.9431 72.1118 78.7609 72.1371 78.5805L56.7974 63.0943C56.7939 63.0943 56.7905 63.0949 56.7871 63.0949C56.2881 63.0949 55.7866 62.9347 55.3639 62.6092L31.7116 44.3976C31.6284 44.3335 31.5494 44.2639 31.4752 44.1891L0.850075 13.2716C0.266373 12.6824 0.0319977 11.8267 0.232918 11.0184ZM75.1556 79.9111C75.3623 80.1198 75.6374 80.2349 75.9301 80.2349C76.223 80.2349 76.4983 80.1198 76.705 79.9111L79.3198 77.2714C79.7469 76.8399 79.7471 76.138 79.3198 75.7068C79.1125 75.4976 78.8372 75.3823 78.5447 75.3823C78.2524 75.3823 77.9773 75.4972 77.7702 75.7063L75.1546 78.3467C74.9479 78.5552 74.8339 78.8328 74.8339 79.1282C74.8341 79.4235 74.9481 79.7017 75.1556 79.9111ZM73.0402 76.0742L75.5206 73.5709L73.2974 71.3267L70.8177 73.8306L73.0402 76.0742ZM69.1253 72.122L71.6049 69.6186L68.9802 66.9693L66.5008 69.4727L69.1253 72.122ZM64.8082 67.7636L67.2876 65.2604L64.9952 62.9464L62.5161 65.4498L64.8082 67.7636ZM60.8237 63.7413L63.3028 61.2378L61.4521 59.3699L58.9722 61.8722L60.8237 63.7413Z" fill="black"/>
<path d="M62.9619 24.3955C61.1553 22.7362 60.1191 20.3722 60.1191 17.9097C60.1191 15.4458 61.1558 13.0814 62.963 11.4227C62.9963 11.3923 63.024 11.358 63.0511 11.3239C64.6569 13.0435 65.6429 15.3596 65.6429 17.9097C65.6429 20.4595 64.6569 22.7756 63.0509 24.4953C63.0234 24.4606 62.9955 24.4262 62.9619 24.3955Z" fill="black"/>
<path d="M58.4541 17.9096C58.4541 20.8316 59.6787 23.6362 61.8136 25.6119C60.2275 26.8072 58.2596 27.5149 56.1279 27.5149C53.9968 27.5149 52.0291 26.8072 50.4428 25.6121C52.5773 23.6364 53.8015 20.8316 53.8015 17.9096C53.8015 14.9877 52.5773 12.1827 50.4428 10.2068C52.0289 9.0117 53.9966 8.30432 56.1277 8.30432C58.2596 8.30432 60.2275 9.01207 61.8138 10.2072C59.6787 12.1823 58.4541 14.9867 58.4541 17.9096Z" fill="black"/>
<path d="M49.2945 24.3955C49.2608 24.4262 49.2328 24.461 49.2053 24.4955C47.5991 22.7758 46.6128 20.4594 46.6128 17.9097C46.6128 15.3591 47.5991 13.043 49.2053 11.3233C49.2326 11.3578 49.2605 11.392 49.2937 11.4226C51.1004 13.0822 52.1366 15.4466 52.1366 17.9097C52.1366 20.3722 51.1006 22.7364 49.2945 24.3955Z" fill="black"/>
</g>
<defs>
<clipPath id="clip0_7_331">
<rect width="82.2176" height="83" fill="white" transform="matrix(-1 0 0 1 82.3793 0)"/>
</clipPath>
</defs>
</svg>
