<svg width="147" height="200" viewBox="0 0 147 200" fill="none" xmlns="http://www.w3.org/2000/svg">
<g clip-path="url(#clip0_1_251)">
<path d="M107.89 0L114.392 6.20667L118.65 5.44934C118.65 5.44934 119.59 11.2892 119.219 10.5365C118.847 9.78391 116.797 9.96032 116.797 9.96032L131.653 19.9371L139.454 25.5841L143.729 28.5968L143.924 36.8779L146.524 42.1462L144.102 50.9871L139.096 56.8152L135.553 62.4622L130.921 67.5329L128.499 71.6817L118.845 98.9619L119.024 103.852C119.024 103.852 119.026 109.87 118.098 110.058C117.169 110.246 114.938 113.819 115.123 114.948C115.309 116.077 115.318 124.365 115.318 124.365L111.223 132.448L108.817 139.231L99.7154 146.755C99.7154 146.755 92.6569 149.192 91.9139 149.192C91.1709 149.192 88.7515 149.197 88.5658 149.949C88.38 150.702 87.6393 155.025 87.6393 155.777C87.6393 156.53 85.7726 160.483 86.1441 161.424C86.5156 162.365 87.4443 168.01 87.4443 168.01L102.12 170.265L114.018 171.22L115.497 173.278L117.35 172.899C117.35 172.899 116.249 170.077 116.992 170.265C117.735 170.453 125.529 169.338 126.272 169.903C127.015 170.467 131.1 172.899 131.1 172.899L131.652 177.048L129.247 184.95C129.247 184.95 125.341 188.333 124.598 188.144C123.855 187.956 121.445 188.144 121.445 188.144C121.445 188.144 121.264 191.526 120.893 192.655C120.521 193.784 119.771 196.423 118.471 197.364C117.171 198.305 108.069 199.998 108.069 199.998L100.268 199.241C100.268 199.241 98.2174 197.178 99.1462 196.425C100.075 195.673 101.942 193.791 101.942 193.791L95.2455 194.351C95.2455 194.351 96.9265 196.609 95.4406 196.985C93.9546 197.361 86.5177 199.619 86.5177 199.619L80.9429 198.121L72.0362 199.438C72.0362 199.438 73.3271 197.928 71.8412 197.364C70.3552 196.799 69.0596 197.369 67.3879 198.121C65.7161 198.874 65.7208 197.178 64.2348 197.742C62.7488 198.307 59.7815 198.302 59.7815 198.302C59.7815 198.302 54.0117 198.5 52.7115 198.5C51.4113 198.5 38.2301 197.561 38.2301 197.561L34.7032 193.61L32.4765 188.342L33.5817 187.206L34.5081 183.073L36.9298 181.378L39.3353 178.365L45.6577 176.488L51.6063 174.973C51.6063 174.973 53.4592 174.597 53.4592 173.656C53.4592 172.716 52.3378 167.45 52.3378 167.45L51.7852 159.169L53.0854 150.706L54.7595 147.134L50.1111 138.474C50.1111 138.474 46.5796 130.95 47.1369 129.633C47.6941 128.316 46.7793 123.608 46.7793 123.608L45.4791 114.01C45.4791 114.01 48.4371 107.057 48.4371 106.305C48.4371 105.552 50.6777 104.237 51.6064 104.049C52.5352 103.861 59.4079 104.23 59.4079 104.23C59.4079 104.23 63.4827 105.917 64.04 107.045C64.5972 108.174 67.5785 111.94 68.1358 112.692C68.693 113.445 69.9886 112.692 69.9886 112.692L70.7363 110.058L67.5832 106.864C67.5832 106.864 68.498 101.034 69.241 100.658C69.984 100.282 72.2153 93.3151 72.2153 93.3151L73.1417 84.0956L73.7106 78.0699C73.7106 78.0699 72.2269 75.0689 71.4839 74.3162C70.7409 73.5636 71.1101 71.8632 71.1101 71.8632L67.7619 69.8052L66.4617 61.9027L67.9407 57.1942L69.6148 54.3624L73.7106 52.6832L78.5377 52.3045H82.4385L81.1382 49.8514L80.7644 47.5959L79.643 45.5215L78.3428 41.9489L76.1161 40.8295L75.5635 39.1337C75.5635 39.1337 77.414 35.9351 77.0425 35.1825C76.671 34.4298 76.3111 32.1697 76.3111 32.1697L68.1359 31.791L74.442 26.9014V24.0697L27.8286 37.2402L15.5741 39.8743H4.79886C4.79886 39.8743 1.8223 38.3785 1.45078 37.4377C1.07927 36.4969 0.150528 30.2926 0.150528 30.2926L1.8246 28.0206L76.312 11.6561L78.9125 13.533L83.1871 13.7305C83.1871 13.7305 83.3728 12.4088 83.1871 11.6561C83.0013 10.9035 86.3401 6.94761 86.3401 6.94761H88.9405L90.9884 4.51098L93.2151 6.58539L94.8892 5.07077L96.547 3.57262L99.1474 2.43668L101.748 1.87694L103.617 0.181206L106.022 0.559868L107.892 0.00010917L107.89 0ZM107.322 17.4836C106.579 17.4836 105.843 18.6196 105.843 18.6196C105.843 18.6196 106.764 20.6916 107.322 21.6324C107.879 22.5731 106.948 26.5267 106.948 27.2793C106.948 28.0319 108.248 33.486 108.248 33.486L106.021 34.6055L104.542 37.9969L104.916 43.0841L108.995 47.595L113.27 48.5335L119.95 46.6566L125.72 42.3267L130.352 35.1816L128.499 32.926L121.819 27.2791C121.819 27.2791 115.687 22.754 114.944 21.8132C114.201 20.8724 111.415 19.553 111.043 18.8004C110.672 18.0478 108.065 17.4836 107.322 17.4836Z" fill="#010002"/>
</g>
<defs>
<clipPath id="clip0_1_251">
<rect width="146.378" height="200" fill="white" transform="matrix(-1 0 0 1 146.526 0)"/>
</clipPath>
</defs>
</svg>
