<svg width="199" height="200" viewBox="0 0 199 200" fill="none" xmlns="http://www.w3.org/2000/svg">
<g clip-path="url(#clip0_1_232)">
<path d="M13.71 96.5474C12.6122 95.4392 11.3669 94.8712 10.9518 95.2949L4.56828 101.739C4.15778 102.163 4.71588 103.415 5.809 104.519L10.5182 109.273L9.24982 116.271L16.1822 115L19.5631 118.409L18.2947 125.402L25.2224 124.126L62.85 162.107L61.5862 169.101L68.514 167.83L73.131 172.486L71.858 179.485L78.7903 178.209L81.6961 181.147L80.4277 188.145L87.3601 186.865L89.7355 189.263C90.8194 190.357 92.0601 190.925 92.4798 190.506L98.8633 184.062C99.283 183.633 98.7157 182.385 97.6318 181.287L13.71 96.5474Z" fill="#010002"/>
<path d="M76.927 119.801L81.6131 124.536L56.0145 132.07L61.6739 137.779L78.4859 133.667L83.4811 138.705L66.9181 143.073L72.5129 148.721L80.6953 146.439L85.0539 150.839L76.95 153.195L103.19 179.689C103.19 179.689 118.793 178.288 110.763 165.083C110.763 165.083 80.9259 127.539 85.5152 92.3149C85.5152 92.3149 86.064 83.0908 80.0634 90.9366L112.899 0H77.3328L54.2249 61.714C53.796 61.0854 53.2379 60.5266 52.4722 60.0936C50.5489 59.1018 47.0896 59.0506 41.4395 64.517L15.2643 90.9366L50.8441 126.85L76.927 119.801Z" fill="#010002"/>
<path d="M153.243 162.098C176.042 162.098 194.533 143.422 194.533 120.401C194.533 97.3855 176.042 78.7093 153.243 78.7093C130.426 78.7093 111.944 97.3762 111.944 120.401C111.944 143.427 130.421 162.098 153.243 162.098ZM140.042 155.118C139.221 155.551 138.465 155.943 137.847 156.245C132.76 154.075 128.226 150.835 124.499 146.821C124.596 146.216 124.729 145.378 124.882 144.46C125.246 142.113 125.712 139.213 125.892 138.067C125.915 137.909 125.938 137.779 125.952 137.695C126.251 137.783 127.146 138.021 128.345 138.347C131.657 139.255 137.238 140.777 138.368 141.089C138.474 141.117 138.539 141.145 138.557 141.145C138.613 141.229 138.931 141.727 139.406 142.491C140.49 144.209 142.386 147.24 143.797 149.494C144.42 150.485 144.95 151.328 145.264 151.831C145.397 152.05 145.49 152.204 145.554 152.292C144.968 152.59 142.321 153.954 140.042 155.118ZM153.197 107.01C153.298 107.08 153.635 107.308 154.124 107.667C156.91 109.664 164.926 115.377 165.512 115.792C165.498 115.82 165.484 115.88 165.466 115.941C165.461 115.959 165.452 115.983 165.443 116.006C164.848 117.85 160.996 129.788 160.752 130.538C160.692 130.538 160.586 130.538 160.429 130.538C160.009 130.538 159.267 130.538 158.317 130.538C154.184 130.538 146.283 130.538 145.656 130.538C145.416 129.788 141.569 117.85 140.97 116.006C140.96 115.983 140.956 115.959 140.946 115.941C140.928 115.871 140.9 115.82 140.891 115.792C141.472 115.377 149.484 109.664 152.284 107.667C152.773 107.313 153.1 107.08 153.197 107.01ZM152.288 106.144V94.7873L153.201 95.1552L154.129 94.7873V106.144L153.201 105.487L152.288 106.144ZM167.117 140.06L167.043 140.074L165.927 141.68L159.036 131.781H161.292L167.117 140.06ZM144.922 131.777H147.178L140.292 141.573L139.346 140.069L144.922 131.777ZM153.026 152.79C150.955 152.79 148.917 152.581 146.956 152.208L145.577 149.992C147.962 150.597 150.462 150.923 153.031 150.923C155.757 150.923 158.4 150.56 160.913 149.875L159.497 152.12C157.408 152.567 155.24 152.79 153.026 152.79ZM168.482 156.124C167.85 155.808 167.085 155.426 166.282 155.021C164.004 153.875 161.43 152.585 160.853 152.297C160.923 152.194 161.038 152.003 161.204 151.747C161.545 151.202 162.071 150.336 162.698 149.34C164.719 146.104 167.67 141.406 167.832 141.14C168.136 141.057 173.948 139.469 177.615 138.472C178.938 138.104 179.985 137.82 180.382 137.713C180.401 137.709 180.437 137.695 180.451 137.695C180.571 138.347 181.125 141.396 181.581 143.976C181.734 144.851 181.881 145.671 182.001 146.327C178.274 150.504 173.667 153.857 168.482 156.124ZM181.309 136.177L178.717 136.885C181.554 132.522 183.325 127.4 183.671 121.887L185.327 123.987C184.792 128.373 183.389 132.503 181.309 136.177ZM177.601 111.899C177.698 110.665 178.034 105.725 178.274 102.303C178.357 101.078 178.431 100.044 178.468 99.4622C178.477 99.2666 178.491 99.1223 178.5 99.0292C179.146 99.1456 182.084 99.6578 184.607 100.095C185.493 100.254 186.327 100.393 186.992 100.51C189.69 105.296 191.424 110.702 191.922 116.472C191.438 116.937 190.843 117.524 190.193 118.152C188.352 119.945 186.198 122.04 185.723 122.511C185.668 122.445 185.594 122.338 185.493 122.217C185.142 121.77 184.492 120.96 183.731 119.987C182.107 117.934 179.912 115.149 178.634 113.524C178.044 112.77 177.647 112.262 177.587 112.183C177.592 112.16 177.596 112.048 177.601 111.899ZM166.204 117.654L166.909 115.456L176.319 112.588L177.509 114.046L166.204 117.654ZM177.329 98.0979L177.144 100.771C173.717 96.3891 169.16 92.9621 163.907 90.9459L166.379 89.9774C170.585 91.8818 174.303 94.6616 177.329 98.0979ZM143.806 83.5425C144.226 82.7044 144.613 81.9407 144.899 81.3727C147.514 80.8139 150.236 80.5019 153.026 80.5019C155.817 80.5019 158.529 80.8139 161.158 81.3727C161.462 81.95 161.896 82.7183 162.357 83.5658C163.565 85.7775 165.023 88.4362 165.36 89.0508C165.249 89.0927 165.032 89.1719 164.755 89.2836C164.151 89.5165 163.21 89.8843 162.126 90.3127C159.428 91.379 155.817 92.8038 154.133 93.4556C153.612 93.6605 153.28 93.7955 153.206 93.8235C153.146 93.7955 152.809 93.6605 152.293 93.4556C150.577 92.7851 146.864 91.3277 144.152 90.2615C143.008 89.8145 142.044 89.4373 141.481 89.2091C141.283 89.1393 141.122 89.0741 141.034 89.0415C141.339 88.4315 142.69 85.7542 143.806 83.5425ZM139.83 89.8983L142.321 90.8807C137.155 92.8224 132.653 96.1237 129.231 100.356L129.056 97.7347C132.058 94.4241 135.725 91.7468 139.83 89.8983ZM130.057 112.495L139.498 115.461L140.204 117.664L129.005 113.938L130.057 112.495ZM120.583 122.408C119.928 121.77 117.696 119.591 115.883 117.826C115.214 117.165 114.61 116.579 114.153 116.146C114.688 110.535 116.399 105.269 119.033 100.58C119.656 100.473 120.5 100.333 121.409 100.17C124.005 99.709 127.229 99.1549 127.917 99.0338C127.917 99.0431 127.917 99.0525 127.917 99.0525C127.94 99.4017 128.013 100.473 128.11 101.86C128.35 105.278 128.724 110.623 128.798 111.904C128.816 112.062 128.816 112.164 128.83 112.192C128.765 112.276 128.359 112.774 127.774 113.533C126.394 115.279 123.978 118.343 122.345 120.42C121.51 121.463 120.887 122.264 120.689 122.511C120.657 122.492 120.611 122.445 120.583 122.408ZM120.8 124.355L122.423 122.292C122.815 127.614 124.54 132.54 127.271 136.773L124.826 136.251C122.705 132.596 121.367 128.713 120.786 124.327L120.8 124.355Z" fill="#010002"/>
<path d="M168.584 177.003C162.62 181.133 156.578 185.701 149.392 188.662C142.261 191.642 134.623 193.691 126.81 195.027C119.024 196.522 111.017 197.281 102.991 197.467L102.899 198.454C110.938 199.851 119.121 200.144 127.335 199.944C135.536 199.553 143.792 198.417 151.928 196.145C159.94 193.83 168.524 190.92 174.898 184.555C181.249 178.395 185.746 169.949 185.991 161.255L185.073 160.915C179.764 167.485 174.607 172.738 168.584 177.003Z" fill="#010002"/>
</g>
<defs>
<clipPath id="clip0_1_232">
<rect width="198.115" height="200" fill="white" transform="translate(0.426392)"/>
</clipPath>
</defs>
</svg>
