<svg width="167" height="167" viewBox="0 0 167 167" fill="none" xmlns="http://www.w3.org/2000/svg">
<g clip-path="url(#clip0_1_241)">
<path d="M106.432 28.3719C114.183 28.3719 120.469 22.0063 120.469 14.1873C120.469 6.34616 114.183 0 106.432 0C98.6895 0 92.3839 6.34616 92.3839 14.1846C92.3757 22.0063 98.684 28.3719 106.432 28.3719Z" fill="#010002"/>
<path d="M138.985 48.2619C137.674 32.7127 119.812 32.929 119.812 32.929H91.6668C71.4917 33.3229 72.2143 48.2619 72.2143 48.2619V49.5905L72.0385 50.3838L71.8764 50.2367C71.5769 49.9483 71.2472 49.7375 70.8955 49.5683C69.1151 47.2689 67.1809 43.5633 66.6039 37.991C66.9116 36.2685 66.983 34.4546 66.7687 32.5601C66.439 29.5923 65.4279 26.6578 63.8811 23.934C63.7986 24.0061 61.0978 16.7114 49.2862 12.0627C46.2118 11.0059 44.3407 11.0309 41.9201 11.2472C38.2137 11.5801 34.9579 13.0695 32.5044 15.5437C25.7976 22.3225 27.0807 34.6376 35.3755 43.0002C39.9914 47.66 46.0194 50.2617 51.7535 50.2035L51.7645 50.295C51.8469 50.2922 59.1086 50.0537 66.0983 55.5677C66.2137 55.7147 66.3401 55.8673 66.4747 56.006L72.2033 61.4646V63.825H72.2281C72.2281 63.9165 72.2171 64.0025 72.2171 64.0801C72.2171 67.3891 74.8822 70.0713 78.138 70.0713C79.0337 70.0713 79.8662 69.8438 80.6107 69.4833L80.7454 69.6192C78.6545 71.6523 77.7121 74.376 78.6105 76.8057C79.8057 80.0066 83.7429 81.41 87.768 80.4476V88.1306L81.3855 125.131L87.7351 158.901C87.7351 163.372 91.3206 167 95.7414 167C100.159 167 103.75 163.372 103.75 158.901L97.3844 124.064L103.742 86.9047H107.33L120.079 158.973L120.131 159.031C120.192 163.43 123.739 166.989 128.088 166.989C132.495 166.989 136.059 163.383 136.059 158.948L125.14 66.5598L132.913 63.6197C136.482 62.2828 138.781 59.3233 138.927 56.3832L139.009 56.4193L138.985 48.2619ZM37.4636 40.7813C30.1168 33.4949 28.6084 23.0409 34.0787 17.427C39.5435 11.8158 49.9291 13.1638 57.2678 20.4475C64.6037 27.7256 66.1176 38.1879 60.65 43.7963C55.1797 49.413 44.8023 48.0539 37.4636 40.7813ZM66.3236 50.3921C65.6038 51.1604 65.2603 52.1284 65.2603 53.1019C62.1941 51.0578 59.224 49.9705 56.8309 49.4046C59.0207 48.6863 60.9742 47.4908 62.5733 45.8765C63.8838 44.559 64.8949 43.0169 65.6148 41.3138C66.3291 44.6866 67.5161 47.2661 68.7689 49.1966C67.8705 49.2881 66.9885 49.6848 66.3236 50.3921ZM87.7845 65.3921L84.0644 61.8557V50.8525H87.7845V65.3921ZM123.489 52.5001L123.285 50.711H127.137L127.61 50.9385L123.489 52.5001Z" fill="#010002"/>
</g>
<defs>
<clipPath id="clip0_1_241">
<rect width="165.426" height="167" fill="white" transform="translate(0.894104)"/>
</clipPath>
</defs>
</svg>
