<svg width="117" height="117" viewBox="0 0 117 117" fill="none" xmlns="http://www.w3.org/2000/svg">
<g clip-path="url(#clip0_7_319)">
<path d="M0.15155 79.3192V110.804C0.15155 112.15 1.23019 113.243 2.56371 113.243C3.89723 113.243 4.97949 112.15 4.97949 110.804V79.3192H0.15155Z" fill="#434A54"/>
<path d="M111.217 81.8076V110.804C111.217 112.15 112.299 113.243 113.633 113.243C114.966 113.243 116.048 112.15 116.048 110.804V81.8076H111.217Z" fill="#434A54"/>
<path d="M113.633 40.3197H2.56371C1.23019 40.3197 0.15155 41.4102 0.15155 42.7566V81.7578C0.15155 83.1003 1.23019 84.1929 2.56371 84.1929H113.633C114.966 84.1929 116.049 83.1003 116.049 81.7578V42.7566C116.048 41.4107 114.966 40.3197 113.633 40.3197ZM99.1454 59.8184H94.3176V54.9446H99.1454V59.8184ZM103.973 54.9448H111.217V59.8187H103.973V54.9448ZM70.1714 59.8184H65.3435V54.9446H70.1714V59.8184ZM74.9991 54.9448H79.8304V59.8187H74.9991V54.9448ZM60.5119 59.8184H55.6842V54.9446H60.5119V59.8184ZM50.8562 59.8184H46.0249V54.9446H50.8562V59.8184ZM41.1972 59.8184H36.3692V54.9446H41.1972V59.8184ZM31.5379 59.8184H26.71V54.9446H31.5379V59.8184ZM31.5379 64.6942V69.5676H26.71V64.6942H31.5379ZM36.3692 64.6942H41.1972V69.5676H36.3692V64.6942ZM46.0249 64.6942H50.8562V69.5676H46.0249V64.6942ZM55.6842 64.6942H60.5119V69.5676H55.6842V64.6942ZM65.3435 64.6942H70.1714V69.5676H65.3435V64.6942ZM74.9991 64.6942H79.8304V69.5676H74.9991V64.6942ZM84.6584 64.6942H89.4863V69.5676H84.6584V64.6942ZM84.6584 59.8184V54.9446H89.4863V59.8184H84.6584ZM94.3176 50.0691V45.1936H99.1454V50.0688L94.3176 50.0691ZM89.4863 50.0691H84.6584V45.1936H89.4863V50.0691ZM79.8304 50.0691H74.9991V45.1936H79.8304V50.0691ZM70.1714 50.0691H65.3435V45.1936H70.1714V50.0691ZM60.5119 50.0691H55.6842V45.1936H60.5119V50.0691ZM50.8562 50.0691H46.0249V45.1936H50.8562V50.0691ZM41.1972 50.0691H36.3692V45.1936H41.1972V50.0691ZM31.5379 50.0691H26.71V45.1936H31.5379V50.0691ZM21.882 50.0691H17.0507V45.1936H21.882V50.0691ZM21.882 54.9448V59.8187H17.0507V54.9448H21.882ZM12.223 59.8184H4.97926V54.9446H12.2228L12.223 59.8184ZM4.97926 64.6942H12.2228V69.5676H4.97926V64.6942ZM17.0507 64.6942H21.882V69.5676H17.0507V64.6942ZM21.882 74.4451V79.319H17.0507V74.4451H21.882ZM26.71 74.4451H31.5379V79.319H26.71V74.4451ZM36.3692 74.4451H41.1972V79.319H36.3692V74.4451ZM46.0249 74.4451H50.8562V79.319H46.0249V74.4451ZM55.6842 74.4451H60.5119V79.319H55.6842V74.4451ZM65.3435 74.4451H70.1714V79.319H65.3435V74.4451ZM74.9991 74.4451H79.8304V79.319H74.9991V74.4451ZM84.6584 74.4451H89.4863V79.319H84.6584V74.4451ZM94.3176 74.4451H99.1454V79.319H94.3176V74.4451ZM94.3176 69.5678V64.6944H99.1454V69.5678H94.3176ZM103.973 64.6942H111.217V69.5676H103.973V64.6942ZM111.217 50.0691H103.973V45.1936H111.217V50.0691ZM12.223 45.1936V50.0688H4.97926V45.1934H12.223V45.1936ZM4.97926 74.4451H12.2228V79.319H4.97926V74.4451ZM103.973 79.3192V74.4454H111.217V79.3192H103.973Z" fill="#010002"/>
</g>
<defs>
<clipPath id="clip0_7_319">
<rect width="115.897" height="117" fill="white" transform="translate(0.15155)"/>
</clipPath>
</defs>
</svg>
